<svg xmlns="http://www.w3.org/2000/svg" viewBox="0 0 32.82 32.22"><defs><style>.a{fill:#fff;}.a,.b{stroke:#006682;stroke-linecap:round;stroke-linejoin:round;}.b,.c{fill:#006682;}.b{stroke-width:1.58px;}</style></defs><path class="a" d="M25.06,6.7H2.82A2.32,2.32,0,0,0,.5,9V20.55a2.31,2.31,0,0,0,2.32,2.31H16.45l5.61,8.86V22.86h3a2.31,2.31,0,0,0,2.32-2.31V9A2.32,2.32,0,0,0,25.06,6.7Z"/><rect class="b" x="21.1" y="4.21" width="10.93" height="4.08"/><rect class="b" x="21.1" y="4.21" width="10.93" height="4.08" transform="translate(32.82 -20.31) rotate(90)"/><path class="c" d="M9.55,12.09a2.82,2.82,0,0,1,.48-1.5,3.73,3.73,0,0,1,1.39-1.27,4.45,4.45,0,0,1,2.14-.5,4.56,4.56,0,0,1,2,.42,3.21,3.21,0,0,1,1.34,1.14A2.77,2.77,0,0,1,17.38,12a2.39,2.39,0,0,1-.27,1.16,3.54,3.54,0,0,1-.65.86c-.24.25-.69.66-1.33,1.23a4.33,4.33,0,0,0-.43.43,1.82,1.82,0,0,0-.23.33,1.37,1.37,0,0,0-.13.31c0,.1-.07.28-.12.53a.87.87,0,0,1-.94.82.94.94,0,0,1-.68-.27,1.07,1.07,0,0,1-.28-.79,2.83,2.83,0,0,1,.21-1.14,2.63,2.63,0,0,1,.54-.84,11.12,11.12,0,0,1,.9-.87c.34-.29.58-.51.73-.66a2.18,2.18,0,0,0,.37-.49,1.27,1.27,0,0,0,.15-.6,1.39,1.39,0,0,0-.46-1.06,1.73,1.73,0,0,0-1.2-.43,1.66,1.66,0,0,0-1.27.44,3.47,3.47,0,0,0-.69,1.28,1,1,0,0,1-1,.88,1,1,0,0,1-.74-.31A.94.94,0,0,1,9.55,12.09Zm3.82,8.58a1.26,1.26,0,0,1-.83-.31,1.1,1.1,0,0,1-.36-.87,1.14,1.14,0,0,1,.35-.83,1.17,1.17,0,0,1,.84-.33,1.13,1.13,0,0,1,.83.33,1.17,1.17,0,0,1,.34.83,1.06,1.06,0,0,1-.36.86A1.17,1.17,0,0,1,13.37,20.67Z"/></svg>