<svg xmlns="http://www.w3.org/2000/svg" viewBox="0 0 46.41 46.41"><defs><style>.a,.b,.d{fill:#fff;}.b,.c,.d{stroke:#be15cc;}.b,.d{stroke-miterlimit:10;}.c{fill:#be15cc;stroke-linejoin:round;}.d{stroke-linecap:round;}</style></defs><rect class="a" width="46.41" height="46.41" rx="3.4"/><path class="b" d="M26.72,12.49H20.24A1.47,1.47,0,0,0,18.77,14V31.08a1.47,1.47,0,0,0,1.47,1.47H30.92a1.46,1.46,0,0,0,1.46-1.47V18.16Z"/><path class="c" d="M28.18,18.16h4.2l-5.66-5.67v4.2A1.46,1.46,0,0,0,28.18,18.16Z"/><circle class="b" cx="19.87" cy="22.58" r="3.82"/><line class="b" x1="16.54" y1="26.97" x2="17.44" y2="25.79"/><rect class="b" x="13.71" y="26.44" width="1.69" height="6.29" rx="0.78" transform="translate(20.85 -2.78) rotate(37.21)"/><line class="d" x1="26.12" y1="21.45" x2="29.24" y2="21.45"/><line class="d" x1="26.12" y1="24.56" x2="29.24" y2="24.56"/><line class="d" x1="24.03" y1="27.88" x2="29.24" y2="27.88"/></svg>