<svg xmlns="http://www.w3.org/2000/svg" viewBox="0 0 23.94 23.88"><defs><style>.a{fill:#fff;stroke:#80b2c0;stroke-miterlimit:10;stroke-width:0.94px;}.b{fill:#80b2c0;}</style></defs><ellipse class="a" cx="11.97" cy="11.94" rx="11.5" ry="11.47"/><path class="b" d="M18.62,13.36a.47.47,0,0,1-.47.47H13.87v4.33a.47.47,0,0,1-.48.47H10.54a.47.47,0,0,1-.47-.47V13.83H5.79a.47.47,0,0,1-.47-.47V10.52A.48.48,0,0,1,5.79,10h4.28V5.78a.48.48,0,0,1,.47-.48h2.85a.48.48,0,0,1,.48.48V10h4.28a.48.48,0,0,1,.47.48Z"/></svg>