<svg xmlns="http://www.w3.org/2000/svg" viewBox="0 0 46.41 46.41"><defs><style>.a,.b{fill:#fff;}.b,.c,.d{stroke:#fa7598;stroke-miterlimit:10;}.c,.d{fill:#fa7598;}.c{stroke-width:1px;}.d{stroke-width:0.93px;}</style></defs><rect class="a" width="46.41" height="46.41" rx="3.4"/><path class="b" d="M24.33,23h7.3a.34.34,0,0,1,.33.34C31.71,30,24.14,35,17.13,30.24a5.37,5.37,0,0,1-1.44-1.45c-4.72-7,.2-14.58,6.86-14.83a.33.33,0,0,1,.34.34v7.3A1.44,1.44,0,0,0,24.33,23Z"/><rect class="c" x="12.29" y="19.78" width="7.62" height="6.97" rx="0.89"/><path class="a" d="M15.13,23.79v1.79h-.84V20.75h1.85a1.86,1.86,0,0,1,1.28.42,1.41,1.41,0,0,1,.48,1.12,1.36,1.36,0,0,1-.47,1.1,1.91,1.91,0,0,1-1.3.4Zm0-.68h1a1,1,0,0,0,.68-.21.76.76,0,0,0,.24-.61.81.81,0,0,0-.24-.62.89.89,0,0,0-.66-.24h-1Z"/><path class="d" d="M24.85,21V13.37a.32.32,0,0,1,.32-.32,8.08,8.08,0,0,1,7.74,7.74.32.32,0,0,1-.32.32H24.93A.09.09,0,0,1,24.85,21Z"/></svg>