<svg xmlns="http://www.w3.org/2000/svg" viewBox="0 0 31.03 23.5"><defs><style>.a{fill:#fff;stroke:#006682;stroke-linejoin:round;}</style></defs><path class="a" d="M25.05,8.17v2.56H11.75a7.48,7.48,0,0,0-3.15.76A7.45,7.45,0,0,0,6,13.4L.6,19.73l-.08.09s0-.11,0-.2a1.72,1.72,0,0,1,0-.2V4.08A3.44,3.44,0,0,1,1.55,1.56,3.45,3.45,0,0,1,4.08.5H9.19a3.43,3.43,0,0,1,2.53,1.06,3.44,3.44,0,0,1,1,2.52v.51h8.7A3.41,3.41,0,0,1,24,5.65,3.41,3.41,0,0,1,25.05,8.17Zm5.48,5.5a1.64,1.64,0,0,1-.5,1.05l-5.37,6.33a5.33,5.33,0,0,1-1.92,1.39,5.67,5.67,0,0,1-2.29.56H3.06a2.27,2.27,0,0,1-1-.2.72.72,0,0,1-.42-.69,1.66,1.66,0,0,1,.49-1.06l5.37-6.33a5.48,5.48,0,0,1,1.93-1.38,5.5,5.5,0,0,1,2.29-.57H29.14a2.19,2.19,0,0,1,1,.21A.72.72,0,0,1,30.53,13.67Z"/></svg>