<svg xmlns="http://www.w3.org/2000/svg" viewBox="0 0 32.18 32.18"><defs><style>.a{fill:none;stroke:#fff;stroke-miterlimit:10;}.b{fill:#fff;}</style></defs><circle class="a" cx="16.09" cy="16.09" r="15.59"/><path class="b" d="M21.52,12.79c0,.13,0,.25,0,.38A8.21,8.21,0,0,1,8.89,20.08a5.37,5.37,0,0,0,.7,0,5.78,5.78,0,0,0,3.58-1.24,2.88,2.88,0,0,1-2.7-2,3.31,3.31,0,0,0,.55.05,3.15,3.15,0,0,0,.75-.1A2.89,2.89,0,0,1,9.46,14v0a2.89,2.89,0,0,0,1.31.37,2.89,2.89,0,0,1-.9-3.86,8.2,8.2,0,0,0,6,3,3.6,3.6,0,0,1-.07-.66,2.89,2.89,0,0,1,5-2,5.79,5.79,0,0,0,1.83-.7,2.86,2.86,0,0,1-1.27,1.59A5.44,5.44,0,0,0,23,11.3a6.18,6.18,0,0,1-1.44,1.49Z"/></svg>