<svg xmlns="http://www.w3.org/2000/svg" viewBox="0 0 46.41 46.41"><defs><style>.a,.c{fill:#fff;}.b,.d{fill:none;}.b,.c,.d{stroke:#1fa0e8;stroke-linecap:round;stroke-miterlimit:10;}.b{stroke-width:1px;}.e{fill:#1fa0e8;}</style></defs><rect class="a" width="46.41" height="46.41" rx="3.4"/><line class="b" x1="13.18" y1="12.98" x2="33.24" y2="12.98"/><path class="c" d="M13.74,13.49H32.67a0,0,0,0,1,0,0v14.1a1.2,1.2,0,0,1-1.2,1.2H14.94a1.2,1.2,0,0,1-1.2-1.2V13.49A0,0,0,0,1,13.74,13.49Z"/><line class="d" x1="14.62" y1="33.43" x2="18.03" y2="28.86"/><line class="d" x1="28.18" y1="28.86" x2="31.59" y2="33.43"/><path class="e" d="M26.62,20.44,20.49,16.9a.6.6,0,0,0-.89.52V24.5a.59.59,0,0,0,.89.51l6.13-3.54A.59.59,0,0,0,26.62,20.44Z"/></svg>