<svg xmlns="http://www.w3.org/2000/svg" viewBox="0 0 124.87 36.58"><defs><style>.a{fill:#fff;stroke:#80b2c0;stroke-miterlimit:10;}.b{fill:#004e63;}</style></defs><path class="a" d="M124.37,30H72.44l-10,6-10-6H9.91L.5,20.59V.5H115l9.4,9.41Z"/><path class="b" d="M29.5,19.59h4.92v.7H28.68V10.34h.82Z"/><path class="b" d="M38.61,20.43a3,3,0,0,1-2.31-1,3.76,3.76,0,0,1-.92-2.6v-.37a3.87,3.87,0,0,1,.91-2.64,2.86,2.86,0,0,1,2.21-1,2.72,2.72,0,0,1,2.14.86,3.29,3.29,0,0,1,.78,2.3v.69H36.2v.2a3.29,3.29,0,0,0,.66,2.09,2.12,2.12,0,0,0,1.75.84,3.37,3.37,0,0,0,1.3-.22,2.53,2.53,0,0,0,.92-.6l.35.56a3.07,3.07,0,0,1-1,.7A4.14,4.14,0,0,1,38.61,20.43Zm-.11-7a2,2,0,0,0-1.52.7,3,3,0,0,0-.72,1.73v0h4.34v-.21A2.35,2.35,0,0,0,40,14.1,2,2,0,0,0,38.5,13.45Z"/><path class="b" d="M47.72,20.29c0-.25-.09-.47-.11-.65a5.09,5.09,0,0,1,0-.55,3.09,3.09,0,0,1-1.09,1,3,3,0,0,1-1.54.38,2.34,2.34,0,0,1-1.68-.57,2.06,2.06,0,0,1-.59-1.54,1.9,1.9,0,0,1,.88-1.64,4.13,4.13,0,0,1,2.39-.61h1.63v-.92a1.59,1.59,0,0,0-.5-1.24,2.1,2.1,0,0,0-1.43-.46,2.27,2.27,0,0,0-1.42.44,1.28,1.28,0,0,0-.56,1h-.75l0,0a1.78,1.78,0,0,1,.76-1.48,3.1,3.1,0,0,1,2-.65,2.93,2.93,0,0,1,2,.62,2.18,2.18,0,0,1,.75,1.78V18.8a6.34,6.34,0,0,0,0,.76,4.5,4.5,0,0,0,.15.73ZM45,19.71a3,3,0,0,0,1.56-.41,2.46,2.46,0,0,0,1-1.06V16.69H45.93a3,3,0,0,0-1.78.48,1.4,1.4,0,0,0-.67,1.18,1.28,1.28,0,0,0,.41,1A1.66,1.66,0,0,0,45,19.71Z"/><path class="b" d="M54,13.6l-.61,0A1.84,1.84,0,0,0,52.1,14a2.41,2.41,0,0,0-.71,1.19v5.11h-.82v-7.4h.72l.1,1.23v.09a2.64,2.64,0,0,1,.86-1.07,2.21,2.21,0,0,1,1.29-.38l.3,0,.24.05Z"/><path class="b" d="M56.06,12.89l.07,1.3a2.54,2.54,0,0,1,2.4-1.43,2.27,2.27,0,0,1,1.83.73,3.49,3.49,0,0,1,.63,2.3v4.5h-.82V15.78a2.66,2.66,0,0,0-.48-1.8,1.74,1.74,0,0,0-1.35-.53,2.12,2.12,0,0,0-1.4.46,2.49,2.49,0,0,0-.79,1.21v5.17h-.82v-7.4Z"/><path class="b" d="M67.22,12.89l.08,1.23a2.62,2.62,0,0,1,.94-1,2.78,2.78,0,0,1,1.41-.35,2.32,2.32,0,0,1,1.42.41,2.23,2.23,0,0,1,.82,1.25,2.79,2.79,0,0,1,1-1.22,2.52,2.52,0,0,1,1.51-.44,2.24,2.24,0,0,1,1.83.78A3.89,3.89,0,0,1,76.82,16v4.31H76V16A3,3,0,0,0,75.52,14a1.67,1.67,0,0,0-1.35-.57,1.85,1.85,0,0,0-1.47.6,2.88,2.88,0,0,0-.64,1.53v.14a.66.66,0,0,1,0,.13v4.44h-.83V16A3,3,0,0,0,70.75,14a1.67,1.67,0,0,0-1.34-.58A2,2,0,0,0,68,13.9a2.28,2.28,0,0,0-.71,1.18v5.21h-.83v-7.4Z"/><path class="b" d="M78.48,16.48a4,4,0,0,1,.9-2.68,3,3,0,0,1,2.37-1,3,3,0,0,1,2.38,1A4,4,0,0,1,85,16.48v.23a4,4,0,0,1-.89,2.68,3.23,3.23,0,0,1-4.75,0,4,4,0,0,1-.9-2.68Zm.82.22A3.53,3.53,0,0,0,80,18.86a2.11,2.11,0,0,0,1.81.88,2.09,2.09,0,0,0,1.79-.88,3.47,3.47,0,0,0,.66-2.16v-.22a3.45,3.45,0,0,0-.66-2.14,2.13,2.13,0,0,0-1.8-.89,2.1,2.1,0,0,0-1.8.89,3.51,3.51,0,0,0-.65,2.14Z"/><path class="b" d="M90.14,13.6l-.61,0a1.84,1.84,0,0,0-1.27.43,2.41,2.41,0,0,0-.71,1.19v5.11h-.82v-7.4h.72l.1,1.23v.09a2.64,2.64,0,0,1,.86-1.07,2.21,2.21,0,0,1,1.29-.38l.3,0,.24.05Z"/><path class="b" d="M94.14,20.43a3,3,0,0,1-2.31-1,3.76,3.76,0,0,1-.92-2.6v-.37a3.88,3.88,0,0,1,.92-2.64,2.84,2.84,0,0,1,2.21-1,2.72,2.72,0,0,1,2.14.86,3.29,3.29,0,0,1,.78,2.3v.69H91.73v.2a3.29,3.29,0,0,0,.67,2.09,2.11,2.11,0,0,0,1.74.84,3.42,3.42,0,0,0,1.31-.22,2.62,2.62,0,0,0,.92-.6l.35.56a3.11,3.11,0,0,1-1.06.7A4.07,4.07,0,0,1,94.14,20.43Zm-.1-7a2,2,0,0,0-1.53.7,2.91,2.91,0,0,0-.71,1.73v0h4.33v-.21a2.39,2.39,0,0,0-.56-1.61A2,2,0,0,0,94,13.45Z"/></svg>