<svg xmlns="http://www.w3.org/2000/svg" viewBox="0 0 140.87 63.27"><defs><style>.a{fill:#fff;fill-opacity:0.9;stroke:#80b2c0;stroke-miterlimit:10;}.b{fill:#004e63;}</style></defs><path class="a" d="M140.37,56.69H80.44l-10,6-10-6H9.91L.5,47.28V.5H131l9.4,9.41Z"/><path class="b" d="M43.44,23.37a1.63,1.63,0,0,0-.61-1.32,5.39,5.39,0,0,0-2.12-.91,6.73,6.73,0,0,1-2.47-1.07,2.14,2.14,0,0,1-.84-1.77,2.23,2.23,0,0,1,.94-1.86,3.84,3.84,0,0,1,2.41-.72,3.57,3.57,0,0,1,2.49.86,2.6,2.6,0,0,1,.91,2.08l0,0h-.75a2.13,2.13,0,0,0-.71-1.64,2.73,2.73,0,0,0-1.92-.64,2.94,2.94,0,0,0-1.86.53,1.64,1.64,0,0,0-.68,1.33,1.55,1.55,0,0,0,.62,1.25,5.84,5.84,0,0,0,2.15.89,6,6,0,0,1,2.44,1.11,2.25,2.25,0,0,1,.84,1.83,2.22,2.22,0,0,1-1,1.9,4.14,4.14,0,0,1-2.49.7,4.54,4.54,0,0,1-2.6-.75A2.39,2.39,0,0,1,37.12,23l0,0h.75a1.91,1.91,0,0,0,.87,1.72,3.71,3.71,0,0,0,2,.55,3.25,3.25,0,0,0,1.91-.51A1.62,1.62,0,0,0,43.44,23.37Z"/><path class="b" d="M50.78,24.61a2.54,2.54,0,0,1-1,1A2.83,2.83,0,0,1,48.4,26a2.25,2.25,0,0,1-1.83-.79,3.81,3.81,0,0,1-.66-2.46V18.42h.82v4.31a3.22,3.22,0,0,0,.46,1.95,1.58,1.58,0,0,0,1.31.58A2.45,2.45,0,0,0,50,24.85a2.24,2.24,0,0,0,.78-1.15V18.42h.82v7.4h-.73Z"/><path class="b" d="M59.68,22.33A4.24,4.24,0,0,1,58.93,25a2.45,2.45,0,0,1-2.07,1,3.06,3.06,0,0,1-1.36-.29,2.59,2.59,0,0,1-1-.84v3.83h-.82V18.42h.69l.11,1.15a2.55,2.55,0,0,1,.95-.95,2.76,2.76,0,0,1,1.38-.33,2.4,2.4,0,0,1,2.08,1.06,4.81,4.81,0,0,1,.75,2.83Zm-.82-.16a4.19,4.19,0,0,0-.56-2.3A1.82,1.82,0,0,0,56.66,19a2.1,2.1,0,0,0-1.34.4,2.41,2.41,0,0,0-.78,1V24a2.37,2.37,0,0,0,.81,1,2.41,2.41,0,0,0,1.33.34,1.86,1.86,0,0,0,1.63-.8,3.73,3.73,0,0,0,.55-2.14Z"/><path class="b" d="M67.48,22.33A4.18,4.18,0,0,1,66.72,25a2.45,2.45,0,0,1-2.07,1,3.06,3.06,0,0,1-1.36-.29,2.49,2.49,0,0,1-.95-.84v3.83h-.82V18.42h.69l.1,1.15a2.55,2.55,0,0,1,.95-.95,2.76,2.76,0,0,1,1.38-.33,2.4,2.4,0,0,1,2.08,1.06,4.74,4.74,0,0,1,.76,2.83Zm-.82-.16a4.28,4.28,0,0,0-.56-2.3A1.83,1.83,0,0,0,64.46,19a2.13,2.13,0,0,0-1.35.4,2.39,2.39,0,0,0-.77,1V24a2.23,2.23,0,0,0,.81,1,2.36,2.36,0,0,0,1.32.34,1.85,1.85,0,0,0,1.63-.8,3.73,3.73,0,0,0,.56-2.14Z"/><path class="b" d="M68.86,22a4,4,0,0,1,.89-2.68,3.23,3.23,0,0,1,4.75,0A4,4,0,0,1,75.4,22v.23a4,4,0,0,1-.89,2.68,3.24,3.24,0,0,1-4.76,0,4,4,0,0,1-.89-2.68Zm.82.22a3.47,3.47,0,0,0,.65,2.16,2.3,2.3,0,0,0,3.6,0,3.47,3.47,0,0,0,.66-2.16V22a3.48,3.48,0,0,0-.66-2.15A2.15,2.15,0,0,0,72.12,19a2.12,2.12,0,0,0-1.79.88A3.48,3.48,0,0,0,69.68,22Z"/><path class="b" d="M80.51,19.13l-.61-.05a1.84,1.84,0,0,0-1.26.44,2.41,2.41,0,0,0-.71,1.19v5.11h-.82v-7.4h.72l.1,1.23v.08a2.6,2.6,0,0,1,.86-1.06,2.14,2.14,0,0,1,1.29-.38,1.51,1.51,0,0,1,.3,0l.24.05Z"/><path class="b" d="M83.38,16.53v1.89H85v.67H83.38v4.82a1.56,1.56,0,0,0,.26,1,.89.89,0,0,0,.7.3h.39l.43-.06.12.61a1.93,1.93,0,0,1-.49.13,3,3,0,0,1-.59.05A1.54,1.54,0,0,1,83,25.47a2.33,2.33,0,0,1-.43-1.56V19.09H81.27v-.67h1.28V16.53Z"/><path class="b" d="M87.66,16.3h-.82V15.15h.82Zm0,9.52h-.82v-7.4h.82Z"/><path class="b" d="M90.64,18.42l.08,1.29a2.71,2.71,0,0,1,1-1.05,2.65,2.65,0,0,1,1.43-.37,2.27,2.27,0,0,1,1.83.73,3.46,3.46,0,0,1,.63,2.29v4.51h-.82V21.31a2.72,2.72,0,0,0-.47-1.8A1.74,1.74,0,0,0,92.93,19a2.08,2.08,0,0,0-1.41.46,2.5,2.5,0,0,0-.78,1.21v5.17h-.82v-7.4Z"/><path class="b" d="M97.39,22.18a4.74,4.74,0,0,1,.76-2.83,2.42,2.42,0,0,1,2.1-1.06,2.59,2.59,0,0,1,1.36.34,2.85,2.85,0,0,1,1,1l.09-1.18h.69v7.3a3.17,3.17,0,0,1-.78,2.26,2.91,2.91,0,0,1-2.2.83,5.86,5.86,0,0,1-1.14-.13,4.61,4.61,0,0,1-1-.36l.21-.69a3.74,3.74,0,0,0,.92.33,4.37,4.37,0,0,0,1,.11,2,2,0,0,0,1.63-.62,2.5,2.5,0,0,0,.55-1.73v-.93a2.56,2.56,0,0,1-1,.87,2.82,2.82,0,0,1-1.34.3,2.47,2.47,0,0,1-2.08-1,4.2,4.2,0,0,1-.76-2.64Zm.82.15a3.66,3.66,0,0,0,.55,2.13,1.82,1.82,0,0,0,1.62.8,2.34,2.34,0,0,0,1.33-.36,2.4,2.4,0,0,0,.81-1V20.46a2.45,2.45,0,0,0-.78-1.06A2,2,0,0,0,100.4,19a1.82,1.82,0,0,0-1.64.89,4.44,4.44,0,0,0-.55,2.31Z"/><path class="b" d="M33.41,38.2l3.08-5.53h.95L33.81,39v3.64H33V38.93l-3.61-6.26h.95Z"/><path class="b" d="M37.85,38.81a4,4,0,0,1,.9-2.68,2.93,2.93,0,0,1,2.37-1,3,3,0,0,1,2.38,1,4,4,0,0,1,.89,2.68V39a4,4,0,0,1-.89,2.68,3.23,3.23,0,0,1-4.75,0,4,4,0,0,1-.9-2.68Zm.82.22a3.53,3.53,0,0,0,.65,2.16,2.29,2.29,0,0,0,3.61,0A3.53,3.53,0,0,0,43.58,39v-.22a3.5,3.5,0,0,0-.66-2.15,2.15,2.15,0,0,0-1.8-.88,2.12,2.12,0,0,0-1.8.88,3.56,3.56,0,0,0-.65,2.15Z"/><path class="b" d="M51,41.41a2.57,2.57,0,0,1-1,1,2.7,2.7,0,0,1-1.42.35A2.25,2.25,0,0,1,46.74,42a3.75,3.75,0,0,1-.67-2.46V35.22h.82v4.31a3.27,3.27,0,0,0,.46,1.95,1.59,1.59,0,0,0,1.31.59,2.42,2.42,0,0,0,1.49-.42,2.19,2.19,0,0,0,.77-1.15V35.22h.82v7.4H51Z"/><path class="b" d="M57.3,35.93l-.61,0a1.84,1.84,0,0,0-1.27.43,2.41,2.41,0,0,0-.71,1.19v5.11h-.82v-7.4h.72l.1,1.23v.09a2.67,2.67,0,0,1,.87-1.07,2.11,2.11,0,0,1,1.28-.38,1.42,1.42,0,0,1,.3,0l.25,0Z"/><path class="b" d="M63.1,38.48v4.14h-.81V32.67h3.42a3.45,3.45,0,0,1,2.43.79,3.06,3.06,0,0,1,0,4.23,3.45,3.45,0,0,1-2.43.79Zm0-.69h2.61a2.48,2.48,0,0,0,1.85-.63,2.34,2.34,0,0,0,0-3.16,2.45,2.45,0,0,0-1.86-.64H63.1Z"/><path class="b" d="M75.33,42.62c0-.25-.09-.47-.12-.65a5.07,5.07,0,0,1,0-.55,3.4,3.4,0,0,1-1.09,1,3.17,3.17,0,0,1-1.54.38,2.34,2.34,0,0,1-1.68-.57,2,2,0,0,1-.6-1.54A1.91,1.91,0,0,1,71.16,39a4.11,4.11,0,0,1,2.39-.62h1.63v-.91a1.6,1.6,0,0,0-.51-1.25,2.07,2.07,0,0,0-1.42-.45,2.31,2.31,0,0,0-1.42.43,1.29,1.29,0,0,0-.57,1.06h-.75v0a1.75,1.75,0,0,1,.75-1.48,3.07,3.07,0,0,1,2-.65,2.94,2.94,0,0,1,2,.62A2.17,2.17,0,0,1,76,37.49v3.64a6.33,6.33,0,0,0,.05.76,4.73,4.73,0,0,0,.15.73ZM72.64,42a2.89,2.89,0,0,0,1.56-.42,2.41,2.41,0,0,0,1-1V39H73.53a3,3,0,0,0-1.78.48,1.42,1.42,0,0,0-.66,1.18,1.25,1.25,0,0,0,.41,1A1.65,1.65,0,0,0,72.64,42Z"/><path class="b" d="M79.46,33.33v1.89h1.63v.67H79.46v4.82a1.6,1.6,0,0,0,.26,1,.89.89,0,0,0,.7.3h.39l.43-.06.13.61a2.14,2.14,0,0,1-.5.13,2.94,2.94,0,0,1-.59,0,1.52,1.52,0,0,1-1.21-.49,2.32,2.32,0,0,1-.44-1.56V35.89H77.35v-.67h1.28V33.33Z"/><path class="b" d="M83.74,33.1h-.81V32h.81Zm0,9.52h-.81v-7.4h.81Z"/><path class="b" d="M88.78,42.76a3,3,0,0,1-2.31-1,3.77,3.77,0,0,1-.92-2.6v-.38a3.91,3.91,0,0,1,.91-2.63,2.83,2.83,0,0,1,2.21-1,2.72,2.72,0,0,1,2.14.86,3.28,3.28,0,0,1,.78,2.29v.7H86.37v.2A3.29,3.29,0,0,0,87,41.23a2.14,2.14,0,0,0,1.75.84,3.37,3.37,0,0,0,1.3-.22,2.66,2.66,0,0,0,.93-.6l.34.56a2.91,2.91,0,0,1-1,.69A3.9,3.9,0,0,1,88.78,42.76Zm-.11-7a1.94,1.94,0,0,0-1.52.7,3,3,0,0,0-.72,1.73l0,0h4.33V38a2.35,2.35,0,0,0-.57-1.61A2,2,0,0,0,88.67,35.78Z"/><path class="b" d="M93.94,35.22,94,36.51a2.71,2.71,0,0,1,1-1,2.68,2.68,0,0,1,1.44-.37,2.27,2.27,0,0,1,1.83.73,3.48,3.48,0,0,1,.63,2.29v4.51h-.82V38.11a2.66,2.66,0,0,0-.48-1.8,1.74,1.74,0,0,0-1.35-.53,2.12,2.12,0,0,0-1.4.46A2.49,2.49,0,0,0,94,37.45v5.17h-.82v-7.4Z"/><path class="b" d="M102.29,33.33v1.89h1.63v.67h-1.63v4.82a1.53,1.53,0,0,0,.27,1,.87.87,0,0,0,.7.3h.38l.44-.06.12.61a2,2,0,0,1-.5.13,2.94,2.94,0,0,1-.59,0,1.52,1.52,0,0,1-1.21-.49,2.32,2.32,0,0,1-.44-1.56V35.89h-1.27v-.67h1.27V33.33Z"/><path class="b" d="M110.08,40.74a1.2,1.2,0,0,0-.42-.91,3.57,3.57,0,0,0-1.54-.64,5.19,5.19,0,0,1-2-.75,1.58,1.58,0,0,1-.63-1.34,1.77,1.77,0,0,1,.71-1.43,2.9,2.9,0,0,1,1.89-.58,3,3,0,0,1,2,.61,1.86,1.86,0,0,1,.7,1.55v0H110a1.38,1.38,0,0,0-.52-1.06,2,2,0,0,0-1.39-.45,2,2,0,0,0-1.34.39,1.14,1.14,0,0,0-.45.9,1.05,1.05,0,0,0,.39.84,3.77,3.77,0,0,0,1.54.59,4.93,4.93,0,0,1,2,.8,1.67,1.67,0,0,1,.66,1.39,1.79,1.79,0,0,1-.75,1.5,3.76,3.76,0,0,1-4.09-.07,1.8,1.8,0,0,1-.73-1.53v0h.75a1.32,1.32,0,0,0,.66,1.15,2.61,2.61,0,0,0,1.42.37,2.26,2.26,0,0,0,1.4-.39A1.16,1.16,0,0,0,110.08,40.74Z"/></svg>