<svg xmlns="http://www.w3.org/2000/svg" viewBox="0 0 140.87 63.27"><defs><style>.a{fill:#fff;stroke:#80b2c0;stroke-miterlimit:10;}.b{fill:#004e63;}</style></defs><path class="a" d="M140.37,56.69H80.44l-10,6-10-6H9.91L.5,47.28V.5H131l9.4,9.41Z"/><path class="b" d="M52.33,19.51H47.54v4.12H53v.7h-6.3v-10H53v.7H47.54v3.74h4.79Z"/><path class="b" d="M56.89,20l2-3h1l-2.51,3.63L60,24.33H59L56.9,21.18l-2.1,3.15h-1l2.62-3.77-2.51-3.63h1Z"/><path class="b" d="M62.7,15v1.89h1.62v.67H62.7v4.82a1.62,1.62,0,0,0,.26,1,.89.89,0,0,0,.7.3h.39l.43-.06.12.61a1.93,1.93,0,0,1-.49.13,3,3,0,0,1-.59,0A1.54,1.54,0,0,1,62.3,24a2.38,2.38,0,0,1-.43-1.56V17.6H60.59v-.67h1.28V15Z"/><path class="b" d="M68.84,24.47a3,3,0,0,1-2.31-1,3.77,3.77,0,0,1-.92-2.6v-.38a3.84,3.84,0,0,1,.91-2.63,2.84,2.84,0,0,1,2.21-1.05,2.72,2.72,0,0,1,2.14.87A3.28,3.28,0,0,1,71.65,20v.7H66.43v.2a3.29,3.29,0,0,0,.66,2.09,2.14,2.14,0,0,0,1.75.83,3.58,3.58,0,0,0,1.3-.21,2.43,2.43,0,0,0,.92-.61l.35.56a2.81,2.81,0,0,1-1,.7A3.94,3.94,0,0,1,68.84,24.47Zm-.11-7a2,2,0,0,0-1.52.69,3,3,0,0,0-.72,1.74l0,0h4.33v-.2a2.35,2.35,0,0,0-.57-1.61A2,2,0,0,0,68.73,17.49Z"/><path class="b" d="M76.68,17.64l-.61-.05A1.85,1.85,0,0,0,74.8,18a2.41,2.41,0,0,0-.71,1.19v5.11h-.82v-7.4H74l.1,1.23v.08A2.77,2.77,0,0,1,75,17.18a2.14,2.14,0,0,1,1.29-.39,2.85,2.85,0,0,1,.55.08Z"/><path class="b" d="M78.76,16.93l.08,1.29a2.57,2.57,0,0,1,1-1,2.65,2.65,0,0,1,1.43-.38,2.28,2.28,0,0,1,1.83.74,3.46,3.46,0,0,1,.63,2.29v4.51h-.82V19.82A2.72,2.72,0,0,0,82.4,18a1.74,1.74,0,0,0-1.35-.53,2.08,2.08,0,0,0-1.41.46,2.5,2.5,0,0,0-.78,1.21v5.17H78v-7.4Z"/><path class="b" d="M90.51,24.33c-.05-.25-.09-.47-.11-.65a3.43,3.43,0,0,1,0-.56,3.22,3.22,0,0,1-1.09,1,3.17,3.17,0,0,1-1.54.38,2.34,2.34,0,0,1-1.68-.57,2,2,0,0,1-.6-1.54,1.91,1.91,0,0,1,.89-1.64,4.13,4.13,0,0,1,2.39-.62h1.63v-.91a1.58,1.58,0,0,0-.51-1.25,2.07,2.07,0,0,0-1.42-.45,2.33,2.33,0,0,0-1.42.43A1.28,1.28,0,0,0,86.45,19h-.76v0a1.74,1.74,0,0,1,.76-1.48,3.05,3.05,0,0,1,2-.66,3,3,0,0,1,2,.63,2.18,2.18,0,0,1,.75,1.78v3.64a6.34,6.34,0,0,0,0,.76,4.73,4.73,0,0,0,.15.73Zm-2.68-.58a2.94,2.94,0,0,0,1.56-.42,2.38,2.38,0,0,0,1-1V20.73H88.72a3,3,0,0,0-1.79.48,1.4,1.4,0,0,0-.66,1.18,1.3,1.3,0,0,0,.41,1A1.66,1.66,0,0,0,87.83,23.75Z"/><path class="b" d="M94.27,24.33h-.81V13.66h.81Z"/><path class="b" d="M39.85,36.63v4.5H39v-10h3.38a3.76,3.76,0,0,1,2.45.7,2.5,2.5,0,0,1,.85,2.05,2.38,2.38,0,0,1-.45,1.42,2.65,2.65,0,0,1-1.3.91,2.17,2.17,0,0,1,1.33.83,2.62,2.62,0,0,1,.41,1.5v.94a3,3,0,0,0,.11.83,1.21,1.21,0,0,0,.36.6v.17h-.83a1.42,1.42,0,0,1-.36-.69,4.08,4.08,0,0,1-.1-.93v-.9a1.85,1.85,0,0,0-.59-1.45,2.42,2.42,0,0,0-1.65-.53Zm0-.7H42.3a3,3,0,0,0,2-.54,1.83,1.83,0,0,0,.62-1.47,1.86,1.86,0,0,0-.62-1.51,2.81,2.81,0,0,0-1.86-.53H39.85Z"/><path class="b" d="M50.82,41.27a3,3,0,0,1-2.31-1,3.77,3.77,0,0,1-.92-2.6v-.38a3.85,3.85,0,0,1,.92-2.63,2.81,2.81,0,0,1,2.21-1,2.74,2.74,0,0,1,2.14.87,3.28,3.28,0,0,1,.78,2.29v.7H48.41v.2a3.24,3.24,0,0,0,.67,2.08,2.11,2.11,0,0,0,1.74.84,3.63,3.63,0,0,0,1.31-.21,2.51,2.51,0,0,0,.92-.61l.35.56a2.85,2.85,0,0,1-1.06.7A3.87,3.87,0,0,1,50.82,41.27Zm-.1-7a2,2,0,0,0-1.53.69,2.91,2.91,0,0,0-.71,1.74v0h4.33v-.2a2.39,2.39,0,0,0-.56-1.61A2,2,0,0,0,50.72,34.29Z"/><path class="b" d="M59.69,39.24a1.21,1.21,0,0,0-.43-.9,3.57,3.57,0,0,0-1.54-.64,5,5,0,0,1-2-.76,1.55,1.55,0,0,1-.63-1.33,1.77,1.77,0,0,1,.71-1.43,2.91,2.91,0,0,1,1.89-.59,3,3,0,0,1,2,.62,1.86,1.86,0,0,1,.7,1.55v0h-.76a1.36,1.36,0,0,0-.52-1.06,2,2,0,0,0-1.39-.45,2,2,0,0,0-1.34.39,1.14,1.14,0,0,0-.45.9,1.05,1.05,0,0,0,.39.84,3.77,3.77,0,0,0,1.54.59,4.87,4.87,0,0,1,2,.8,1.66,1.66,0,0,1,.66,1.39,1.79,1.79,0,0,1-.75,1.5,3.76,3.76,0,0,1-4.09-.07,1.8,1.8,0,0,1-.73-1.53v0h.75a1.35,1.35,0,0,0,.66,1.15,2.72,2.72,0,0,0,1.42.36,2.33,2.33,0,0,0,1.4-.38A1.15,1.15,0,0,0,59.69,39.24Z"/><path class="b" d="M61.93,37.32a4,4,0,0,1,.89-2.68,3.22,3.22,0,0,1,4.76,0,4,4,0,0,1,.89,2.68v.23a4,4,0,0,1-.89,2.68,3.24,3.24,0,0,1-4.76,0,4,4,0,0,1-.89-2.68Zm.82.22a3.53,3.53,0,0,0,.65,2.16,2.3,2.3,0,0,0,3.6,0,3.47,3.47,0,0,0,.66-2.16v-.22A3.48,3.48,0,0,0,67,35.17a2.15,2.15,0,0,0-1.8-.88,2.12,2.12,0,0,0-1.8.88,3.54,3.54,0,0,0-.65,2.15Z"/><path class="b" d="M75,39.92a2.64,2.64,0,0,1-1,1,2.82,2.82,0,0,1-1.42.35,2.25,2.25,0,0,1-1.83-.79A3.75,3.75,0,0,1,70.15,38V33.73H71V38A3.23,3.23,0,0,0,71.43,40a1.56,1.56,0,0,0,1.31.59,2.48,2.48,0,0,0,1.49-.41A2.23,2.23,0,0,0,75,39V33.73h.82v7.4H75.1Z"/><path class="b" d="M81.38,34.44l-.61,0a1.85,1.85,0,0,0-1.27.44A2.41,2.41,0,0,0,78.79,36v5.11H78v-7.4h.72l.1,1.23V35A2.69,2.69,0,0,1,79.65,34a2.14,2.14,0,0,1,1.29-.39,1.45,1.45,0,0,1,.3,0l.25.05Z"/><path class="b" d="M85.35,40.57a2.31,2.31,0,0,0,1.43-.46,1.51,1.51,0,0,0,.63-1.29h.72v0a2,2,0,0,1-.82,1.72,3,3,0,0,1-2,.69,2.8,2.8,0,0,1-2.34-1,4.1,4.1,0,0,1-.82-2.66v-.28A4.16,4.16,0,0,1,83,34.63a2.8,2.8,0,0,1,2.32-1,3,3,0,0,1,2,.72,2.32,2.32,0,0,1,.78,1.89v0h-.73a1.8,1.8,0,0,0-.6-1.42,2.16,2.16,0,0,0-1.47-.53,2,2,0,0,0-1.76.85A3.77,3.77,0,0,0,83,37.28v.29a3.82,3.82,0,0,0,.57,2.16A2,2,0,0,0,85.35,40.57Z"/><path class="b" d="M92.64,41.27a3,3,0,0,1-2.31-1,3.77,3.77,0,0,1-.92-2.6v-.38a3.84,3.84,0,0,1,.91-2.63,2.84,2.84,0,0,1,2.21-1,2.72,2.72,0,0,1,2.14.87,3.28,3.28,0,0,1,.78,2.29v.7H90.23v.2a3.24,3.24,0,0,0,.66,2.08,2.14,2.14,0,0,0,1.75.84,3.58,3.58,0,0,0,1.3-.21,2.43,2.43,0,0,0,.92-.61l.35.56a2.89,2.89,0,0,1-1,.7A3.94,3.94,0,0,1,92.64,41.27Zm-.11-7A2,2,0,0,0,91,35a3,3,0,0,0-.72,1.74l0,0h4.33v-.2a2.35,2.35,0,0,0-.57-1.61A2,2,0,0,0,92.53,34.29Z"/><path class="b" d="M101.5,39.24a1.17,1.17,0,0,0-.43-.9,3.46,3.46,0,0,0-1.54-.64,5.15,5.15,0,0,1-2-.76,1.55,1.55,0,0,1-.63-1.33,1.78,1.78,0,0,1,.72-1.43,2.87,2.87,0,0,1,1.89-.59,3,3,0,0,1,2,.62,1.86,1.86,0,0,1,.7,1.55l0,0h-.76a1.38,1.38,0,0,0-.51-1.06,2.06,2.06,0,0,0-1.39-.45,2,2,0,0,0-1.35.39,1.16,1.16,0,0,0-.44.9,1.07,1.07,0,0,0,.38.84,3.83,3.83,0,0,0,1.54.59,5,5,0,0,1,2,.8,1.66,1.66,0,0,1,.66,1.39,1.79,1.79,0,0,1-.75,1.5,3.78,3.78,0,0,1-4.1-.07,1.85,1.85,0,0,1-.73-1.53l0,0h.75a1.34,1.34,0,0,0,.65,1.15,2.76,2.76,0,0,0,1.43.36,2.33,2.33,0,0,0,1.4-.38A1.17,1.17,0,0,0,101.5,39.24Z"/></svg>