<svg xmlns="http://www.w3.org/2000/svg" viewBox="0 0 140.87 63.27"><defs><style>.a{fill:#fff;stroke:#80b2c0;stroke-miterlimit:10;}.b{fill:#004e63;}</style></defs><path class="a" d="M140.37,56.69H80.44l-10,6-10-6H9.91L.5,47.28V.5H131l9.4,9.41Z"/><path class="b" d="M48.91,21.22v0a3.43,3.43,0,0,1-1.06,2.35,3.59,3.59,0,0,1-2.51.86,3.34,3.34,0,0,1-2.68-1.2,4.62,4.62,0,0,1-1-3.11V18.54a4.63,4.63,0,0,1,1-3.1,3.32,3.32,0,0,1,2.68-1.21,3.59,3.59,0,0,1,2.51.84,3.42,3.42,0,0,1,1.06,2.37v0h-.77a3.09,3.09,0,0,0-.85-1.9,2.72,2.72,0,0,0-1.94-.65,2.52,2.52,0,0,0-2.1,1,4.12,4.12,0,0,0-.79,2.59v1.63a4.16,4.16,0,0,0,.79,2.61,2.54,2.54,0,0,0,2.1,1,2.75,2.75,0,0,0,1.95-.64,3,3,0,0,0,.84-1.91Z"/><path class="b" d="M58.29,20.16a4.53,4.53,0,0,1-1,3.12,3.6,3.6,0,0,1-2.83,1.19,3.56,3.56,0,0,1-2.8-1.19,4.57,4.57,0,0,1-1-3.12V18.54a4.57,4.57,0,0,1,1-3.11,3.5,3.5,0,0,1,2.79-1.2,3.61,3.61,0,0,1,2.84,1.2,4.52,4.52,0,0,1,1,3.11Zm-.81-1.62a4,4,0,0,0-.81-2.61,2.81,2.81,0,0,0-2.27-1,2.71,2.71,0,0,0-2.22,1,4.1,4.1,0,0,0-.79,2.61v1.63a4.06,4.06,0,0,0,.8,2.62,2.68,2.68,0,0,0,2.22,1,2.75,2.75,0,0,0,2.26-1,4,4,0,0,0,.81-2.62Z"/><path class="b" d="M63.09,22.65l.2.66h0l.2-.66,3-8.28h.89l-3.71,10h-.78l-3.71-10h.89Z"/><path class="b" d="M69.93,24.33h-.82v-10h.82Z"/><path class="b" d="M72.72,24.33v-10h2.89a4.06,4.06,0,0,1,3,1.22,4.29,4.29,0,0,1,1.18,3.13V20a4.29,4.29,0,0,1-1.18,3.13,4.09,4.09,0,0,1-3,1.21Zm.81-9.26v8.56h2.08a3.15,3.15,0,0,0,2.43-1A3.68,3.68,0,0,0,79,20v-1.3A3.65,3.65,0,0,0,78,16.1a3.2,3.2,0,0,0-2.43-1Z"/><path class="b" d="M84.21,20.44H80.94v-.7h3.27Z"/><path class="b" d="M89.24,24.38h-.82V15.23l-2.53.29V15l3.35-.6Z"/><path class="b" d="M95.86,23.77a2.27,2.27,0,0,0,1.8-.75,3.17,3.17,0,0,0,.67-2.17v-1a2.51,2.51,0,0,1-1,1,2.72,2.72,0,0,1-1.36.34,2.79,2.79,0,0,1-2.2-.94A3.57,3.57,0,0,1,93,17.78a3.71,3.71,0,0,1,.88-2.53,2.72,2.72,0,0,1,2.15-1,3,3,0,0,1,2.31.94,3.89,3.89,0,0,1,.87,2.73v2.93a3.69,3.69,0,0,1-.92,2.69,3.19,3.19,0,0,1-2.4.95,5.54,5.54,0,0,1-1.07-.1,4.85,4.85,0,0,1-1-.32l.15-.69a4.2,4.2,0,0,0,.92.32A5.23,5.23,0,0,0,95.86,23.77Zm.14-3.3A2.4,2.4,0,0,0,97.48,20a2.51,2.51,0,0,0,.85-1.12V17.84a3.24,3.24,0,0,0-.62-2.16A2,2,0,0,0,96,14.93a1.9,1.9,0,0,0-1.59.83,3.25,3.25,0,0,0-.63,2,3.07,3.07,0,0,0,.59,1.92A1.88,1.88,0,0,0,96,20.47Z"/><path class="b" d="M49.09,39.45l.2.66h0l.2-.66,3-8.28h.89l-3.71,10h-.78l-3.71-10h.89Z"/><path class="b" d="M59.07,41.13c0-.25-.09-.47-.11-.65a5.09,5.09,0,0,1,0-.56,3.22,3.22,0,0,1-1.09,1,3.14,3.14,0,0,1-1.54.38,2.34,2.34,0,0,1-1.68-.57A2,2,0,0,1,54,39.16a1.89,1.89,0,0,1,.88-1.64,4.13,4.13,0,0,1,2.39-.62h1.63V36a1.61,1.61,0,0,0-.5-1.25A2.1,2.1,0,0,0,57,34.29a2.26,2.26,0,0,0-1.42.43A1.3,1.3,0,0,0,55,35.77h-.76v0A1.77,1.77,0,0,1,55,34.25a3.05,3.05,0,0,1,2-.66,2.93,2.93,0,0,1,2,.63A2.18,2.18,0,0,1,59.74,36v3.64a6.34,6.34,0,0,0,0,.76,4.73,4.73,0,0,0,.15.73Zm-2.68-.58A2.89,2.89,0,0,0,58,40.13a2.38,2.38,0,0,0,1-1.05V37.53H57.28A3,3,0,0,0,55.5,38a1.39,1.39,0,0,0-.67,1.18,1.3,1.3,0,0,0,.41,1A1.66,1.66,0,0,0,56.39,40.55Z"/><path class="b" d="M65.32,34.43l-.61,0a1.84,1.84,0,0,0-1.26.44A2.37,2.37,0,0,0,62.74,36v5.11h-.82v-7.4h.72l.1,1.23V35A2.6,2.6,0,0,1,63.6,34a2.13,2.13,0,0,1,1.28-.39,1.55,1.55,0,0,1,.31,0,1.11,1.11,0,0,1,.24.05Z"/><path class="b" d="M67.6,31.61h-.81V30.46h.81Zm0,9.52h-.81v-7.4h.81Z"/><path class="b" d="M74.54,41.13c-.05-.25-.09-.47-.11-.65a5.09,5.09,0,0,1,0-.56,3.22,3.22,0,0,1-1.09,1,3.17,3.17,0,0,1-1.54.38,2.34,2.34,0,0,1-1.68-.57,2,2,0,0,1-.59-1.54,1.89,1.89,0,0,1,.88-1.64,4.13,4.13,0,0,1,2.39-.62h1.63V36a1.58,1.58,0,0,0-.51-1.25,2.07,2.07,0,0,0-1.42-.45,2.26,2.26,0,0,0-1.42.43,1.3,1.3,0,0,0-.56,1.05h-.76v0a1.77,1.77,0,0,1,.76-1.48,3.05,3.05,0,0,1,2-.66,2.93,2.93,0,0,1,2,.63A2.18,2.18,0,0,1,75.21,36v3.64a6.34,6.34,0,0,0,0,.76,4.73,4.73,0,0,0,.15.73Zm-2.68-.58a2.92,2.92,0,0,0,1.56-.42,2.38,2.38,0,0,0,1-1.05V37.53H72.75A3,3,0,0,0,71,38a1.39,1.39,0,0,0-.67,1.18,1.3,1.3,0,0,0,.41,1A1.66,1.66,0,0,0,71.86,40.55Z"/><path class="b" d="M78.11,33.73,78.19,35a2.58,2.58,0,0,1,2.39-1.43,2.28,2.28,0,0,1,1.83.74A3.46,3.46,0,0,1,83,36.62v4.51h-.82V36.62a2.72,2.72,0,0,0-.47-1.8,1.74,1.74,0,0,0-1.35-.53,2.08,2.08,0,0,0-1.41.46A2.5,2.5,0,0,0,78.21,36v5.17h-.82v-7.4Z"/><path class="b" d="M86.47,31.84v1.89h1.62v.67H86.47v4.82a1.56,1.56,0,0,0,.26,1,.88.88,0,0,0,.7.3h.39l.43-.06.12.61a1.9,1.9,0,0,1-.5.13,2.84,2.84,0,0,1-.58.05,1.54,1.54,0,0,1-1.22-.49,2.33,2.33,0,0,1-.43-1.56V34.4H84.36v-.67h1.28V31.84Z"/><path class="b" d="M94.26,39.24a1.17,1.17,0,0,0-.43-.9,3.51,3.51,0,0,0-1.54-.64,5.08,5.08,0,0,1-2-.76,1.56,1.56,0,0,1-.63-1.33,1.8,1.8,0,0,1,.71-1.43,2.91,2.91,0,0,1,1.89-.59,3,3,0,0,1,2,.62A1.86,1.86,0,0,1,95,35.76v0h-.76a1.36,1.36,0,0,0-.52-1.06A2.43,2.43,0,0,0,91,34.68a1.14,1.14,0,0,0-.45.9,1.05,1.05,0,0,0,.39.84,3.83,3.83,0,0,0,1.54.59,5,5,0,0,1,2,.8,1.68,1.68,0,0,1,.65,1.39,1.79,1.79,0,0,1-.75,1.5,3.15,3.15,0,0,1-2,.57,3.18,3.18,0,0,1-2.11-.64,1.82,1.82,0,0,1-.73-1.53v0h.76a1.34,1.34,0,0,0,.65,1.15,2.72,2.72,0,0,0,1.42.36,2.29,2.29,0,0,0,1.41-.39A1.14,1.14,0,0,0,94.26,39.24Z"/></svg>