<svg xmlns="http://www.w3.org/2000/svg" viewBox="0 0 140.87 63.27"><defs><style>.a{fill:#fff;stroke:#80b2c0;stroke-miterlimit:10;}.b{fill:#004e63;}</style></defs><path class="a" d="M140.37,56.69H80.44l-10,6-10-6H9.91L.5,47.28V.5H131l9.4,9.41Z"/><path class="b" d="M49.36,21.22l0,0a3.44,3.44,0,0,1-1.07,2.35,3.57,3.57,0,0,1-2.51.86,3.36,3.36,0,0,1-2.68-1.2,4.62,4.62,0,0,1-1-3.11V18.54a4.63,4.63,0,0,1,1-3.1,3.33,3.33,0,0,1,2.68-1.21,3.62,3.62,0,0,1,2.52.84,3.46,3.46,0,0,1,1.06,2.37l0,0H48.6a3.09,3.09,0,0,0-.85-1.9,2.75,2.75,0,0,0-2-.65,2.49,2.49,0,0,0-2.09,1,4.06,4.06,0,0,0-.79,2.59v1.63a4.1,4.1,0,0,0,.79,2.61,2.51,2.51,0,0,0,2.09,1,2.75,2.75,0,0,0,2-.64,3,3,0,0,0,.85-1.91Z"/><path class="b" d="M50.8,20.52a4,4,0,0,1,.9-2.68,2.94,2.94,0,0,1,2.37-1.05,3,3,0,0,1,2.38,1.05,4,4,0,0,1,.89,2.68v.23a4,4,0,0,1-.89,2.68,3.23,3.23,0,0,1-4.75,0,4,4,0,0,1-.9-2.68Zm.82.22a3.53,3.53,0,0,0,.65,2.16,2.31,2.31,0,0,0,3.61,0,3.53,3.53,0,0,0,.65-2.16v-.22a3.48,3.48,0,0,0-.66-2.15,2.15,2.15,0,0,0-1.8-.88,2.12,2.12,0,0,0-1.8.88,3.54,3.54,0,0,0-.65,2.15Z"/><path class="b" d="M59.78,16.93l.07,1.29a2.71,2.71,0,0,1,1-1,2.65,2.65,0,0,1,1.43-.38,2.29,2.29,0,0,1,1.84.74,3.52,3.52,0,0,1,.62,2.29v4.51h-.82V19.82a2.66,2.66,0,0,0-.47-1.8,1.74,1.74,0,0,0-1.35-.53,2.1,2.1,0,0,0-1.41.46,2.5,2.5,0,0,0-.78,1.21v5.17h-.82v-7.4Z"/><path class="b" d="M66.52,20.69a4.74,4.74,0,0,1,.76-2.83,2.43,2.43,0,0,1,2.1-1.07,2.6,2.6,0,0,1,1.36.35,2.76,2.76,0,0,1,1,1l.1-1.18h.69v7.3a3.17,3.17,0,0,1-.79,2.26,2.9,2.9,0,0,1-2.2.82,5.25,5.25,0,0,1-1.14-.13,4.17,4.17,0,0,1-1-.35l.21-.69a4.11,4.11,0,0,0,.93.33,4.31,4.31,0,0,0,1,.11A2,2,0,0,0,71.11,26a2.55,2.55,0,0,0,.55-1.73V23.3a2.63,2.63,0,0,1-1,.87,2.88,2.88,0,0,1-1.34.3,2.48,2.48,0,0,1-2.09-1,4.21,4.21,0,0,1-.76-2.65Zm.82.15A3.66,3.66,0,0,0,67.89,23a1.83,1.83,0,0,0,1.63.8,2.28,2.28,0,0,0,1.32-.36,2.5,2.5,0,0,0,.82-1V19a2.55,2.55,0,0,0-.79-1.06,2,2,0,0,0-1.34-.42,1.81,1.81,0,0,0-1.63.89,4.34,4.34,0,0,0-.56,2.31Z"/><path class="b" d="M78.05,17.63l-.61,0a1.85,1.85,0,0,0-1.27.44,2.41,2.41,0,0,0-.71,1.19v5.11h-.82v-7.4h.72l.1,1.23v.08a2.71,2.71,0,0,1,.87-1.06,2.09,2.09,0,0,1,1.28-.39,2.85,2.85,0,0,1,.55.08Z"/><path class="b" d="M82.05,24.47a3,3,0,0,1-2.3-1,3.73,3.73,0,0,1-.92-2.6v-.38a3.84,3.84,0,0,1,.91-2.63A2.84,2.84,0,0,1,82,16.79a2.72,2.72,0,0,1,2.14.87A3.28,3.28,0,0,1,84.87,20v.7H79.65v.2a3.24,3.24,0,0,0,.66,2.08,2.11,2.11,0,0,0,1.74.84,3.63,3.63,0,0,0,1.31-.21,2.43,2.43,0,0,0,.92-.61l.35.56a2.85,2.85,0,0,1-1.06.7A4.06,4.06,0,0,1,82.05,24.47Zm-.1-7a2,2,0,0,0-1.52.69,3,3,0,0,0-.72,1.74v0h4.34v-.2a2.35,2.35,0,0,0-.57-1.61A2,2,0,0,0,82,17.49Z"/><path class="b" d="M90.92,22.44a1.17,1.17,0,0,0-.43-.9A3.51,3.51,0,0,0,89,20.9a5.08,5.08,0,0,1-2-.76,1.56,1.56,0,0,1-.63-1.33,1.8,1.8,0,0,1,.71-1.43A2.91,2.91,0,0,1,89,16.79a3,3,0,0,1,2,.62A1.86,1.86,0,0,1,91.64,19v0h-.76a1.36,1.36,0,0,0-.52-1.06,2.43,2.43,0,0,0-2.73-.06,1.14,1.14,0,0,0-.45.9,1.05,1.05,0,0,0,.39.84,3.83,3.83,0,0,0,1.54.59,5,5,0,0,1,2,.8,1.68,1.68,0,0,1,.65,1.39A1.79,1.79,0,0,1,91,23.9a3.14,3.14,0,0,1-2,.57,3.19,3.19,0,0,1-2.12-.64,1.82,1.82,0,0,1-.73-1.53l0,0h.75a1.34,1.34,0,0,0,.65,1.15,2.74,2.74,0,0,0,1.43.36,2.28,2.28,0,0,0,1.4-.39A1.14,1.14,0,0,0,90.92,22.44Z"/><path class="b" d="M98.05,22.44a1.17,1.17,0,0,0-.43-.9,3.51,3.51,0,0,0-1.54-.64,5.08,5.08,0,0,1-2-.76,1.56,1.56,0,0,1-.63-1.33,1.8,1.8,0,0,1,.71-1.43,2.91,2.91,0,0,1,1.89-.59,3,3,0,0,1,2,.62A1.86,1.86,0,0,1,98.77,19v0H98a1.36,1.36,0,0,0-.52-1.06,2.43,2.43,0,0,0-2.73-.06,1.14,1.14,0,0,0-.45.9,1.05,1.05,0,0,0,.39.84,3.83,3.83,0,0,0,1.54.59,5,5,0,0,1,2,.8,1.68,1.68,0,0,1,.65,1.39,1.79,1.79,0,0,1-.75,1.5,3.14,3.14,0,0,1-2,.57A3.19,3.19,0,0,1,94,23.83a1.82,1.82,0,0,1-.73-1.53v0h.76a1.34,1.34,0,0,0,.65,1.15,2.74,2.74,0,0,0,1.43.36,2.28,2.28,0,0,0,1.4-.39A1.14,1.14,0,0,0,98.05,22.44Z"/><path class="b" d="M29.87,37v4.14h-.81v-10h3.43a3.43,3.43,0,0,1,2.42.8,3,3,0,0,1,0,4.23,3.43,3.43,0,0,1-2.42.79Zm0-.7h2.62a2.49,2.49,0,0,0,1.85-.62A2.16,2.16,0,0,0,35,34.09a2.21,2.21,0,0,0-.61-1.59,2.48,2.48,0,0,0-1.85-.63H29.87Z"/><path class="b" d="M40.9,34.43l-.61,0a1.89,1.89,0,0,0-1.27.44,2.35,2.35,0,0,0-.7,1.19v5.11H37.5v-7.4h.71L38.32,35V35A2.6,2.6,0,0,1,39.18,34a2.13,2.13,0,0,1,1.28-.39,1.55,1.55,0,0,1,.31,0,1.11,1.11,0,0,1,.24.05Z"/><path class="b" d="M44.91,41.27a3,3,0,0,1-2.31-1,3.77,3.77,0,0,1-.92-2.6v-.38a3.84,3.84,0,0,1,.91-2.63,2.84,2.84,0,0,1,2.21-1,2.72,2.72,0,0,1,2.14.87,3.28,3.28,0,0,1,.78,2.29v.7H42.5v.2a3.24,3.24,0,0,0,.66,2.08,2.14,2.14,0,0,0,1.75.84,3.58,3.58,0,0,0,1.3-.21,2.55,2.55,0,0,0,.93-.61l.34.56a2.81,2.81,0,0,1-1,.7A4.13,4.13,0,0,1,44.91,41.27Zm-.11-7a2,2,0,0,0-1.52.69,3,3,0,0,0-.72,1.74l0,0h4.33v-.2a2.35,2.35,0,0,0-.57-1.61A2,2,0,0,0,44.8,34.29Z"/><path class="b" d="M53.77,39.24a1.2,1.2,0,0,0-.42-.9,3.56,3.56,0,0,0-1.55-.64,5,5,0,0,1-1.95-.76,1.54,1.54,0,0,1-.64-1.33,1.78,1.78,0,0,1,.72-1.43,2.87,2.87,0,0,1,1.89-.59,3,3,0,0,1,2,.62,1.86,1.86,0,0,1,.7,1.55l0,0h-.75a1.39,1.39,0,0,0-.52-1.06,2,2,0,0,0-1.39-.45,2,2,0,0,0-1.35.39,1.16,1.16,0,0,0-.44.9,1.07,1.07,0,0,0,.38.84A3.83,3.83,0,0,0,52,37a5,5,0,0,1,2,.8,1.66,1.66,0,0,1,.66,1.39,1.79,1.79,0,0,1-.75,1.5,3.78,3.78,0,0,1-4.1-.07A1.81,1.81,0,0,1,49,39.1v0h.75a1.34,1.34,0,0,0,.65,1.15,2.76,2.76,0,0,0,1.43.36,2.26,2.26,0,0,0,1.4-.39A1.14,1.14,0,0,0,53.77,39.24Z"/><path class="b" d="M59.25,41.27a3,3,0,0,1-2.31-1,3.77,3.77,0,0,1-.92-2.6v-.38a3.89,3.89,0,0,1,.91-2.63,2.84,2.84,0,0,1,2.22-1,2.74,2.74,0,0,1,2.14.87,3.28,3.28,0,0,1,.78,2.29v.7H56.84v.2a3.19,3.19,0,0,0,.67,2.08,2.11,2.11,0,0,0,1.74.84,3.58,3.58,0,0,0,1.3-.21,2.55,2.55,0,0,0,.93-.61l.35.56a2.85,2.85,0,0,1-1.06.7A4.1,4.1,0,0,1,59.25,41.27Zm-.1-7a2,2,0,0,0-1.53.69,3,3,0,0,0-.72,1.74l0,0h4.33v-.2a2.35,2.35,0,0,0-.57-1.61A1.93,1.93,0,0,0,59.15,34.29Z"/><path class="b" d="M64.41,33.73,64.49,35a2.57,2.57,0,0,1,1-1.05,2.65,2.65,0,0,1,1.43-.38,2.28,2.28,0,0,1,1.83.74,3.46,3.46,0,0,1,.63,2.29v4.51h-.82V36.62a2.66,2.66,0,0,0-.48-1.8,1.71,1.71,0,0,0-1.35-.53,2.07,2.07,0,0,0-1.4.46A2.5,2.5,0,0,0,64.51,36v5.17h-.82v-7.4Z"/><path class="b" d="M72.76,31.84v1.89h1.63v.67H72.76v4.82a1.55,1.55,0,0,0,.27,1,.88.88,0,0,0,.7.3h.38l.44-.06.12.61a2,2,0,0,1-.5.13,2.88,2.88,0,0,1-.59.05,1.52,1.52,0,0,1-1.21-.49,2.33,2.33,0,0,1-.43-1.56V34.4H70.66v-.67h1.28V31.84Z"/><path class="b" d="M80.81,41.13c-.06-.25-.09-.47-.12-.65a5.12,5.12,0,0,1,0-.56,3.31,3.31,0,0,1-1.09,1,3.17,3.17,0,0,1-1.54.38,2.34,2.34,0,0,1-1.68-.57,2,2,0,0,1-.6-1.54,1.9,1.9,0,0,1,.89-1.64A4.11,4.11,0,0,1,79,36.9h1.63V36a1.58,1.58,0,0,0-.51-1.25,2.08,2.08,0,0,0-1.43-.45,2.21,2.21,0,0,0-1.41.43,1.29,1.29,0,0,0-.57,1.05H76v0a1.75,1.75,0,0,1,.75-1.48,3.08,3.08,0,0,1,2-.66,3,3,0,0,1,2,.63A2.2,2.2,0,0,1,81.47,36v3.64a6.33,6.33,0,0,0,0,.76,6.26,6.26,0,0,0,.14.73Zm-2.69-.58a2.89,2.89,0,0,0,1.56-.42,2.41,2.41,0,0,0,1-1.05V37.53H79a3,3,0,0,0-1.78.48,1.41,1.41,0,0,0-.67,1.18,1.27,1.27,0,0,0,.42,1A1.63,1.63,0,0,0,78.12,40.55Z"/><path class="b" d="M84.94,31.84v1.89h1.63v.67H84.94v4.82a1.62,1.62,0,0,0,.26,1,.89.89,0,0,0,.7.3h.39l.43-.06.13.61a2.14,2.14,0,0,1-.5.13,2.94,2.94,0,0,1-.59.05,1.52,1.52,0,0,1-1.21-.49,2.32,2.32,0,0,1-.44-1.56V34.4H82.83v-.67h1.28V31.84Z"/><path class="b" d="M89.22,31.61H88.4V30.46h.82Zm0,9.52H88.4v-7.4h.82Z"/><path class="b" d="M91,37.32a4,4,0,0,1,.9-2.68,3.21,3.21,0,0,1,4.75,0,4,4,0,0,1,.89,2.68v.23a4,4,0,0,1-.89,2.68,3.23,3.23,0,0,1-4.75,0,4,4,0,0,1-.9-2.68Zm.82.22a3.53,3.53,0,0,0,.65,2.16,2.31,2.31,0,0,0,3.61,0,3.53,3.53,0,0,0,.65-2.16v-.22a3.54,3.54,0,0,0-.65-2.15,2.29,2.29,0,0,0-3.61,0,3.54,3.54,0,0,0-.65,2.15Z"/><path class="b" d="M100,33.73l.07,1.29a2.58,2.58,0,0,1,2.4-1.43,2.28,2.28,0,0,1,1.83.74,3.46,3.46,0,0,1,.63,2.29v4.51h-.82V36.62a2.66,2.66,0,0,0-.48-1.8,1.74,1.74,0,0,0-1.35-.53,2.07,2.07,0,0,0-1.4.46,2.45,2.45,0,0,0-.79,1.21v5.17h-.82v-7.4Z"/><path class="b" d="M111.5,39.24a1.21,1.21,0,0,0-.43-.9,3.57,3.57,0,0,0-1.54-.64,5,5,0,0,1-2-.76,1.56,1.56,0,0,1-.63-1.33,1.8,1.8,0,0,1,.71-1.43,2.91,2.91,0,0,1,1.89-.59,3,3,0,0,1,2,.62,1.86,1.86,0,0,1,.7,1.55v0h-.76a1.36,1.36,0,0,0-.52-1.06,2,2,0,0,0-1.39-.45,2,2,0,0,0-1.34.39,1.14,1.14,0,0,0-.45.9,1.05,1.05,0,0,0,.39.84,3.77,3.77,0,0,0,1.54.59,4.87,4.87,0,0,1,2,.8,1.66,1.66,0,0,1,.66,1.39,1.79,1.79,0,0,1-.75,1.5,3.76,3.76,0,0,1-4.09-.07,1.8,1.8,0,0,1-.73-1.53v0h.75a1.35,1.35,0,0,0,.66,1.15,2.72,2.72,0,0,0,1.42.36,2.24,2.24,0,0,0,1.4-.39A1.12,1.12,0,0,0,111.5,39.24Z"/></svg>