<svg xmlns="http://www.w3.org/2000/svg" viewBox="0 0 140.87 63.27"><defs><style>.a{fill:#fff;stroke:#80b2c0;stroke-miterlimit:10;}.b{fill:#004e63;}</style></defs><path class="a" d="M140.37,56.69H80.44l-10,6-10-6H9.91L.5,47.28V.5H131l9.4,9.41Z"/><path class="b" d="M47,16.93l.08,1.22a2.59,2.59,0,0,1,.94-1,2.7,2.7,0,0,1,1.42-.36,2.37,2.37,0,0,1,1.41.41,2.26,2.26,0,0,1,.82,1.26,2.79,2.79,0,0,1,1-1.22,2.52,2.52,0,0,1,1.51-.45,2.25,2.25,0,0,1,1.83.79A3.86,3.86,0,0,1,56.58,20v4.32h-.82V20a3,3,0,0,0-.48-1.93,1.67,1.67,0,0,0-1.35-.57,1.85,1.85,0,0,0-1.47.6,2.81,2.81,0,0,0-.64,1.52v.14a.72.72,0,0,1,0,.13v4.45H51V20a3,3,0,0,0-.49-1.92,1.64,1.64,0,0,0-1.34-.58,2.06,2.06,0,0,0-1.38.44,2.31,2.31,0,0,0-.71,1.19v5.21h-.83v-7.4Z"/><path class="b" d="M64.27,21.55H59.71l-1,2.78h-.84l3.78-10h.77l3.75,10h-.85ZM60,20.82h4l-2-5.39h0Z"/><path class="b" d="M73.4,20.83a4.28,4.28,0,0,1-.75,2.65,2.45,2.45,0,0,1-2.07,1,2.92,2.92,0,0,1-1.4-.32,2.52,2.52,0,0,1-1-.94l-.09,1.12h-.71V13.66h.82v4.43a2.82,2.82,0,0,1,1-1,2.7,2.7,0,0,1,1.37-.34,2.42,2.42,0,0,1,2.08,1.07,4.81,4.81,0,0,1,.75,2.83Zm-.82-.14A4.39,4.39,0,0,0,72,18.38a1.8,1.8,0,0,0-1.62-.89,2.09,2.09,0,0,0-1.38.43A2.49,2.49,0,0,0,68.25,19v3.36a2.37,2.37,0,0,0,.82,1,2.24,2.24,0,0,0,1.35.38A1.82,1.82,0,0,0,72,23a3.77,3.77,0,0,0,.54-2.14Z"/><path class="b" d="M79.66,22.44a1.2,1.2,0,0,0-.42-.9,3.57,3.57,0,0,0-1.54-.64,5,5,0,0,1-2-.76,1.57,1.57,0,0,1-.64-1.33,1.78,1.78,0,0,1,.72-1.43,2.89,2.89,0,0,1,1.89-.59,3,3,0,0,1,2,.62,1.86,1.86,0,0,1,.7,1.55v0h-.76a1.39,1.39,0,0,0-.52-1.06,2,2,0,0,0-1.39-.45,2,2,0,0,0-1.34.39,1.14,1.14,0,0,0-.45.9,1.07,1.07,0,0,0,.38.84,3.89,3.89,0,0,0,1.55.59,4.93,4.93,0,0,1,2,.8,1.66,1.66,0,0,1,.66,1.39,1.79,1.79,0,0,1-.75,1.5,3.78,3.78,0,0,1-4.1-.07,1.81,1.81,0,0,1-.72-1.53v0h.75a1.34,1.34,0,0,0,.65,1.15,2.76,2.76,0,0,0,1.43.36,2.26,2.26,0,0,0,1.4-.39A1.14,1.14,0,0,0,79.66,22.44Z"/><path class="b" d="M86.68,14.81h-.81V13.66h.81Zm0,9.52h-.81v-7.4h.81Z"/><path class="b" d="M89.67,16.93l.08,1.29a2.57,2.57,0,0,1,1-1,2.65,2.65,0,0,1,1.43-.38,2.28,2.28,0,0,1,1.83.74,3.46,3.46,0,0,1,.63,2.29v4.51h-.82V19.82A2.66,2.66,0,0,0,93.3,18,1.7,1.7,0,0,0,92,17.49a2.08,2.08,0,0,0-1.41.46,2.5,2.5,0,0,0-.78,1.21v5.17H89v-7.4Z"/><path class="b" d="M16.24,41.13h-.82v-10h.82Z"/><path class="b" d="M19.52,33.73,19.6,35a2.71,2.71,0,0,1,1-1.05A2.65,2.65,0,0,1,22,33.59a2.27,2.27,0,0,1,1.83.74,3.46,3.46,0,0,1,.63,2.29v4.51h-.82V36.62a2.66,2.66,0,0,0-.47-1.8,1.74,1.74,0,0,0-1.35-.53,2.1,2.1,0,0,0-1.41.46A2.5,2.5,0,0,0,19.62,36v5.17H18.8v-7.4Z"/><path class="b" d="M27.19,41.13V34.4H26v-.67h1.23V32.65a2.41,2.41,0,0,1,.56-1.72,2,2,0,0,1,1.56-.61l.46,0,.47.1-.11.68-.33-.07-.41,0a1.28,1.28,0,0,0-1,.42A1.83,1.83,0,0,0,28,32.65v1.08h1.76v.67H28v6.73Z"/><path class="b" d="M33.81,41.27a3,3,0,0,1-2.31-1,3.77,3.77,0,0,1-.92-2.6v-.38a3.84,3.84,0,0,1,.91-2.63,2.84,2.84,0,0,1,2.21-1,2.72,2.72,0,0,1,2.14.87,3.28,3.28,0,0,1,.78,2.29v.7H31.4v.2a3.24,3.24,0,0,0,.66,2.08,2.12,2.12,0,0,0,1.75.84,3.58,3.58,0,0,0,1.3-.21,2.43,2.43,0,0,0,.92-.61l.35.56a2.89,2.89,0,0,1-1.05.7A4.13,4.13,0,0,1,33.81,41.27Zm-.11-7a2,2,0,0,0-1.52.69,3,3,0,0,0-.72,1.74v0h4.34v-.2a2.35,2.35,0,0,0-.57-1.61A2,2,0,0,0,33.7,34.29Z"/><path class="b" d="M41,40.57a2.34,2.34,0,0,0,1.44-.46A1.53,1.53,0,0,0,43,38.82h.73v0A2,2,0,0,1,43,40.58a3.06,3.06,0,0,1-2,.69,2.79,2.79,0,0,1-2.33-1,4.11,4.11,0,0,1-.83-2.66v-.28a4.16,4.16,0,0,1,.83-2.66,2.82,2.82,0,0,1,2.33-1,2.92,2.92,0,0,1,2,.72,2.36,2.36,0,0,1,.79,1.89l0,0H43a1.8,1.8,0,0,0-.6-1.42A2.15,2.15,0,0,0,41,34.29a2,2,0,0,0-1.76.85,3.77,3.77,0,0,0-.57,2.14v.29a3.81,3.81,0,0,0,.56,2.16A2,2,0,0,0,41,40.57Z"/><path class="b" d="M46.78,31.84v1.89h1.63v.67H46.78v4.82a1.62,1.62,0,0,0,.26,1,.89.89,0,0,0,.7.3h.39l.43-.06.13.61a2.14,2.14,0,0,1-.5.13,2.94,2.94,0,0,1-.59.05,1.52,1.52,0,0,1-1.21-.49A2.32,2.32,0,0,1,46,39.22V34.4H44.67v-.67H46V31.84Z"/><path class="b" d="M51.06,31.61h-.81V30.46h.81Zm0,9.52h-.81v-7.4h.81Z"/><path class="b" d="M52.86,37.32a4,4,0,0,1,.9-2.68,3.21,3.21,0,0,1,4.75,0,4,4,0,0,1,.9,2.68v.23a4,4,0,0,1-.9,2.68,3,3,0,0,1-2.36,1,3,3,0,0,1-2.39-1,4,4,0,0,1-.9-2.68Zm.82.22a3.53,3.53,0,0,0,.65,2.16,2.15,2.15,0,0,0,1.82.87,2.12,2.12,0,0,0,1.79-.87,3.53,3.53,0,0,0,.65-2.16v-.22a3.54,3.54,0,0,0-.65-2.15,2.29,2.29,0,0,0-3.61,0,3.54,3.54,0,0,0-.65,2.15Z"/><path class="b" d="M66,39.92a2.57,2.57,0,0,1-1,1,2.79,2.79,0,0,1-1.42.35,2.25,2.25,0,0,1-1.83-.79A3.81,3.81,0,0,1,61.09,38V33.73h.82V38A3.16,3.16,0,0,0,62.37,40a1.55,1.55,0,0,0,1.31.59,2.45,2.45,0,0,0,1.48-.41A2.17,2.17,0,0,0,65.93,39V33.73h.82v7.4H66Z"/><path class="b" d="M73.34,39.24a1.21,1.21,0,0,0-.43-.9,3.51,3.51,0,0,0-1.54-.64,5,5,0,0,1-2-.76,1.56,1.56,0,0,1-.63-1.33,1.8,1.8,0,0,1,.71-1.43,2.91,2.91,0,0,1,1.89-.59,3,3,0,0,1,2,.62,1.84,1.84,0,0,1,.7,1.55v0h-.76a1.36,1.36,0,0,0-.52-1.06A2.43,2.43,0,0,0,70,34.68a1.14,1.14,0,0,0-.45.9,1.05,1.05,0,0,0,.39.84,3.77,3.77,0,0,0,1.54.59,4.87,4.87,0,0,1,2,.8,1.66,1.66,0,0,1,.66,1.39,1.79,1.79,0,0,1-.75,1.5,3.76,3.76,0,0,1-4.09-.07,1.8,1.8,0,0,1-.73-1.53v0h.76A1.32,1.32,0,0,0,70,40.21a2.72,2.72,0,0,0,1.42.36,2.24,2.24,0,0,0,1.4-.39A1.12,1.12,0,0,0,73.34,39.24Z"/><path class="b" d="M79.67,41.13v-10h2.89a4,4,0,0,1,3,1.22,4.25,4.25,0,0,1,1.19,3.12v1.28a4.25,4.25,0,0,1-1.19,3.13,4.05,4.05,0,0,1-3,1.21Zm.81-9.26v8.56h2.08a3.17,3.17,0,0,0,2.43-1,3.68,3.68,0,0,0,1-2.61v-1.3a3.69,3.69,0,0,0-1-2.59,3.2,3.2,0,0,0-2.43-1Z"/><path class="b" d="M89.54,31.61h-.81V30.46h.81Zm0,9.52h-.81v-7.4h.81Z"/><path class="b" d="M96.24,39.24a1.21,1.21,0,0,0-.43-.9,3.51,3.51,0,0,0-1.54-.64,5,5,0,0,1-2-.76,1.56,1.56,0,0,1-.63-1.33,1.8,1.8,0,0,1,.71-1.43,2.91,2.91,0,0,1,1.89-.59,3,3,0,0,1,2,.62,1.86,1.86,0,0,1,.7,1.55v0h-.76a1.36,1.36,0,0,0-.52-1.06,2.43,2.43,0,0,0-2.73-.06,1.14,1.14,0,0,0-.45.9,1.05,1.05,0,0,0,.39.84,3.77,3.77,0,0,0,1.54.59,4.87,4.87,0,0,1,2,.8,1.66,1.66,0,0,1,.66,1.39,1.79,1.79,0,0,1-.75,1.5,3.76,3.76,0,0,1-4.09-.07,1.8,1.8,0,0,1-.73-1.53v0h.76a1.34,1.34,0,0,0,.65,1.15,2.72,2.72,0,0,0,1.42.36,2.24,2.24,0,0,0,1.4-.39A1.12,1.12,0,0,0,96.24,39.24Z"/><path class="b" d="M101.71,41.27a3,3,0,0,1-2.3-1,3.73,3.73,0,0,1-.92-2.6v-.38a3.84,3.84,0,0,1,.91-2.63,2.82,2.82,0,0,1,2.21-1,2.72,2.72,0,0,1,2.14.87,3.28,3.28,0,0,1,.78,2.29v.7H99.31v.2a3.24,3.24,0,0,0,.66,2.08,2.11,2.11,0,0,0,1.74.84,3.63,3.63,0,0,0,1.31-.21,2.43,2.43,0,0,0,.92-.61l.35.56a2.85,2.85,0,0,1-1.06.7A4.06,4.06,0,0,1,101.71,41.27Zm-.1-7a2,2,0,0,0-1.52.69,3,3,0,0,0-.72,1.74v0h4.34v-.2a2.35,2.35,0,0,0-.57-1.61A2,2,0,0,0,101.61,34.29Z"/><path class="b" d="M110.83,41.13c0-.25-.09-.47-.11-.65a3.43,3.43,0,0,1,0-.56,3.31,3.31,0,0,1-1.09,1,3.17,3.17,0,0,1-1.54.38,2.34,2.34,0,0,1-1.68-.57,2,2,0,0,1-.6-1.54,1.9,1.9,0,0,1,.89-1.64,4.11,4.11,0,0,1,2.39-.62h1.63V36a1.58,1.58,0,0,0-.51-1.25,2.07,2.07,0,0,0-1.42-.45,2.24,2.24,0,0,0-1.42.43,1.29,1.29,0,0,0-.57,1.05H106v0a1.75,1.75,0,0,1,.75-1.48,3.1,3.1,0,0,1,2-.66,3,3,0,0,1,2,.63A2.18,2.18,0,0,1,111.5,36v3.64a6.34,6.34,0,0,0,0,.76,4.73,4.73,0,0,0,.15.73Zm-2.68-.58a2.88,2.88,0,0,0,1.55-.42,2.35,2.35,0,0,0,1-1.05V37.53H109a3,3,0,0,0-1.78.48,1.4,1.4,0,0,0-.66,1.18,1.26,1.26,0,0,0,.41,1A1.66,1.66,0,0,0,108.15,40.55Z"/><path class="b" d="M118.11,39.24a1.21,1.21,0,0,0-.43-.9,3.57,3.57,0,0,0-1.54-.64,5,5,0,0,1-2-.76,1.56,1.56,0,0,1-.63-1.33,1.77,1.77,0,0,1,.71-1.43,2.91,2.91,0,0,1,1.89-.59,3,3,0,0,1,2,.62,1.86,1.86,0,0,1,.7,1.55v0h-.76a1.36,1.36,0,0,0-.52-1.06,2,2,0,0,0-1.39-.45,2,2,0,0,0-1.34.39,1.14,1.14,0,0,0-.45.9,1.05,1.05,0,0,0,.39.84,3.77,3.77,0,0,0,1.54.59,4.87,4.87,0,0,1,2,.8,1.66,1.66,0,0,1,.66,1.39,1.79,1.79,0,0,1-.75,1.5,3.76,3.76,0,0,1-4.09-.07,1.8,1.8,0,0,1-.73-1.53v0h.75a1.35,1.35,0,0,0,.66,1.15,2.7,2.7,0,0,0,1.42.36,2.26,2.26,0,0,0,1.4-.39A1.15,1.15,0,0,0,118.11,39.24Z"/><path class="b" d="M123.58,41.27a3,3,0,0,1-2.31-1,3.77,3.77,0,0,1-.92-2.6v-.38a3.85,3.85,0,0,1,.92-2.63,2.82,2.82,0,0,1,2.21-1,2.72,2.72,0,0,1,2.14.87,3.28,3.28,0,0,1,.78,2.29v.7h-5.23v.2a3.24,3.24,0,0,0,.67,2.08,2.11,2.11,0,0,0,1.74.84,3.63,3.63,0,0,0,1.31-.21,2.51,2.51,0,0,0,.92-.61l.35.56a2.85,2.85,0,0,1-1.06.7A4.06,4.06,0,0,1,123.58,41.27Zm-.1-7A2,2,0,0,0,122,35a2.91,2.91,0,0,0-.71,1.74v0h4.33v-.2a2.39,2.39,0,0,0-.56-1.61A2,2,0,0,0,123.48,34.29Z"/></svg>