<svg xmlns="http://www.w3.org/2000/svg" viewBox="0 0 852.74 68.46"><defs><style>.a{fill:#80b2c0;fill-opacity:0.9;stroke:#80b2c0;stroke-miterlimit:10;stroke-width:1.3px;}.b{fill:#fff;}</style></defs><path class="a" d="M852.09,67.8H12.93L.65,60.48V.65H839.81L852.09,8Z"/><path class="b" d="M236.46,43.85a4.53,4.53,0,0,0-1.65-3.61,15.33,15.33,0,0,0-5.75-2.47,18.26,18.26,0,0,1-6.72-2.89,5.79,5.79,0,0,1-2.28-4.81A6.08,6.08,0,0,1,222.61,25a10.5,10.5,0,0,1,6.56-1.94,9.69,9.69,0,0,1,6.74,2.31,7.16,7.16,0,0,1,2.48,5.67l0,.11h-2a5.77,5.77,0,0,0-1.92-4.46A7.49,7.49,0,0,0,229.17,25a7.93,7.93,0,0,0-5.07,1.45,4.41,4.41,0,0,0-1.83,3.6,4.19,4.19,0,0,0,1.69,3.4,15.64,15.64,0,0,0,5.82,2.4,16.92,16.92,0,0,1,6.64,3,6.18,6.18,0,0,1,2.27,5A6,6,0,0,1,236.05,49a11.3,11.3,0,0,1-6.75,1.91,12.36,12.36,0,0,1-7.06-2,6.5,6.5,0,0,1-2.92-5.93l0-.11h2.05a5.15,5.15,0,0,0,2.35,4.66A10,10,0,0,0,229.3,49a8.76,8.76,0,0,0,5.19-1.41A4.37,4.37,0,0,0,236.46,43.85Z"/><path class="b" d="M256.39,47.2a7,7,0,0,1-2.6,2.72,7.56,7.56,0,0,1-3.86.95,6.15,6.15,0,0,1-5-2.15c-1.2-1.44-1.8-3.66-1.8-6.68V30.4h2.23V42.1c0,2.45.41,4.21,1.25,5.28a4.23,4.23,0,0,0,3.55,1.6,6.49,6.49,0,0,0,4-1.14,5.89,5.89,0,0,0,2.1-3.12V30.4h2.22V50.48h-2Z"/><path class="b" d="M280.55,41a11.58,11.58,0,0,1-2,7.19,6.68,6.68,0,0,1-5.63,2.68,8.16,8.16,0,0,1-3.7-.8,6.77,6.77,0,0,1-2.59-2.28V58.2h-2.22V30.4h1.87l.28,3.12a7.19,7.19,0,0,1,2.59-2.58,7.45,7.45,0,0,1,3.74-.91,6.56,6.56,0,0,1,5.66,2.89,13.07,13.07,0,0,1,2,7.69Zm-2.23-.42a11.58,11.58,0,0,0-1.52-6.24,4.93,4.93,0,0,0-4.45-2.41A5.86,5.86,0,0,0,268.7,33a6.74,6.74,0,0,0-2.11,2.78v9.66a6.16,6.16,0,0,0,2.2,2.6,6.42,6.42,0,0,0,3.59.95,5,5,0,0,0,4.43-2.19A10,10,0,0,0,278.32,41Z"/><path class="b" d="M301.7,41a11.58,11.58,0,0,1-2,7.19A6.67,6.67,0,0,1,294,50.87a8.13,8.13,0,0,1-3.7-.8,6.7,6.7,0,0,1-2.59-2.28V58.2h-2.23V30.4h1.87l.28,3.12a7.19,7.19,0,0,1,2.59-2.58A7.48,7.48,0,0,1,294,30a6.56,6.56,0,0,1,5.66,2.89,13.07,13.07,0,0,1,2,7.69Zm-2.23-.42A11.49,11.49,0,0,0,298,34.34a4.93,4.93,0,0,0-4.45-2.41A5.88,5.88,0,0,0,289.85,33a6.64,6.64,0,0,0-2.1,2.78v9.66A6,6,0,0,0,290,48a6.37,6.37,0,0,0,3.59.95A5,5,0,0,0,298,46.79,10,10,0,0,0,299.47,41Z"/><path class="b" d="M305.45,40.15a10.82,10.82,0,0,1,2.43-7.28,8.73,8.73,0,0,1,12.89,0,10.77,10.77,0,0,1,2.44,7.28v.61A10.78,10.78,0,0,1,320.78,48a8,8,0,0,1-6.43,2.83A8.1,8.1,0,0,1,307.88,48a10.78,10.78,0,0,1-2.43-7.28Zm2.22.6a9.55,9.55,0,0,0,1.77,5.86,6.24,6.24,0,0,0,9.79,0A9.55,9.55,0,0,0,321,40.75v-.61a9.5,9.5,0,0,0-1.78-5.82,5.76,5.76,0,0,0-4.9-2.39,5.7,5.7,0,0,0-4.88,2.39,9.49,9.49,0,0,0-1.77,5.82Z"/><path class="b" d="M337.08,32.32l-1.65-.11A5.07,5.07,0,0,0,332,33.38a6.49,6.49,0,0,0-1.92,3.24V50.48h-2.23V30.4h2l.28,3.34V34a7.23,7.23,0,0,1,2.34-2.9,5.9,5.9,0,0,1,3.49-1,5.44,5.44,0,0,1,.82.07,4.92,4.92,0,0,1,.66.14Z"/><path class="b" d="M344.86,25.27V30.4h4.41v1.82h-4.41V45.31a4.31,4.31,0,0,0,.71,2.79,2.39,2.39,0,0,0,1.9.82c.36,0,.71,0,1,0s.74-.09,1.18-.16l.34,1.65a6.19,6.19,0,0,1-1.36.37,9.47,9.47,0,0,1-1.59.13,4.17,4.17,0,0,1-3.3-1.33,6.36,6.36,0,0,1-1.18-4.23V32.22h-3.47V30.4h3.47V25.27Z"/><path class="b" d="M356.47,24.65h-2.2V21.54h2.2Zm0,25.83h-2.2V30.4h2.2Z"/><path class="b" d="M364.58,30.4l.21,3.51a7.15,7.15,0,0,1,2.6-2.86,7.23,7.23,0,0,1,3.89-1,6.17,6.17,0,0,1,5,2Q378,34,378,38.25V50.48h-2.23V38.25q0-3.47-1.29-4.89a4.65,4.65,0,0,0-3.66-1.43A5.74,5.74,0,0,0,367,33.16a6.93,6.93,0,0,0-2.13,3.28v14h-2.22V30.4Z"/><path class="b" d="M382.9,40.61A13,13,0,0,1,385,32.92a6.61,6.61,0,0,1,5.7-2.89,7.08,7.08,0,0,1,3.69.94,7.54,7.54,0,0,1,2.58,2.65l.26-3.22h1.88V50.22a8.47,8.47,0,0,1-2.15,6.12,7.82,7.82,0,0,1-6,2.25,14.92,14.92,0,0,1-3.08-.35,12.29,12.29,0,0,1-2.86-1l.58-1.87a11.81,11.81,0,0,0,2.5.9,12.7,12.7,0,0,0,2.82.3,5.62,5.62,0,0,0,4.43-1.68,6.9,6.9,0,0,0,1.49-4.7V47.7a7.17,7.17,0,0,1-2.58,2.35,7.67,7.67,0,0,1-3.64.82A6.72,6.72,0,0,1,385,48.18,11.53,11.53,0,0,1,382.9,41Zm2.22.39a10.13,10.13,0,0,0,1.49,5.81A5,5,0,0,0,391,49a6.11,6.11,0,0,0,3.59-1,6.4,6.4,0,0,0,2.22-2.73V35.93a7.09,7.09,0,0,0-2.12-2.88,5.66,5.66,0,0,0-3.65-1.12,4.88,4.88,0,0,0-4.43,2.42,11.65,11.65,0,0,0-1.51,6.26Z"/><path class="b" d="M422.75,38.48l8.37-15h2.58l-9.85,17.14v9.87h-2.21v-10l-9.78-17h2.58Z"/><path class="b" d="M434.81,40.15a10.82,10.82,0,0,1,2.43-7.28,8.74,8.74,0,0,1,12.9,0,10.82,10.82,0,0,1,2.43,7.28v.61A10.82,10.82,0,0,1,450.15,48a8.78,8.78,0,0,1-12.91,0,10.78,10.78,0,0,1-2.43-7.28Zm2.23.6a9.61,9.61,0,0,0,1.76,5.86,6.24,6.24,0,0,0,9.79,0,9.55,9.55,0,0,0,1.77-5.86v-.61a9.43,9.43,0,0,0-1.78-5.82,6.2,6.2,0,0,0-9.78,0A9.55,9.55,0,0,0,437,40.14Z"/><path class="b" d="M470.36,47.2a7,7,0,0,1-2.6,2.72,7.53,7.53,0,0,1-3.85.95,6.15,6.15,0,0,1-5-2.15c-1.2-1.44-1.8-3.66-1.8-6.68V30.4h2.23V42.1q0,3.67,1.25,5.28a4.25,4.25,0,0,0,3.56,1.6,6.48,6.48,0,0,0,4-1.14,5.89,5.89,0,0,0,2.1-3.12V30.4h2.22V50.48h-2Z"/><path class="b" d="M487.6,32.32,486,32.21a5,5,0,0,0-3.44,1.17,6.49,6.49,0,0,0-1.92,3.24V50.48h-2.23V30.4h1.95l.28,3.34V34a7.29,7.29,0,0,1,2.33-2.9,5.9,5.9,0,0,1,3.49-1,5.57,5.57,0,0,1,.83.07,5.72,5.72,0,0,1,.66.14Z"/><path class="b" d="M503.35,39.26V50.48h-2.21v-27h9.3A9.32,9.32,0,0,1,517,25.63a7.45,7.45,0,0,1,2.33,5.72A7.45,7.45,0,0,1,517,37.1a9.32,9.32,0,0,1-6.58,2.16Zm0-1.9h7.09a6.77,6.77,0,0,0,5-1.69,5.85,5.85,0,0,0,1.68-4.28,6,6,0,0,0-1.67-4.32,6.73,6.73,0,0,0-5-1.71h-7.09Z"/><path class="b" d="M536.55,50.48c-.15-.68-.26-1.27-.32-1.76a12.58,12.58,0,0,1-.09-1.5,8.78,8.78,0,0,1-3,2.61,8.43,8.43,0,0,1-4.17,1,6.31,6.31,0,0,1-4.56-1.56,5.52,5.52,0,0,1-1.62-4.17,5.19,5.19,0,0,1,2.4-4.46A11.19,11.19,0,0,1,531.7,39h4.44V36.53a4.29,4.29,0,0,0-1.38-3.38,5.62,5.62,0,0,0-3.87-1.22A6.15,6.15,0,0,0,527,33.1,3.49,3.49,0,0,0,525.51,36l-2,0,0-.11a4.78,4.78,0,0,1,2.05-4A8.39,8.39,0,0,1,531,30a8.06,8.06,0,0,1,5.34,1.69,6,6,0,0,1,2,4.84v9.88a17.41,17.41,0,0,0,.12,2.06,12.41,12.41,0,0,0,.4,2Zm-7.29-1.58a8,8,0,0,0,4.23-1.12,6.69,6.69,0,0,0,2.65-2.87V40.72h-4.47A8.19,8.19,0,0,0,526.83,42a3.84,3.84,0,0,0-1.81,3.2,3.43,3.43,0,0,0,1.13,2.66A4.41,4.41,0,0,0,529.26,48.9Z"/><path class="b" d="M547.75,25.27V30.4h4.42v1.82h-4.42V45.31a4.25,4.25,0,0,0,.72,2.79,2.38,2.38,0,0,0,1.9.82c.36,0,.71,0,1,0s.73-.09,1.18-.16l.33,1.65a5.94,5.94,0,0,1-1.35.37,9.68,9.68,0,0,1-1.6.13,4.14,4.14,0,0,1-3.29-1.33,6.3,6.3,0,0,1-1.18-4.23V32.22H542V30.4h3.47V25.27Z"/><path class="b" d="M559.37,24.65h-2.21V21.54h2.21Zm0,25.83h-2.21V30.4h2.21Z"/><path class="b" d="M573,50.87a8.08,8.08,0,0,1-6.26-2.78A10.19,10.19,0,0,1,564.29,41V40a10.5,10.5,0,0,1,2.47-7.15,7.71,7.71,0,0,1,6-2.84,7.42,7.42,0,0,1,5.8,2.34,9,9,0,0,1,2.12,6.24V40.5H566.51V41a8.84,8.84,0,0,0,1.8,5.66A5.74,5.74,0,0,0,573,49a9.6,9.6,0,0,0,3.55-.58,6.83,6.83,0,0,0,2.5-1.65l.95,1.52a8,8,0,0,1-2.87,1.9A10.92,10.92,0,0,1,573,50.87Zm-.27-18.94a5.29,5.29,0,0,0-4.14,1.88,8,8,0,0,0-2,4.7l0,.1h11.76v-.56a6.39,6.39,0,0,0-1.54-4.37A5.27,5.27,0,0,0,572.77,31.93Z"/><path class="b" d="M587.05,30.4l.21,3.51a7.15,7.15,0,0,1,2.6-2.86,7.23,7.23,0,0,1,3.89-1,6.17,6.17,0,0,1,5,2q1.71,2,1.71,6.22V50.48H598.2V38.25q0-3.47-1.29-4.89a4.65,4.65,0,0,0-3.66-1.43,5.74,5.74,0,0,0-3.81,1.23,6.93,6.93,0,0,0-2.13,3.28v14h-2.22V30.4Z"/><path class="b" d="M609.73,25.27V30.4h4.41v1.82h-4.41V45.31a4.25,4.25,0,0,0,.71,2.79,2.39,2.39,0,0,0,1.9.82c.36,0,.71,0,1,0s.73-.09,1.18-.16l.33,1.65a5.94,5.94,0,0,1-1.35.37,9.51,9.51,0,0,1-1.6.13,4.16,4.16,0,0,1-3.29-1.33,6.3,6.3,0,0,1-1.18-4.23V32.22H604V30.4h3.47V25.27Z"/><path class="b" d="M630.88,45.37a3.23,3.23,0,0,0-1.16-2.46,9.3,9.3,0,0,0-4.18-1.72,14.1,14.1,0,0,1-5.32-2.06,4.25,4.25,0,0,1-1.72-3.62,4.86,4.86,0,0,1,1.94-3.89A7.83,7.83,0,0,1,625.57,30,8,8,0,0,1,631,31.71a5,5,0,0,1,1.9,4.21l0,.11h-2.06a3.74,3.74,0,0,0-1.4-2.88,5.53,5.53,0,0,0-3.78-1.22,5.43,5.43,0,0,0-3.64,1,3.15,3.15,0,0,0-1.22,2.45,2.91,2.91,0,0,0,1,2.29,10.2,10.2,0,0,0,4.18,1.58,13.86,13.86,0,0,1,5.37,2.19,4.53,4.53,0,0,1,1.78,3.77,4.91,4.91,0,0,1-2,4.07,10.23,10.23,0,0,1-11.12-.19A4.93,4.93,0,0,1,618,45l0-.11h2A3.66,3.66,0,0,0,621.82,48a7.41,7.41,0,0,0,3.86,1,6.14,6.14,0,0,0,3.81-1.06A3.1,3.1,0,0,0,630.88,45.37Z"/></svg>