<svg xmlns="http://www.w3.org/2000/svg" viewBox="0 0 160.87 63.27"><defs><style>.a{fill:#fff;fill-opacity:0.9;stroke:#80b2c0;stroke-miterlimit:10;}.b{fill:#004e63;}</style></defs><path class="a" d="M160.37,56.69H90.44l-10,6-10-6H9.91L.5,47.28V.5H151l9.4,9.41Z"/><path class="b" d="M21.92,17.33,22,18.55a2.59,2.59,0,0,1,.94-1,2.69,2.69,0,0,1,1.41-.36,2.38,2.38,0,0,1,1.42.41,2.26,2.26,0,0,1,.82,1.26,2.79,2.79,0,0,1,.95-1.22,2.52,2.52,0,0,1,1.51-.45,2.25,2.25,0,0,1,1.83.79,3.86,3.86,0,0,1,.64,2.43v4.32H30.7V20.39a3,3,0,0,0-.48-1.93,1.68,1.68,0,0,0-1.35-.57,1.85,1.85,0,0,0-1.47.6A2.81,2.81,0,0,0,26.76,20v.14a.72.72,0,0,1,0,.13v4.45h-.83V20.39a3,3,0,0,0-.49-1.92,1.64,1.64,0,0,0-1.34-.58,2.06,2.06,0,0,0-1.38.44A2.31,2.31,0,0,0,22,19.52v5.21h-.83v-7.4Z"/><path class="b" d="M39.21,22H34.65l-1,2.78h-.84l3.78-10h.77l3.75,10h-.85Zm-4.29-.73h4l-2-5.39h0Z"/><path class="b" d="M48.34,21.23a4.28,4.28,0,0,1-.75,2.65,2.45,2.45,0,0,1-2.07,1,2.92,2.92,0,0,1-1.4-.32,2.45,2.45,0,0,1-.95-.94l-.09,1.12h-.71V14.06h.82v4.43a2.73,2.73,0,0,1,1-1,2.69,2.69,0,0,1,1.36-.34,2.42,2.42,0,0,1,2.09,1.07,4.81,4.81,0,0,1,.75,2.83Zm-.83-.14A4.39,4.39,0,0,0,47,18.78a1.8,1.8,0,0,0-1.62-.89,2.09,2.09,0,0,0-1.38.43,2.49,2.49,0,0,0-.78,1.09v3.36a2.37,2.37,0,0,0,.82,1,2.24,2.24,0,0,0,1.35.38A1.81,1.81,0,0,0,47,23.38a3.77,3.77,0,0,0,.54-2.14Z"/><path class="b" d="M54.88,14.77l3.65,8.77h0l3.68-8.77h1.08v10h-.82v-4.4L62.58,16l0,0-3.7,8.77h-.57L54.58,16h0l.08,4.32v4.4H53.8v-10Z"/><path class="b" d="M68.49,24.87a3,3,0,0,1-2.31-1,3.77,3.77,0,0,1-.92-2.6v-.38a3.84,3.84,0,0,1,.91-2.63,2.84,2.84,0,0,1,2.21-1,2.72,2.72,0,0,1,2.14.87,3.28,3.28,0,0,1,.78,2.29v.7H66.08v.2a3.24,3.24,0,0,0,.66,2.08,2.14,2.14,0,0,0,1.75.84,3.58,3.58,0,0,0,1.3-.21,2.55,2.55,0,0,0,.93-.61l.34.56a2.81,2.81,0,0,1-1,.7A4.13,4.13,0,0,1,68.49,24.87Zm-.11-7a2,2,0,0,0-1.52.69,3,3,0,0,0-.72,1.74l0,0h4.33v-.2a2.35,2.35,0,0,0-.57-1.61A2,2,0,0,0,68.38,17.89Z"/><path class="b" d="M75.66,24.17a2.32,2.32,0,0,0,1.44-.46,1.53,1.53,0,0,0,.62-1.29h.73v0a2,2,0,0,1-.82,1.72,3.06,3.06,0,0,1-2,.69,2.79,2.79,0,0,1-2.33-1,4.1,4.1,0,0,1-.82-2.66v-.28a4.16,4.16,0,0,1,.82-2.66,2.82,2.82,0,0,1,2.33-1,2.92,2.92,0,0,1,2,.72,2.33,2.33,0,0,1,.79,1.89l0,0h-.73a1.8,1.8,0,0,0-.6-1.42,2.11,2.11,0,0,0-1.46-.53,2,2,0,0,0-1.76.85,3.77,3.77,0,0,0-.57,2.14v.29a3.89,3.89,0,0,0,.56,2.16A2,2,0,0,0,75.66,24.17Z"/><path class="b" d="M81,18.6a2.66,2.66,0,0,1,1-1,2.8,2.8,0,0,1,1.44-.37,2.25,2.25,0,0,1,1.79.73,3.36,3.36,0,0,1,.63,2.25v4.56H85V20.15a2.5,2.5,0,0,0-.48-1.73,1.68,1.68,0,0,0-1.31-.53,2.21,2.21,0,0,0-1.4.44A2.52,2.52,0,0,0,81,19.51v5.22h-.82V14.06H81Z"/><path class="b" d="M92.65,24.73c-.05-.25-.09-.47-.11-.65a3.43,3.43,0,0,1,0-.56,3.31,3.31,0,0,1-1.09,1,3.17,3.17,0,0,1-1.54.38,2.34,2.34,0,0,1-1.68-.57,2,2,0,0,1-.6-1.54,1.9,1.9,0,0,1,.89-1.64,4.13,4.13,0,0,1,2.39-.62H92.5v-.91A1.58,1.58,0,0,0,92,18.34a2.07,2.07,0,0,0-1.42-.45,2.24,2.24,0,0,0-1.42.43,1.29,1.29,0,0,0-.57,1.05h-.75v0a1.75,1.75,0,0,1,.75-1.48,3.08,3.08,0,0,1,2-.66,3,3,0,0,1,2,.63,2.17,2.17,0,0,1,.74,1.78v3.64a6.33,6.33,0,0,0,0,.76,4.73,4.73,0,0,0,.15.73ZM90,24.15a2.88,2.88,0,0,0,1.55-.42,2.35,2.35,0,0,0,1-1.05V21.13H90.85a3,3,0,0,0-1.78.48,1.4,1.4,0,0,0-.66,1.18,1.26,1.26,0,0,0,.41,1A1.66,1.66,0,0,0,90,24.15Z"/><path class="b" d="M96.22,17.33l.08,1.29a2.57,2.57,0,0,1,1-1.05,2.65,2.65,0,0,1,1.43-.38,2.28,2.28,0,0,1,1.83.74,3.46,3.46,0,0,1,.63,2.29v4.51h-.82V20.22a2.66,2.66,0,0,0-.48-1.8,1.71,1.71,0,0,0-1.35-.53,2.07,2.07,0,0,0-1.4.46,2.5,2.5,0,0,0-.78,1.21v5.17H95.5v-7.4Z"/><path class="b" d="M104.2,15.21h-.81V14.06h.81Zm0,9.52h-.81v-7.4h.81Z"/><path class="b" d="M110.9,22.84a1.21,1.21,0,0,0-.43-.9,3.57,3.57,0,0,0-1.54-.64,5,5,0,0,1-2-.76,1.56,1.56,0,0,1-.63-1.33,1.8,1.8,0,0,1,.71-1.43,2.91,2.91,0,0,1,1.89-.59,3,3,0,0,1,2,.62,1.86,1.86,0,0,1,.7,1.55v0h-.76a1.36,1.36,0,0,0-.52-1.06,2,2,0,0,0-1.39-.45,2,2,0,0,0-1.34.39,1.14,1.14,0,0,0-.45.9,1.05,1.05,0,0,0,.39.84,3.77,3.77,0,0,0,1.54.59,4.87,4.87,0,0,1,2,.8,1.66,1.66,0,0,1,.66,1.39,1.79,1.79,0,0,1-.75,1.5,3.76,3.76,0,0,1-4.09-.07,1.8,1.8,0,0,1-.73-1.53v0h.75a1.35,1.35,0,0,0,.66,1.15,2.72,2.72,0,0,0,1.42.36,2.24,2.24,0,0,0,1.4-.39A1.12,1.12,0,0,0,110.9,22.84Z"/><path class="b" d="M114.29,17.33l.07,1.22a2.69,2.69,0,0,1,1-1,2.64,2.64,0,0,1,1.41-.36,2.38,2.38,0,0,1,1.42.41,2.31,2.31,0,0,1,.82,1.26,2.79,2.79,0,0,1,1-1.22,2.48,2.48,0,0,1,1.51-.45,2.23,2.23,0,0,1,1.82.79,3.79,3.79,0,0,1,.65,2.43v4.32h-.83V20.39a3,3,0,0,0-.48-1.93,1.66,1.66,0,0,0-1.34-.57,1.85,1.85,0,0,0-1.47.6,2.74,2.74,0,0,0-.64,1.52v4.72h-.82V20.39a3,3,0,0,0-.49-1.92,1.66,1.66,0,0,0-1.34-.58,2.06,2.06,0,0,0-1.38.44,2.4,2.4,0,0,0-.72,1.19v5.21h-.82v-7.4Z"/><path class="b" d="M129,20.92a4,4,0,0,1,.9-2.68,2.94,2.94,0,0,1,2.37-1,3,3,0,0,1,2.38,1,4,4,0,0,1,.89,2.68v.23a4,4,0,0,1-.89,2.68,3.23,3.23,0,0,1-4.75,0,4,4,0,0,1-.9-2.68Zm.82.22a3.53,3.53,0,0,0,.65,2.16,2.31,2.31,0,0,0,3.61,0,3.53,3.53,0,0,0,.65-2.16v-.22a3.48,3.48,0,0,0-.66-2.15,2.28,2.28,0,0,0-3.6,0,3.54,3.54,0,0,0-.65,2.15Z"/><path class="b" d="M137.8,24.73V18h-1.23v-.67h1.23V16.25a2.45,2.45,0,0,1,.55-1.72,2,2,0,0,1,1.57-.61l.45,0,.48.1-.11.68-.34-.07-.4,0a1.28,1.28,0,0,0-1,.42,1.78,1.78,0,0,0-.35,1.19v1.08h1.76V18h-1.76v6.73Z"/><path class="b" d="M45.23,38.75H40.67l-1,2.78h-.85l3.79-10h.77l3.75,10h-.85ZM40.94,38h4l-2-5.39h0Z"/><path class="b" d="M51.14,41a2.36,2.36,0,0,0,1.44-.46,1.53,1.53,0,0,0,.62-1.29h.72l0,0A2,2,0,0,1,53.12,41a3.06,3.06,0,0,1-2,.69,2.78,2.78,0,0,1-2.33-1A4.13,4.13,0,0,1,48,38v-.28A4.16,4.16,0,0,1,48.81,35a2.81,2.81,0,0,1,2.32-1,3,3,0,0,1,2,.72,2.32,2.32,0,0,1,.78,1.89v0H53.2a1.8,1.8,0,0,0-.6-1.42,2.16,2.16,0,0,0-1.47-.53,2,2,0,0,0-1.76.85,3.77,3.77,0,0,0-.57,2.14V38a3.82,3.82,0,0,0,.57,2.16A2,2,0,0,0,51.14,41Z"/><path class="b" d="M56.94,32.24v1.89h1.62v.67H56.94v4.82a1.62,1.62,0,0,0,.26,1,.89.89,0,0,0,.7.3h.39l.43-.06.12.61a1.93,1.93,0,0,1-.49.13,4,4,0,0,1-.59.05,1.54,1.54,0,0,1-1.22-.49,2.33,2.33,0,0,1-.43-1.56V34.8H54.83v-.67h1.28V32.24Z"/><path class="b" d="M61.22,32H60.4V30.86h.82Zm0,9.52H60.4v-7.4h.82Z"/><path class="b" d="M63,37.72a4,4,0,0,1,.9-2.68,2.94,2.94,0,0,1,2.37-1,3,3,0,0,1,2.38,1,4,4,0,0,1,.89,2.68v.22a4,4,0,0,1-.89,2.69,3.23,3.23,0,0,1-4.75,0,4,4,0,0,1-.9-2.69Zm.82.22a3.53,3.53,0,0,0,.65,2.16,2.31,2.31,0,0,0,3.61,0,3.53,3.53,0,0,0,.65-2.16v-.22a3.48,3.48,0,0,0-.66-2.15,2.28,2.28,0,0,0-3.6,0,3.54,3.54,0,0,0-.65,2.15Z"/><path class="b" d="M72,34.13l.07,1.29a2.64,2.64,0,0,1,1-1.05A2.68,2.68,0,0,1,74.46,34a2.29,2.29,0,0,1,1.84.74A3.46,3.46,0,0,1,76.93,37v4.51h-.82V37a2.66,2.66,0,0,0-.48-1.8,1.74,1.74,0,0,0-1.35-.53,2.07,2.07,0,0,0-1.4.46,2.45,2.45,0,0,0-.79,1.21v5.17h-.82v-7.4Z"/><path class="b" d="M84,36.09a6.42,6.42,0,0,1-.82-1.24A2.69,2.69,0,0,1,83,33.69,2.24,2.24,0,0,1,83.56,32a2.31,2.31,0,0,1,1.67-.59,2.14,2.14,0,0,1,1.56.55,1.85,1.85,0,0,1,.58,1.4,1.79,1.79,0,0,1-.31,1.06,4.14,4.14,0,0,1-.89.89l-1.08.83,2.81,3.29a3.66,3.66,0,0,0,.52-1.09,4.13,4.13,0,0,0,.19-1.28h.75a4.9,4.9,0,0,1-.25,1.61A4.62,4.62,0,0,1,88.39,40l1.26,1.47v0H88.7l-.83-1a4.25,4.25,0,0,1-1.27.82,3.88,3.88,0,0,1-1.49.29,3.29,3.29,0,0,1-2.26-.73A2.46,2.46,0,0,1,82,39a2.4,2.4,0,0,1,.5-1.48,6.46,6.46,0,0,1,1.43-1.34ZM85.11,41a3.28,3.28,0,0,0,1.23-.24,3.53,3.53,0,0,0,1.07-.7l-2.83-3.29a.17.17,0,0,0-.06-.06l0,0-.33.24A4.28,4.28,0,0,0,83.1,38a2.13,2.13,0,0,0-.27,1,1.89,1.89,0,0,0,.59,1.41A2.32,2.32,0,0,0,85.11,41Zm-1.33-7.3a2.36,2.36,0,0,0,.21.94,4.41,4.41,0,0,0,.66,1l1.21-.9a2,2,0,0,0,.56-.64,1.53,1.53,0,0,0,.17-.72,1.22,1.22,0,0,0-.36-.9,1.57,1.57,0,0,0-2.08.09A1.66,1.66,0,0,0,83.78,33.67Z"/><path class="b" d="M94.71,41.53v-10H97.6a4,4,0,0,1,3,1.22,4.29,4.29,0,0,1,1.19,3.12v1.28a4.29,4.29,0,0,1-1.19,3.13,4.08,4.08,0,0,1-3,1.21Zm.82-9.26v8.56H97.6a3.14,3.14,0,0,0,2.43-1,3.69,3.69,0,0,0,1-2.61v-1.3a3.66,3.66,0,0,0-1-2.59,3.17,3.17,0,0,0-2.43-1Z"/><path class="b" d="M108.36,41.53a5.43,5.43,0,0,1-.12-.65,5.25,5.25,0,0,1,0-.56,3.35,3.35,0,0,1-1.1,1,3.14,3.14,0,0,1-1.54.38,2.32,2.32,0,0,1-1.67-.57,2,2,0,0,1-.6-1.54,1.89,1.89,0,0,1,.88-1.64,4.13,4.13,0,0,1,2.39-.62h1.64v-.91a1.58,1.58,0,0,0-.51-1.25,2.1,2.1,0,0,0-1.43-.45,2.26,2.26,0,0,0-1.42.43,1.3,1.3,0,0,0-.56,1.05h-.75l0,0a1.78,1.78,0,0,1,.76-1.48,3.08,3.08,0,0,1,2-.66,2.92,2.92,0,0,1,2,.63A2.18,2.18,0,0,1,109,36.4V40a6.34,6.34,0,0,0,0,.76,4.73,4.73,0,0,0,.15.73ZM105.67,41a2.89,2.89,0,0,0,1.56-.42,2.46,2.46,0,0,0,1-1.05V37.93h-1.65a3,3,0,0,0-1.78.48,1.39,1.39,0,0,0-.67,1.18,1.27,1.27,0,0,0,.42,1A1.62,1.62,0,0,0,105.67,41Z"/><path class="b" d="M112.49,32.24v1.89h1.62v.67h-1.62v4.82a1.56,1.56,0,0,0,.26,1,.89.89,0,0,0,.7.3h.39l.43-.06.12.61a1.9,1.9,0,0,1-.5.13,3.79,3.79,0,0,1-.58.05,1.54,1.54,0,0,1-1.22-.49,2.33,2.33,0,0,1-.43-1.56V34.8h-1.28v-.67h1.28V32.24Z"/><path class="b" d="M120.53,41.53c0-.25-.09-.47-.11-.65a3.52,3.52,0,0,1,0-.56,3.31,3.31,0,0,1-1.09,1,3.17,3.17,0,0,1-1.54.38,2.34,2.34,0,0,1-1.68-.57,2,2,0,0,1-.6-1.54,1.9,1.9,0,0,1,.89-1.64,4.13,4.13,0,0,1,2.39-.62h1.63v-.91a1.58,1.58,0,0,0-.51-1.25,2.07,2.07,0,0,0-1.42-.45,2.24,2.24,0,0,0-1.42.43,1.28,1.28,0,0,0-.56,1.05h-.76v0a1.73,1.73,0,0,1,.76-1.48,3.05,3.05,0,0,1,2-.66,3,3,0,0,1,2,.63,2.18,2.18,0,0,1,.75,1.78V40a6.34,6.34,0,0,0,0,.76,4.73,4.73,0,0,0,.15.73ZM117.85,41a2.88,2.88,0,0,0,1.55-.42,2.4,2.4,0,0,0,1-1.05V37.93h-1.65a3,3,0,0,0-1.78.48,1.4,1.4,0,0,0-.66,1.18,1.3,1.3,0,0,0,.41,1A1.66,1.66,0,0,0,117.85,41Z"/></svg>