<svg xmlns="http://www.w3.org/2000/svg" viewBox="0 0 140.87 63.27"><defs><style>.a{fill:#fff;fill-opacity:0.9;stroke:#80b2c0;stroke-miterlimit:10;}.b{fill:#004e63;}</style></defs><path class="a" d="M140.37,56.69H80.44l-10,6-10-6H9.91L.5,47.28V.5H131l9.4,9.41Z"/><path class="b" d="M34.58,20.19v4.14h-.81v-10H37.2a3.43,3.43,0,0,1,2.42.8,2.74,2.74,0,0,1,.86,2.11,2.76,2.76,0,0,1-.86,2.12,3.43,3.43,0,0,1-2.42.79Zm0-.7H37.2a2.49,2.49,0,0,0,1.85-.62,2.16,2.16,0,0,0,.61-1.58,2.21,2.21,0,0,0-.61-1.59,2.48,2.48,0,0,0-1.85-.63H34.58Z"/><path class="b" d="M46.81,24.33c-.05-.25-.09-.47-.11-.65a5.09,5.09,0,0,1,0-.56,3.22,3.22,0,0,1-1.09,1,3.14,3.14,0,0,1-1.54.38,2.34,2.34,0,0,1-1.68-.57,2,2,0,0,1-.59-1.54,1.9,1.9,0,0,1,.88-1.64A4.13,4.13,0,0,1,45,20.1h1.63v-.91a1.61,1.61,0,0,0-.5-1.25,2.1,2.1,0,0,0-1.43-.45,2.33,2.33,0,0,0-1.42.43A1.31,1.31,0,0,0,42.75,19H42v0a1.77,1.77,0,0,1,.76-1.48,3.05,3.05,0,0,1,2-.66,2.93,2.93,0,0,1,2,.63,2.18,2.18,0,0,1,.75,1.78v3.64a6.34,6.34,0,0,0,0,.76,4.73,4.73,0,0,0,.15.73Zm-2.68-.58a2.89,2.89,0,0,0,1.56-.42,2.38,2.38,0,0,0,1-1V20.73H45a3,3,0,0,0-1.78.48,1.39,1.39,0,0,0-.67,1.18,1.3,1.3,0,0,0,.41,1A1.66,1.66,0,0,0,44.13,23.75Z"/><path class="b" d="M50.94,15v1.89h1.63v.67H50.94v4.82a1.55,1.55,0,0,0,.27,1,.88.88,0,0,0,.7.3h.38l.44-.06.12.61a2,2,0,0,1-.5.13,2.88,2.88,0,0,1-.59,0A1.52,1.52,0,0,1,50.55,24a2.33,2.33,0,0,1-.43-1.56V17.6H48.84v-.67h1.28V15Z"/><path class="b" d="M55.22,14.81h-.81V13.66h.81Zm0,9.52h-.81v-7.4h.81Z"/><path class="b" d="M60.26,24.47a3,3,0,0,1-2.31-1,3.77,3.77,0,0,1-.92-2.6v-.38A3.85,3.85,0,0,1,58,17.84a2.82,2.82,0,0,1,2.21-1.05,2.72,2.72,0,0,1,2.14.87A3.28,3.28,0,0,1,63.08,20v.7H57.85v.2a3.29,3.29,0,0,0,.67,2.09,2.12,2.12,0,0,0,1.74.83,3.63,3.63,0,0,0,1.31-.21,2.51,2.51,0,0,0,.92-.61l.35.56a2.85,2.85,0,0,1-1.06.7A3.87,3.87,0,0,1,60.26,24.47Zm-.1-7a2,2,0,0,0-1.53.69,2.94,2.94,0,0,0-.71,1.74v0h4.33v-.2a2.34,2.34,0,0,0-.56-1.61A2,2,0,0,0,60.16,17.49Z"/><path class="b" d="M65.42,16.93l.08,1.29a2.57,2.57,0,0,1,1-1,2.65,2.65,0,0,1,1.43-.38,2.28,2.28,0,0,1,1.83.74,3.46,3.46,0,0,1,.63,2.29v4.51h-.82V19.82a2.72,2.72,0,0,0-.47-1.8,1.75,1.75,0,0,0-1.36-.53,2.07,2.07,0,0,0-1.4.46,2.5,2.5,0,0,0-.78,1.21v5.17H64.7v-7.4Z"/><path class="b" d="M73.78,15v1.89H75.4v.67H73.78v4.82a1.56,1.56,0,0,0,.26,1,.88.88,0,0,0,.7.3h.39l.43-.06.12.61a1.9,1.9,0,0,1-.5.13,2.84,2.84,0,0,1-.58,0A1.54,1.54,0,0,1,73.38,24,2.33,2.33,0,0,1,73,22.42V17.6H71.67v-.67H73V15Z"/><path class="b" d="M81.23,16.93l.08,1.22a2.56,2.56,0,0,1,2.36-1.36,2.41,2.41,0,0,1,1.42.41,2.28,2.28,0,0,1,.81,1.26,2.81,2.81,0,0,1,1-1.22,2.47,2.47,0,0,1,1.5-.45,2.25,2.25,0,0,1,1.83.79A3.81,3.81,0,0,1,90.83,20v4.32H90V20a3,3,0,0,0-.48-1.93,1.66,1.66,0,0,0-1.34-.57,1.82,1.82,0,0,0-1.47.6,2.82,2.82,0,0,0-.65,1.52s0,.08,0,.14v4.58h-.83V20a3,3,0,0,0-.49-1.92,1.67,1.67,0,0,0-1.34-.58,2.06,2.06,0,0,0-1.38.44,2.38,2.38,0,0,0-.71,1.19v5.21H80.5v-7.4Z"/><path class="b" d="M98.52,21.55H94l-1,2.78h-.85l3.78-10h.77l3.75,10h-.84Zm-4.28-.73h4l-2-5.39h0Z"/><path class="b" d="M107.66,20.83a4.28,4.28,0,0,1-.76,2.65,2.45,2.45,0,0,1-2.07,1,2.92,2.92,0,0,1-1.4-.32,2.52,2.52,0,0,1-1-.94l-.09,1.12h-.7V13.66h.82v4.43a2.52,2.52,0,0,1,2.31-1.3,2.4,2.4,0,0,1,2.08,1.07,4.81,4.81,0,0,1,.76,2.83Zm-.83-.14a4.29,4.29,0,0,0-.55-2.31,1.78,1.78,0,0,0-1.62-.89,2.09,2.09,0,0,0-1.38.43,2.52,2.52,0,0,0-.77,1.09v3.36a2.22,2.22,0,0,0,2.16,1.4,1.82,1.82,0,0,0,1.62-.79,3.77,3.77,0,0,0,.54-2.14Z"/><path class="b" d="M18.4,36.31H13.61v4.12H19.1v.7H12.8v-10h6.27v.7H13.61v3.74H18.4Z"/><path class="b" d="M21.56,41.13h-.82V30.46h.82Z"/><path class="b" d="M24.73,31.61h-.81V30.46h.81Zm0,9.52h-.81v-7.4h.81Z"/><path class="b" d="M26.68,37.49a4.81,4.81,0,0,1,.75-2.83,2.44,2.44,0,0,1,2.1-1.07,2.57,2.57,0,0,1,1.36.35,2.68,2.68,0,0,1,.95,1l.1-1.18h.69V41a3.13,3.13,0,0,1-.79,2.26,2.9,2.9,0,0,1-2.2.82A5.16,5.16,0,0,1,28.51,44a4.4,4.4,0,0,1-1.06-.35l.22-.69a4.2,4.2,0,0,0,.92.33,4.31,4.31,0,0,0,1,.11,2,2,0,0,0,1.63-.62A2.5,2.5,0,0,0,31.81,41V40.1a2.63,2.63,0,0,1-.95.87,2.85,2.85,0,0,1-1.34.3,2.48,2.48,0,0,1-2.09-1,4.28,4.28,0,0,1-.75-2.65Zm.82.15A3.73,3.73,0,0,0,28,39.77a1.84,1.84,0,0,0,1.63.8A2.28,2.28,0,0,0,31,40.21a2.34,2.34,0,0,0,.82-1V35.77A2.62,2.62,0,0,0,31,34.71a2.08,2.08,0,0,0-1.35-.42,1.81,1.81,0,0,0-1.63.89,4.34,4.34,0,0,0-.55,2.31Z"/><path class="b" d="M35.71,31.61H34.9V30.46h.81Zm0,9.52H34.9v-7.4h.81Z"/><path class="b" d="M43.94,37.63a4.21,4.21,0,0,1-.76,2.65,2.45,2.45,0,0,1-2.07,1,2.92,2.92,0,0,1-1.4-.32,2.52,2.52,0,0,1-1-.94l-.09,1.12H38V30.46h.82v4.43a2.52,2.52,0,0,1,2.31-1.3,2.4,2.4,0,0,1,2.08,1.07,4.74,4.74,0,0,1,.76,2.83Zm-.83-.14a4.29,4.29,0,0,0-.55-2.31,1.78,1.78,0,0,0-1.62-.89,2,2,0,0,0-1.37.43,2.49,2.49,0,0,0-.78,1.09v3.36A2.22,2.22,0,0,0,41,40.57a1.82,1.82,0,0,0,1.61-.79,3.77,3.77,0,0,0,.54-2.14Z"/><path class="b" d="M46.68,31.61h-.81V30.46h.81Zm0,9.52h-.81v-7.4h.81Z"/><path class="b" d="M49.86,41.13h-.81V30.46h.81Z"/><path class="b" d="M53,31.61h-.81V30.46H53Zm0,9.52h-.81v-7.4H53Z"/><path class="b" d="M56.59,31.84v1.89h1.63v.67H56.59v4.82a1.62,1.62,0,0,0,.26,1,.89.89,0,0,0,.7.3h.39l.43-.06.13.61a2.14,2.14,0,0,1-.5.13,2.94,2.94,0,0,1-.59.05,1.52,1.52,0,0,1-1.21-.49,2.32,2.32,0,0,1-.44-1.56V34.4H54.48v-.67h1.28V31.84Z"/><path class="b" d="M62.05,39.12l.26.89h0l2.24-6.28h.91l-3.21,8.58a4.3,4.3,0,0,1-.74,1.28,1.7,1.7,0,0,1-1.34.52l-.35,0-.3-.06.09-.68.27,0h.26A1,1,0,0,0,61,43a3.09,3.09,0,0,0,.55-1L62,41l-2.86-7.3H60Z"/><path class="b" d="M70.08,37.11a10.13,10.13,0,0,1,1-4.45A5.93,5.93,0,0,1,73.15,30h0l.18.5A5.51,5.51,0,0,0,71.64,33a10.64,10.64,0,0,0-.74,4.06v.13a10.61,10.61,0,0,0,.74,4.06,5.75,5.75,0,0,0,1.73,2.53l-.18.48h0A5.87,5.87,0,0,1,71,41.68a10,10,0,0,1-1-4.47Z"/><path class="b" d="M80.54,37.63a4.28,4.28,0,0,1-.75,2.65,2.45,2.45,0,0,1-2.07,1,2.92,2.92,0,0,1-1.4-.32,2.52,2.52,0,0,1-.95-.94l-.09,1.12h-.7V30.46h.82v4.43a2.52,2.52,0,0,1,2.31-1.3,2.42,2.42,0,0,1,2.08,1.07,4.81,4.81,0,0,1,.75,2.83Zm-.82-.14a4.39,4.39,0,0,0-.55-2.31,1.8,1.8,0,0,0-1.62-.89,2.09,2.09,0,0,0-1.38.43,2.39,2.39,0,0,0-.77,1.09v3.36a2.2,2.2,0,0,0,2.16,1.4,1.82,1.82,0,0,0,1.62-.79,3.77,3.77,0,0,0,.54-2.14Z"/><path class="b" d="M83.29,31.61h-.81V30.46h.81Zm0,9.52h-.81v-7.4h.81Z"/><path class="b" d="M86.47,41.13h-.81V30.46h.81Z"/><path class="b" d="M89.65,31.61h-.81V30.46h.81Zm0,9.52h-.81v-7.4h.81Z"/><path class="b" d="M92.64,33.73,92.71,35a2.71,2.71,0,0,1,1-1.05,2.68,2.68,0,0,1,1.43-.38,2.29,2.29,0,0,1,1.84.74,3.52,3.52,0,0,1,.62,2.29v4.51h-.82V36.62a2.66,2.66,0,0,0-.47-1.8,1.74,1.74,0,0,0-1.35-.53,2.1,2.1,0,0,0-1.41.46A2.5,2.5,0,0,0,92.73,36v5.17h-.82v-7.4Z"/><path class="b" d="M99.38,37.49a4.74,4.74,0,0,1,.76-2.83,2.43,2.43,0,0,1,2.1-1.07,2.6,2.6,0,0,1,1.36.35,2.76,2.76,0,0,1,1,1l.1-1.18h.69V41a3.17,3.17,0,0,1-.79,2.26,2.9,2.9,0,0,1-2.2.82,5.25,5.25,0,0,1-1.14-.13,4.17,4.17,0,0,1-1-.35l.21-.69a4.32,4.32,0,0,0,2,.44,2,2,0,0,0,1.63-.62,2.55,2.55,0,0,0,.55-1.73V40.1a2.63,2.63,0,0,1-1,.87,2.88,2.88,0,0,1-1.34.3,2.48,2.48,0,0,1-2.09-1,4.21,4.21,0,0,1-.76-2.65Zm.82.15a3.73,3.73,0,0,0,.55,2.13,1.83,1.83,0,0,0,1.63.8,2.28,2.28,0,0,0,1.32-.36,2.42,2.42,0,0,0,.82-1V35.77a2.55,2.55,0,0,0-.79-1.06,2,2,0,0,0-1.34-.42,1.81,1.81,0,0,0-1.63.89,4.34,4.34,0,0,0-.56,2.31Z"/><path class="b" d="M112.35,39.92a2.57,2.57,0,0,1-1,1,2.79,2.79,0,0,1-1.42.35,2.25,2.25,0,0,1-1.83-.79,3.81,3.81,0,0,1-.66-2.46V33.73h.82V38a3.16,3.16,0,0,0,.46,1.94,1.55,1.55,0,0,0,1.31.59,2.45,2.45,0,0,0,1.48-.41,2.17,2.17,0,0,0,.77-1.15V33.73h.82v7.4h-.72Z"/><path class="b" d="M120,41.13c0-.25-.09-.47-.12-.65a5.12,5.12,0,0,1,0-.56,3.31,3.31,0,0,1-1.09,1,3.17,3.17,0,0,1-1.54.38,2.34,2.34,0,0,1-1.68-.57,2,2,0,0,1-.6-1.54,1.91,1.91,0,0,1,.89-1.64,4.11,4.11,0,0,1,2.39-.62h1.63V36a1.58,1.58,0,0,0-.51-1.25,2.07,2.07,0,0,0-1.42-.45,2.31,2.31,0,0,0-1.42.43,1.29,1.29,0,0,0-.57,1.06h-.75v0a1.75,1.75,0,0,1,.75-1.48,3.08,3.08,0,0,1,2-.66,3,3,0,0,1,2,.63,2.17,2.17,0,0,1,.74,1.78v3.64a6.33,6.33,0,0,0,0,.76,6.26,6.26,0,0,0,.14.73Zm-2.69-.58a2.89,2.89,0,0,0,1.56-.42,2.41,2.41,0,0,0,1-1.05V37.53h-1.65a3,3,0,0,0-1.78.48,1.4,1.4,0,0,0-.66,1.18,1.26,1.26,0,0,0,.41,1A1.63,1.63,0,0,0,117.29,40.55Z"/><path class="b" d="M123.74,41.13h-.81V30.46h.81Z"/><path class="b" d="M128.33,37.21a10,10,0,0,1-1,4.47,5.8,5.8,0,0,1-2.12,2.61h0l-.17-.48a5.58,5.58,0,0,0,1.72-2.5,10.61,10.61,0,0,0,.74-4.09v-.13a10.58,10.58,0,0,0-.75-4.07,5.87,5.87,0,0,0-1.71-2.52l.17-.48h0a5.93,5.93,0,0,1,2.12,2.64,10.13,10.13,0,0,1,1,4.45Z"/></svg>