<svg xmlns="http://www.w3.org/2000/svg" viewBox="0 0 140.87 63.27"><defs><style>.a{fill:#fff;stroke:#80b2c0;stroke-miterlimit:10;}.b{fill:#004e63;}</style></defs><path class="a" d="M140.37,56.69H80.44l-10,6-10-6H9.91L.5,47.28V.5H131l9.4,9.41Z"/><path class="b" d="M36,19.51H31.2v4.12h5.49v.7h-6.3v-10h6.27v.7H31.2v3.74H36Z"/><path class="b" d="M37.78,20.69a4.81,4.81,0,0,1,.75-2.83,2.39,2.39,0,0,1,2.08-1.07,2.59,2.59,0,0,1,1.34.33,2.72,2.72,0,0,1,.95.93V13.66h.81V24.33H43l-.07-1.08a2.58,2.58,0,0,1-1,.91,2.86,2.86,0,0,1-1.37.31,2.44,2.44,0,0,1-2.07-1,4.28,4.28,0,0,1-.75-2.65Zm.82.15A3.85,3.85,0,0,0,39.13,23a1.82,1.82,0,0,0,1.62.79,2.2,2.2,0,0,0,2.15-1.34V18.94a2.63,2.63,0,0,0-.8-1.05,2.14,2.14,0,0,0-1.34-.4,1.78,1.78,0,0,0-1.62.89,4.39,4.39,0,0,0-.54,2.31Z"/><path class="b" d="M50.74,23.12a2.64,2.64,0,0,1-1,1,2.79,2.79,0,0,1-1.42.35,2.25,2.25,0,0,1-1.83-.79,3.8,3.8,0,0,1-.67-2.46V16.93h.82v4.31a3.21,3.21,0,0,0,.47,2,1.55,1.55,0,0,0,1.31.58,2.47,2.47,0,0,0,1.48-.41,2.23,2.23,0,0,0,.77-1.15V16.93h.82v7.4h-.72Z"/><path class="b" d="M53.36,20.69a4.81,4.81,0,0,1,.75-2.83,2.42,2.42,0,0,1,2.09-1.07,2.7,2.7,0,0,1,1.33.32,2.64,2.64,0,0,1,.94.91l.08-1.09h.71V27.17h-.81V23.36a2.54,2.54,0,0,1-.94.82,2.79,2.79,0,0,1-1.32.29,2.46,2.46,0,0,1-2.08-1,4.28,4.28,0,0,1-.75-2.65Zm.82.14A3.77,3.77,0,0,0,54.72,23a1.81,1.81,0,0,0,1.62.8,2.3,2.3,0,0,0,1.29-.34,2.43,2.43,0,0,0,.82-.94V18.87a2.51,2.51,0,0,0-.8-1,2.09,2.09,0,0,0-1.3-.39,1.78,1.78,0,0,0-1.62.89,4.32,4.32,0,0,0-.55,2.31Z"/><path class="b" d="M66.32,23.12a2.54,2.54,0,0,1-.95,1,2.82,2.82,0,0,1-1.42.35,2.27,2.27,0,0,1-1.84-.79,3.81,3.81,0,0,1-.66-2.46V16.93h.82v4.31a3.22,3.22,0,0,0,.46,2,1.58,1.58,0,0,0,1.31.58,2.43,2.43,0,0,0,1.48-.41,2.24,2.24,0,0,0,.78-1.15V16.93h.82v7.4h-.73Z"/><path class="b" d="M72.05,24.47a3,3,0,0,1-2.31-1,3.77,3.77,0,0,1-.92-2.6v-.38a3.84,3.84,0,0,1,.91-2.63,2.84,2.84,0,0,1,2.21-1.05,2.72,2.72,0,0,1,2.14.87A3.28,3.28,0,0,1,74.86,20v.7H69.64v.2a3.29,3.29,0,0,0,.66,2.09,2.14,2.14,0,0,0,1.75.83,3.58,3.58,0,0,0,1.3-.21,2.43,2.43,0,0,0,.92-.61l.35.56a2.89,2.89,0,0,1-1.05.7A3.94,3.94,0,0,1,72.05,24.47Zm-.11-7a2,2,0,0,0-1.52.69,3,3,0,0,0-.72,1.74v0h4.34v-.2a2.35,2.35,0,0,0-.57-1.61A2,2,0,0,0,71.94,17.49Z"/><path class="b" d="M84.57,24.33a5.43,5.43,0,0,1-.12-.65,5.12,5.12,0,0,1,0-.56,3.35,3.35,0,0,1-1.1,1,3.1,3.1,0,0,1-1.53.38,2.34,2.34,0,0,1-1.68-.57,2,2,0,0,1-.6-1.54,1.91,1.91,0,0,1,.89-1.64,4.11,4.11,0,0,1,2.39-.62h1.63v-.91a1.58,1.58,0,0,0-.51-1.25,2.1,2.1,0,0,0-1.43-.45,2.28,2.28,0,0,0-1.41.43A1.29,1.29,0,0,0,80.5,19h-.75v0a1.75,1.75,0,0,1,.75-1.48,3.08,3.08,0,0,1,2-.66,3,3,0,0,1,2,.63,2.2,2.2,0,0,1,.74,1.78v3.64a6.33,6.33,0,0,0,0,.76,6.26,6.26,0,0,0,.14.73Zm-2.69-.58a2.89,2.89,0,0,0,1.56-.42,2.41,2.41,0,0,0,1-1V20.73H82.77a3,3,0,0,0-1.78.48,1.41,1.41,0,0,0-.67,1.18,1.27,1.27,0,0,0,.42,1A1.62,1.62,0,0,0,81.88,23.75Z"/><path class="b" d="M95.25,22.44a1.21,1.21,0,0,0-.43-.9,3.51,3.51,0,0,0-1.54-.64,5,5,0,0,1-2-.76,1.55,1.55,0,0,1-.63-1.33,1.8,1.8,0,0,1,.71-1.43,2.91,2.91,0,0,1,1.89-.59,3,3,0,0,1,2,.62A1.86,1.86,0,0,1,96,19v0H95.2a1.36,1.36,0,0,0-.52-1.06A2.43,2.43,0,0,0,92,17.88a1.14,1.14,0,0,0-.45.9,1.05,1.05,0,0,0,.39.84,3.77,3.77,0,0,0,1.54.59,4.87,4.87,0,0,1,2,.8,1.67,1.67,0,0,1,.66,1.39,1.79,1.79,0,0,1-.75,1.5,3.76,3.76,0,0,1-4.09-.07,1.8,1.8,0,0,1-.73-1.53v0h.76a1.34,1.34,0,0,0,.65,1.15,2.72,2.72,0,0,0,1.42.36,2.31,2.31,0,0,0,1.4-.38A1.15,1.15,0,0,0,95.25,22.44Z"/><path class="b" d="M102.79,23.12a2.54,2.54,0,0,1-1,1,2.82,2.82,0,0,1-1.42.35,2.28,2.28,0,0,1-1.84-.79,3.81,3.81,0,0,1-.66-2.46V16.93h.82v4.31a3.22,3.22,0,0,0,.46,2,1.58,1.58,0,0,0,1.31.58,2.43,2.43,0,0,0,1.48-.41,2.24,2.24,0,0,0,.78-1.15V16.93h.82v7.4h-.73Z"/><path class="b" d="M110.17,22.44a1.17,1.17,0,0,0-.43-.9,3.51,3.51,0,0,0-1.54-.64,5.08,5.08,0,0,1-2-.76,1.55,1.55,0,0,1-.63-1.33,1.8,1.8,0,0,1,.71-1.43,2.91,2.91,0,0,1,1.89-.59,3,3,0,0,1,2,.62,1.86,1.86,0,0,1,.69,1.55v0h-.76a1.38,1.38,0,0,0-.51-1.06,2.07,2.07,0,0,0-1.4-.45,2,2,0,0,0-1.34.39,1.14,1.14,0,0,0-.45.9,1.05,1.05,0,0,0,.39.84,3.83,3.83,0,0,0,1.54.59,5,5,0,0,1,2,.8A1.69,1.69,0,0,1,111,22.4a1.79,1.79,0,0,1-.75,1.5,3.14,3.14,0,0,1-2,.57,3.19,3.19,0,0,1-2.12-.64,1.82,1.82,0,0,1-.73-1.53l0,0h.75a1.34,1.34,0,0,0,.65,1.15,2.74,2.74,0,0,0,1.43.36,2.33,2.33,0,0,0,1.4-.38A1.17,1.17,0,0,0,110.17,22.44Z"/><path class="b" d="M47.6,37.63a4.21,4.21,0,0,1-.76,2.65,2.45,2.45,0,0,1-2.07,1A3.06,3.06,0,0,1,43.41,41a2.49,2.49,0,0,1-.95-.84V44h-.82V33.73h.69l.1,1.15a2.55,2.55,0,0,1,1-1,2.77,2.77,0,0,1,1.38-.34,2.4,2.4,0,0,1,2.08,1.07,4.74,4.74,0,0,1,.76,2.83Zm-.82-.15a4.28,4.28,0,0,0-.56-2.3,1.83,1.83,0,0,0-1.64-.89,2.13,2.13,0,0,0-1.35.4,2.39,2.39,0,0,0-.77,1v3.56a2.23,2.23,0,0,0,.81,1,2.36,2.36,0,0,0,1.32.34,1.87,1.87,0,0,0,1.63-.8,3.75,3.75,0,0,0,.56-2.15Z"/><path class="b" d="M54.12,41.13c-.06-.25-.09-.47-.12-.65a5.12,5.12,0,0,1,0-.56,3.35,3.35,0,0,1-1.1,1,3.1,3.1,0,0,1-1.53.38,2.34,2.34,0,0,1-1.68-.57,2,2,0,0,1-.6-1.54A1.89,1.89,0,0,1,50,37.52a4.09,4.09,0,0,1,2.38-.62H54V36a1.58,1.58,0,0,0-.51-1.25A2.1,2.1,0,0,0,52,34.29a2.28,2.28,0,0,0-1.41.43,1.29,1.29,0,0,0-.57,1.06H49.3v0A1.75,1.75,0,0,1,50,34.25a3.08,3.08,0,0,1,2-.66,3,3,0,0,1,2,.63A2.2,2.2,0,0,1,54.78,36v3.64a6.33,6.33,0,0,0,0,.76,4.7,4.7,0,0,0,.14.73Zm-2.69-.58A2.89,2.89,0,0,0,53,40.13a2.41,2.41,0,0,0,1-1.05V37.53H52.32a3,3,0,0,0-1.78.48,1.41,1.41,0,0,0-.67,1.18,1.27,1.27,0,0,0,.42,1A1.62,1.62,0,0,0,51.43,40.55Z"/><path class="b" d="M59.7,40.57a2.34,2.34,0,0,0,1.44-.46,1.53,1.53,0,0,0,.62-1.29h.73v0a2,2,0,0,1-.82,1.72,3.06,3.06,0,0,1-2,.69,2.79,2.79,0,0,1-2.33-1,4.1,4.1,0,0,1-.82-2.66v-.28a4.16,4.16,0,0,1,.82-2.66,2.82,2.82,0,0,1,2.33-1,2.92,2.92,0,0,1,2,.72,2.36,2.36,0,0,1,.79,1.89l0,0h-.73a1.8,1.8,0,0,0-.6-1.42,2.13,2.13,0,0,0-1.46-.53,2,2,0,0,0-1.76.85,3.77,3.77,0,0,0-.57,2.14v.29a3.81,3.81,0,0,0,.56,2.16A2,2,0,0,0,59.7,40.57Z"/><path class="b" d="M65.13,31.61h-.81V30.46h.81Zm0,9.52h-.81v-7.4h.81Z"/><path class="b" d="M70.17,41.27a3,3,0,0,1-2.31-1,3.77,3.77,0,0,1-.92-2.6v-.38a3.85,3.85,0,0,1,.92-2.63,2.81,2.81,0,0,1,2.21-1,2.74,2.74,0,0,1,2.14.87A3.28,3.28,0,0,1,73,36.75v.7H67.76v.2a3.19,3.19,0,0,0,.67,2.08,2.11,2.11,0,0,0,1.74.84,3.54,3.54,0,0,0,1.3-.21,2.47,2.47,0,0,0,.93-.61l.35.56a2.85,2.85,0,0,1-1.06.7A3.9,3.9,0,0,1,70.17,41.27Zm-.1-7a2,2,0,0,0-1.53.69,3,3,0,0,0-.72,1.74l0,0h4.33v-.2a2.35,2.35,0,0,0-.57-1.61A1.93,1.93,0,0,0,70.07,34.29Z"/><path class="b" d="M75.33,33.73,75.41,35a2.57,2.57,0,0,1,1-1.05,2.65,2.65,0,0,1,1.43-.38,2.28,2.28,0,0,1,1.83.74,3.46,3.46,0,0,1,.63,2.29v4.51h-.82V36.62a2.66,2.66,0,0,0-.48-1.8,1.71,1.71,0,0,0-1.35-.53,2.07,2.07,0,0,0-1.4.46A2.5,2.5,0,0,0,75.43,36v5.17h-.82v-7.4Z"/><path class="b" d="M83.68,31.84v1.89h1.63v.67H83.68v4.82a1.55,1.55,0,0,0,.27,1,.88.88,0,0,0,.7.3H85l.44-.06.12.61a2,2,0,0,1-.5.13,2.88,2.88,0,0,1-.59.05,1.52,1.52,0,0,1-1.21-.49,2.33,2.33,0,0,1-.43-1.56V34.4H81.58v-.67h1.28V31.84Z"/><path class="b" d="M89.82,41.27a3,3,0,0,1-2.3-1,3.73,3.73,0,0,1-.92-2.6v-.38a3.84,3.84,0,0,1,.91-2.63,2.82,2.82,0,0,1,2.21-1,2.72,2.72,0,0,1,2.14.87,3.28,3.28,0,0,1,.78,2.29v.7H87.42v.2a3.24,3.24,0,0,0,.66,2.08,2.11,2.11,0,0,0,1.74.84,3.63,3.63,0,0,0,1.31-.21,2.43,2.43,0,0,0,.92-.61l.35.56a2.85,2.85,0,0,1-1.06.7A3.87,3.87,0,0,1,89.82,41.27Zm-.1-7A2,2,0,0,0,88.2,35a3,3,0,0,0-.72,1.74v0h4.34v-.2a2.35,2.35,0,0,0-.57-1.61A2,2,0,0,0,89.72,34.29Z"/><path class="b" d="M98.69,39.24a1.17,1.17,0,0,0-.43-.9,3.51,3.51,0,0,0-1.54-.64,5.08,5.08,0,0,1-2-.76,1.55,1.55,0,0,1-.63-1.33,1.8,1.8,0,0,1,.71-1.43,2.91,2.91,0,0,1,1.89-.59,3,3,0,0,1,2,.62,1.86,1.86,0,0,1,.69,1.55v0h-.76a1.36,1.36,0,0,0-.52-1.06,2.43,2.43,0,0,0-2.73-.06,1.14,1.14,0,0,0-.45.9,1.05,1.05,0,0,0,.39.84,3.83,3.83,0,0,0,1.54.59,5,5,0,0,1,2,.8,1.68,1.68,0,0,1,.65,1.39,1.79,1.79,0,0,1-.75,1.5,3.76,3.76,0,0,1-4.09-.07,1.82,1.82,0,0,1-.73-1.53v0h.76a1.34,1.34,0,0,0,.65,1.15,2.72,2.72,0,0,0,1.42.36,2.36,2.36,0,0,0,1.41-.38A1.17,1.17,0,0,0,98.69,39.24Z"/></svg>