<svg xmlns="http://www.w3.org/2000/svg" viewBox="0 0 140.87 63.27"><defs><style>.a{fill:#fff;stroke:#80b2c0;stroke-miterlimit:10;}.b{fill:#004e63;}</style></defs><path class="a" d="M140.37,56.69H80.44l-10,6-10-6H9.91L.5,47.28V.5H131l9.4,9.41Z"/><path class="b" d="M62.55,19.65H61.19v4.68h-.82v-10h.82V19h1.36l3.91-4.58h.93v0l-4.11,4.86,4.4,5v0h-1Z"/><path class="b" d="M71.69,24.47a3,3,0,0,1-2.31-1,3.77,3.77,0,0,1-.92-2.6v-.38a3.84,3.84,0,0,1,.91-2.63,2.84,2.84,0,0,1,2.21-1.05,2.72,2.72,0,0,1,2.14.87A3.28,3.28,0,0,1,74.5,20v.7H69.28v.2a3.24,3.24,0,0,0,.66,2.08,2.14,2.14,0,0,0,1.75.84,3.58,3.58,0,0,0,1.3-.21,2.55,2.55,0,0,0,.93-.61l.34.56a2.81,2.81,0,0,1-1.05.7A4.13,4.13,0,0,1,71.69,24.47Zm-.11-7a2,2,0,0,0-1.52.69,3,3,0,0,0-.72,1.74l0,0h4.33v-.2a2.35,2.35,0,0,0-.57-1.61A2,2,0,0,0,71.58,17.49Z"/><path class="b" d="M78.13,22.32l.26.89h0l2.24-6.28h.92l-3.22,8.58a4.3,4.3,0,0,1-.74,1.28,1.68,1.68,0,0,1-1.34.52l-.35,0-.3-.06.09-.68.27,0h.26a1,1,0,0,0,.85-.38,3.09,3.09,0,0,0,.55-1l.39-1-2.86-7.3h.91Z"/><path class="b" d="M43.06,40.43H48v.7H42.24v-10h.82Z"/><path class="b" d="M50.31,31.61H49.5V30.46h.81Zm0,9.52H49.5v-7.4h.81Z"/><path class="b" d="M53.86,31.84v1.89h1.63v.67H53.86v4.82a1.62,1.62,0,0,0,.26,1,.89.89,0,0,0,.7.3h.39l.43-.06.13.61a2.14,2.14,0,0,1-.5.13,3,3,0,0,1-.59.05,1.52,1.52,0,0,1-1.21-.49A2.32,2.32,0,0,1,53,39.22V34.4H51.75v-.67H53V31.84Z"/><path class="b" d="M60,41.27a3,3,0,0,1-2.31-1,3.77,3.77,0,0,1-.92-2.6v-.38a3.84,3.84,0,0,1,.91-2.63,2.84,2.84,0,0,1,2.21-1,2.71,2.71,0,0,1,2.14.87,3.28,3.28,0,0,1,.78,2.29v.7H57.59v.2a3.24,3.24,0,0,0,.66,2.08,2.14,2.14,0,0,0,1.75.84,3.58,3.58,0,0,0,1.3-.21,2.55,2.55,0,0,0,.93-.61l.34.56a2.81,2.81,0,0,1-1,.7A4.1,4.1,0,0,1,60,41.27Zm-.11-7a2,2,0,0,0-1.52.69,3,3,0,0,0-.72,1.74l0,0H62v-.2a2.35,2.35,0,0,0-.57-1.61A2,2,0,0,0,59.89,34.29Z"/><path class="b" d="M67.84,34.43l-.61,0a1.85,1.85,0,0,0-1.27.44A2.37,2.37,0,0,0,65.25,36v5.11h-.82v-7.4h.72l.1,1.23V35A2.71,2.71,0,0,1,66.12,34a2.11,2.11,0,0,1,1.28-.39,1.39,1.39,0,0,1,.3,0l.25.05Z"/><path class="b" d="M73.88,41.13c0-.25-.09-.47-.11-.65a3.43,3.43,0,0,1,0-.56,3.31,3.31,0,0,1-1.09,1,3.17,3.17,0,0,1-1.54.38,2.34,2.34,0,0,1-1.68-.57,2,2,0,0,1-.6-1.54,1.9,1.9,0,0,1,.89-1.64,4.11,4.11,0,0,1,2.39-.62h1.63V36a1.58,1.58,0,0,0-.51-1.25,2.07,2.07,0,0,0-1.42-.45,2.24,2.24,0,0,0-1.42.43,1.29,1.29,0,0,0-.57,1.05h-.75v0a1.75,1.75,0,0,1,.75-1.48,3.08,3.08,0,0,1,2-.66,3,3,0,0,1,2,.63A2.17,2.17,0,0,1,74.54,36v3.64a6.33,6.33,0,0,0,0,.76,4.73,4.73,0,0,0,.15.73Zm-2.69-.58a2.89,2.89,0,0,0,1.56-.42,2.41,2.41,0,0,0,1-1.05V37.53H72.08A3,3,0,0,0,70.3,38a1.4,1.4,0,0,0-.66,1.18,1.26,1.26,0,0,0,.41,1A1.65,1.65,0,0,0,71.19,40.55Z"/><path class="b" d="M78,31.84v1.89h1.63v.67H78v4.82a1.62,1.62,0,0,0,.26,1,.89.89,0,0,0,.7.3h.39l.43-.06.13.61a2.14,2.14,0,0,1-.5.13,2.94,2.94,0,0,1-.59.05,1.52,1.52,0,0,1-1.21-.49,2.32,2.32,0,0,1-.44-1.56V34.4H75.9v-.67h1.28V31.84Z"/><path class="b" d="M86.22,39.92a2.64,2.64,0,0,1-1,1,2.79,2.79,0,0,1-1.42.35A2.25,2.25,0,0,1,82,40.48,3.81,3.81,0,0,1,81.35,38V33.73h.82V38A3.16,3.16,0,0,0,82.63,40a1.55,1.55,0,0,0,1.31.59,2.45,2.45,0,0,0,1.48-.41A2.17,2.17,0,0,0,86.19,39V33.73H87v7.4h-.72Z"/><path class="b" d="M92.57,34.43l-.61,0a1.87,1.87,0,0,0-1.27.44A2.35,2.35,0,0,0,90,36v5.11h-.82v-7.4h.71L90,35V35A2.6,2.6,0,0,1,90.85,34a2.13,2.13,0,0,1,1.28-.39,1.55,1.55,0,0,1,.31,0,1.11,1.11,0,0,1,.24.05Z"/><path class="b" d="M96.58,41.27a3,3,0,0,1-2.31-1,3.77,3.77,0,0,1-.92-2.6v-.38a3.84,3.84,0,0,1,.91-2.63,2.84,2.84,0,0,1,2.21-1,2.72,2.72,0,0,1,2.14.87,3.28,3.28,0,0,1,.78,2.29v.7H94.17v.2a3.24,3.24,0,0,0,.66,2.08,2.14,2.14,0,0,0,1.75.84,3.58,3.58,0,0,0,1.3-.21,2.55,2.55,0,0,0,.93-.61l.34.56a2.81,2.81,0,0,1-1.05.7A4.13,4.13,0,0,1,96.58,41.27Zm-.11-7A2,2,0,0,0,95,35a3,3,0,0,0-.72,1.74l0,0h4.33v-.2A2.35,2.35,0,0,0,98,34.94,2,2,0,0,0,96.47,34.29Z"/></svg>