<svg xmlns="http://www.w3.org/2000/svg" viewBox="0 0 140.87 63.27"><defs><style>.a{fill:#fff;fill-opacity:0.9;stroke:#80b2c0;stroke-miterlimit:10;}.b{fill:#004e63;}</style></defs><path class="a" d="M140.37,56.69H80.44l-10,6-10-6H9.91L.5,47.28V.5H131l9.4,9.41Z"/><path class="b" d="M39.58,21.88A1.63,1.63,0,0,0,39,20.56a5.53,5.53,0,0,0-2.12-.92,6.57,6.57,0,0,1-2.47-1.06,2.14,2.14,0,0,1-.84-1.77A2.23,2.23,0,0,1,34.48,15a3.87,3.87,0,0,1,2.42-.72,3.56,3.56,0,0,1,2.48.86,2.59,2.59,0,0,1,.91,2.08l0,0h-.75a2.13,2.13,0,0,0-.71-1.64,2.72,2.72,0,0,0-1.91-.64,3,3,0,0,0-1.87.53,1.64,1.64,0,0,0-.68,1.33A1.55,1.55,0,0,0,35,18a5.84,5.84,0,0,0,2.15.89A6.17,6.17,0,0,1,39.56,20a2.28,2.28,0,0,1,.84,1.84,2.22,2.22,0,0,1-1,1.9,4.14,4.14,0,0,1-2.49.7,4.54,4.54,0,0,1-2.6-.75,2.37,2.37,0,0,1-1.07-2.18v0H34a1.89,1.89,0,0,0,.87,1.71,3.63,3.63,0,0,0,2,.56,3.18,3.18,0,0,0,1.91-.52A1.59,1.59,0,0,0,39.58,21.88Z"/><path class="b" d="M47.65,21.55H43.09l-1,2.78h-.84l3.78-10h.77l3.75,10h-.85Zm-4.29-.73h4l-2-5.39h0Z"/><path class="b" d="M51.84,19.83v4.5H51V14.38H54.4a3.76,3.76,0,0,1,2.45.7,2.5,2.5,0,0,1,.85,2,2.38,2.38,0,0,1-.45,1.42,2.65,2.65,0,0,1-1.3.91,2.17,2.17,0,0,1,1.33.83,2.62,2.62,0,0,1,.41,1.5v.94a3,3,0,0,0,.11.83,1.21,1.21,0,0,0,.36.6v.17h-.83a1.42,1.42,0,0,1-.36-.69,4.08,4.08,0,0,1-.1-.93V21.8a1.84,1.84,0,0,0-.59-1.44,2.42,2.42,0,0,0-1.65-.53Zm0-.7h2.45a3,3,0,0,0,2-.54,1.83,1.83,0,0,0,.62-1.47,1.86,1.86,0,0,0-.62-1.51,2.75,2.75,0,0,0-1.86-.53H51.84Z"/><path class="b" d="M66,21.88a1.65,1.65,0,0,0-.6-1.32,5.68,5.68,0,0,0-2.12-.92,6.63,6.63,0,0,1-2.48-1.06,2.14,2.14,0,0,1-.84-1.77A2.26,2.26,0,0,1,60.85,15a3.87,3.87,0,0,1,2.42-.72,3.56,3.56,0,0,1,2.48.86,2.63,2.63,0,0,1,.92,2.08l0,0h-.76a2.13,2.13,0,0,0-.7-1.64,2.75,2.75,0,0,0-1.92-.64,3,3,0,0,0-1.87.53,1.63,1.63,0,0,0-.67,1.33A1.52,1.52,0,0,0,61.35,18a5.78,5.78,0,0,0,2.14.89A6.29,6.29,0,0,1,65.94,20a2.28,2.28,0,0,1,.84,1.84,2.23,2.23,0,0,1-1,1.9,4.13,4.13,0,0,1-2.48.7,4.52,4.52,0,0,1-2.6-.75,2.37,2.37,0,0,1-1.08-2.18v0h.75a1.89,1.89,0,0,0,.87,1.71,3.64,3.64,0,0,0,2,.56,3.22,3.22,0,0,0,1.91-.52A1.6,1.6,0,0,0,66,21.88Z"/><path class="b" d="M71,20.44H67.7v-.7H71Z"/><path class="b" d="M79.54,21.22v0a3.43,3.43,0,0,1-1.06,2.35,3.61,3.61,0,0,1-2.51.86,3.34,3.34,0,0,1-2.68-1.2,4.62,4.62,0,0,1-1-3.11V18.54a4.63,4.63,0,0,1,1-3.1A3.32,3.32,0,0,1,76,14.23a3.61,3.61,0,0,1,2.51.84,3.42,3.42,0,0,1,1.06,2.37v0h-.77a3.09,3.09,0,0,0-.85-1.9A2.74,2.74,0,0,0,76,14.93a2.52,2.52,0,0,0-2.1,1,4.06,4.06,0,0,0-.79,2.59v1.63a4.1,4.1,0,0,0,.79,2.61,2.54,2.54,0,0,0,2.1,1,2.74,2.74,0,0,0,1.94-.64,2.92,2.92,0,0,0,.85-1.91Z"/><path class="b" d="M81,20.52a4,4,0,0,1,.9-2.68,3.21,3.21,0,0,1,4.75,0,4,4,0,0,1,.9,2.68v.23a4,4,0,0,1-.9,2.68,3,3,0,0,1-2.37,1,3,3,0,0,1-2.38-1,4,4,0,0,1-.9-2.68Zm.82.22a3.53,3.53,0,0,0,.65,2.16,2.31,2.31,0,0,0,3.61,0,3.53,3.53,0,0,0,.65-2.16v-.22a3.54,3.54,0,0,0-.65-2.15,2.29,2.29,0,0,0-3.61,0,3.54,3.54,0,0,0-.65,2.15Z"/><path class="b" d="M92.25,22.65l.19.66h0l.19-.66,3-8.28h.89l-3.71,10h-.77l-3.72-10h.89Z"/><path class="b" d="M100.14,20.44H96.86v-.7h3.28Z"/><path class="b" d="M107.65,24.33h-6.18v-.64L104.73,20A9.43,9.43,0,0,0,106,18.29a2.71,2.71,0,0,0,.38-1.31,2.09,2.09,0,0,0-.53-1.49,1.9,1.9,0,0,0-1.48-.56,2.24,2.24,0,0,0-1.72.63,2.37,2.37,0,0,0-.59,1.68h-.76v0a2.82,2.82,0,0,1,.81-2.11,3,3,0,0,1,2.27-.86,2.86,2.86,0,0,1,2.06.74,2.58,2.58,0,0,1,.77,2,3.23,3.23,0,0,1-.51,1.67,14.6,14.6,0,0,1-1.44,1.88l-2.74,3.1v0h5.13Z"/><path class="b" d="M23.35,39.45l.19.66h.05l.19-.66,3-8.28h.89L24,41.13h-.77l-3.72-10h.89Z"/><path class="b" d="M33.33,41.13a5.43,5.43,0,0,1-.12-.65,5.25,5.25,0,0,1,0-.56,3.35,3.35,0,0,1-1.1,1,3.14,3.14,0,0,1-1.54.38,2.32,2.32,0,0,1-1.67-.57,2,2,0,0,1-.6-1.54,1.89,1.89,0,0,1,.88-1.64,4.13,4.13,0,0,1,2.39-.62h1.64V36a1.58,1.58,0,0,0-.51-1.25,2.1,2.1,0,0,0-1.43-.45,2.26,2.26,0,0,0-1.42.43,1.3,1.3,0,0,0-.56,1.05h-.75l0,0a1.78,1.78,0,0,1,.76-1.48,3.08,3.08,0,0,1,2-.66,2.92,2.92,0,0,1,2,.63A2.18,2.18,0,0,1,34,36v3.64a6.34,6.34,0,0,0,0,.76,4.73,4.73,0,0,0,.15.73Zm-2.69-.58a2.89,2.89,0,0,0,1.56-.42,2.46,2.46,0,0,0,1-1.05V37.53H31.53a3,3,0,0,0-1.78.48,1.39,1.39,0,0,0-.67,1.18,1.27,1.27,0,0,0,.42,1A1.62,1.62,0,0,0,30.64,40.55Z"/><path class="b" d="M39.58,34.43l-.61,0a1.85,1.85,0,0,0-1.27.44A2.37,2.37,0,0,0,37,36v5.11h-.82v-7.4h.72L37,35V35A2.69,2.69,0,0,1,37.85,34a2.14,2.14,0,0,1,1.29-.39l.3,0a1.11,1.11,0,0,1,.24.05Z"/><path class="b" d="M41.85,31.61H41V30.46h.81Zm0,9.52H41v-7.4h.81Z"/><path class="b" d="M48.8,41.13a5.43,5.43,0,0,1-.12-.65,5.25,5.25,0,0,1,0-.56,3.35,3.35,0,0,1-1.1,1,3.14,3.14,0,0,1-1.54.38,2.32,2.32,0,0,1-1.67-.57,2,2,0,0,1-.6-1.54,1.89,1.89,0,0,1,.88-1.64A4.13,4.13,0,0,1,47,36.9h1.64V36a1.58,1.58,0,0,0-.51-1.25,2.1,2.1,0,0,0-1.43-.45,2.26,2.26,0,0,0-1.42.43,1.3,1.3,0,0,0-.56,1.05H44l0,0a1.78,1.78,0,0,1,.76-1.48,3.08,3.08,0,0,1,2-.66,2.92,2.92,0,0,1,2,.63A2.18,2.18,0,0,1,49.46,36v3.64a6.34,6.34,0,0,0,0,.76,4.73,4.73,0,0,0,.15.73Zm-2.69-.58a2.89,2.89,0,0,0,1.56-.42,2.46,2.46,0,0,0,1-1.05V37.53H47a3,3,0,0,0-1.78.48,1.39,1.39,0,0,0-.67,1.18,1.27,1.27,0,0,0,.42,1A1.62,1.62,0,0,0,46.11,40.55Z"/><path class="b" d="M52.37,33.73,52.44,35a2.58,2.58,0,0,1,2.39-1.43,2.25,2.25,0,0,1,1.83.74,3.46,3.46,0,0,1,.63,2.29v4.51h-.82V36.62a2.66,2.66,0,0,0-.47-1.8,1.74,1.74,0,0,0-1.35-.53,2.1,2.1,0,0,0-1.41.46A2.5,2.5,0,0,0,52.46,36v5.17h-.82v-7.4Z"/><path class="b" d="M60.72,31.84v1.89h1.63v.67H60.72v4.82a1.62,1.62,0,0,0,.26,1,.89.89,0,0,0,.7.3h.39l.43-.06.13.61a2.14,2.14,0,0,1-.5.13,4,4,0,0,1-.59.05,1.52,1.52,0,0,1-1.21-.49,2.32,2.32,0,0,1-.44-1.56V34.4H58.61v-.67h1.28V31.84Z"/><path class="b" d="M68.51,39.24a1.17,1.17,0,0,0-.43-.9,3.46,3.46,0,0,0-1.54-.64,5.15,5.15,0,0,1-2-.76A1.56,1.56,0,0,1,64,35.61a1.77,1.77,0,0,1,.72-1.43,2.87,2.87,0,0,1,1.89-.59,3,3,0,0,1,2,.62,1.86,1.86,0,0,1,.7,1.55l0,0h-.76A1.38,1.38,0,0,0,68,34.74a2.06,2.06,0,0,0-1.39-.45,2,2,0,0,0-1.35.39,1.13,1.13,0,0,0-.44.9,1,1,0,0,0,.38.84,3.71,3.71,0,0,0,1.54.58,5.13,5.13,0,0,1,2,.81,1.66,1.66,0,0,1,.66,1.39,1.79,1.79,0,0,1-.75,1.5,3.78,3.78,0,0,1-4.1-.07,1.85,1.85,0,0,1-.73-1.53l0,0h.75a1.34,1.34,0,0,0,.65,1.15,2.76,2.76,0,0,0,1.43.36,2.26,2.26,0,0,0,1.4-.39A1.14,1.14,0,0,0,68.51,39.24Z"/><path class="b" d="M76.19,35.69a6.42,6.42,0,0,1-.82-1.24,2.69,2.69,0,0,1-.27-1.16,2.2,2.2,0,0,1,.61-1.67A2.31,2.31,0,0,1,77.38,31a2.17,2.17,0,0,1,1.56.55A2,2,0,0,1,79.21,34a4.39,4.39,0,0,1-.89.89l-1.09.83,2.82,3.29A3.92,3.92,0,0,0,80.57,38a4.45,4.45,0,0,0,.18-1.28h.76a5.17,5.17,0,0,1-.25,1.61,4.62,4.62,0,0,1-.72,1.33l1.26,1.47v0h-.94l-.83-1a4.17,4.17,0,0,1-1.28.82,3.84,3.84,0,0,1-1.49.29A3.3,3.3,0,0,1,75,40.54a2.49,2.49,0,0,1-.83-1.95,2.39,2.39,0,0,1,.49-1.48,6.53,6.53,0,0,1,1.44-1.34Zm1.06,4.88a3.28,3.28,0,0,0,1.23-.24,3.46,3.46,0,0,0,1.08-.7l-2.83-3.29-.06-.06,0-.05-.32.24a4.12,4.12,0,0,0-1.06,1.16,2.13,2.13,0,0,0-.27,1A1.89,1.89,0,0,0,75.56,40,2.34,2.34,0,0,0,77.25,40.57Zm-1.33-7.3a2.22,2.22,0,0,0,.22.94,4.41,4.41,0,0,0,.66,1l1.21-.9a2,2,0,0,0,.56-.64,1.65,1.65,0,0,0,.17-.72,1.22,1.22,0,0,0-.36-.9,1.38,1.38,0,0,0-1-.35,1.35,1.35,0,0,0-1.08.44A1.67,1.67,0,0,0,75.92,33.27Z"/><path class="b" d="M87.32,33.73,87.4,35a2.56,2.56,0,0,1,2.36-1.36,2.41,2.41,0,0,1,1.42.41A2.25,2.25,0,0,1,92,35.25,2.84,2.84,0,0,1,93,34a2.47,2.47,0,0,1,1.5-.45,2.25,2.25,0,0,1,1.83.79,3.78,3.78,0,0,1,.64,2.43v4.32H96.1V36.79a3,3,0,0,0-.48-1.93,1.66,1.66,0,0,0-1.34-.57,1.82,1.82,0,0,0-1.47.6,2.82,2.82,0,0,0-.65,1.52.76.76,0,0,0,0,.14v4.58h-.83V36.79a3,3,0,0,0-.49-1.92,1.64,1.64,0,0,0-1.34-.58,2.06,2.06,0,0,0-1.38.44,2.38,2.38,0,0,0-.71,1.19v5.21h-.83v-7.4Z"/><path class="b" d="M104.61,38.35h-4.56l-1,2.78h-.85l3.78-10h.77l3.76,10h-.85Zm-4.28-.73h4l-2-5.39h0Z"/><path class="b" d="M113.74,37.63a4.28,4.28,0,0,1-.75,2.65,2.45,2.45,0,0,1-2.07,1,2.92,2.92,0,0,1-1.4-.32,2.52,2.52,0,0,1-1-.94l-.09,1.12h-.7V30.46h.82v4.43a2.52,2.52,0,0,1,2.31-1.3A2.4,2.4,0,0,1,113,34.66a4.81,4.81,0,0,1,.75,2.83Zm-.82-.14a4.39,4.39,0,0,0-.55-2.31,1.78,1.78,0,0,0-1.62-.89,2.09,2.09,0,0,0-1.38.43,2.47,2.47,0,0,0-.77,1.09v3.36a2.2,2.2,0,0,0,2.16,1.4,1.82,1.82,0,0,0,1.62-.79,3.78,3.78,0,0,0,.54-2.15Z"/><path class="b" d="M120,39.24a1.21,1.21,0,0,0-.43-.9A3.57,3.57,0,0,0,118,37.7a5,5,0,0,1-2-.76,1.56,1.56,0,0,1-.63-1.33,1.76,1.76,0,0,1,.71-1.43,2.91,2.91,0,0,1,1.89-.59,3,3,0,0,1,2,.62,1.86,1.86,0,0,1,.7,1.55v0H120a1.36,1.36,0,0,0-.52-1.06,2,2,0,0,0-1.39-.45,2,2,0,0,0-1.34.39,1.14,1.14,0,0,0-.45.9,1.05,1.05,0,0,0,.39.84,3.65,3.65,0,0,0,1.54.58,5,5,0,0,1,2,.81,1.66,1.66,0,0,1,.66,1.39,1.79,1.79,0,0,1-.75,1.5,3.76,3.76,0,0,1-4.09-.07,1.8,1.8,0,0,1-.73-1.53v0H116a1.35,1.35,0,0,0,.66,1.15,2.72,2.72,0,0,0,1.42.36,2.26,2.26,0,0,0,1.4-.39A1.12,1.12,0,0,0,120,39.24Z"/></svg>