<svg xmlns="http://www.w3.org/2000/svg" viewBox="0 0 852.74 68.46"><defs><style>.a{fill:#80b2c0;fill-opacity:0.9;stroke:#80b2c0;stroke-miterlimit:10;stroke-width:1.3px;}.b{fill:#fff;}</style></defs><path class="a" d="M852.09,67.8H12.93L.65,60.48V.65H839.81L852.09,8Z"/><path class="b" d="M199.06,43.85a4.48,4.48,0,0,0-1.66-3.6,15.08,15.08,0,0,0-5.75-2.48,18.28,18.28,0,0,1-6.71-2.89,5.77,5.77,0,0,1-2.29-4.81A6.08,6.08,0,0,1,185.2,25a10.58,10.58,0,0,1,6.56-1.94,9.64,9.64,0,0,1,6.74,2.32A7.13,7.13,0,0,1,201,31.06l-.06.11h-2A5.77,5.77,0,0,0,197,26.71,7.47,7.47,0,0,0,191.76,25a8,8,0,0,0-5.07,1.45,4.41,4.41,0,0,0-1.83,3.6,4.19,4.19,0,0,0,1.69,3.4,15.71,15.71,0,0,0,5.83,2.4,17.08,17.08,0,0,1,6.63,3,6.19,6.19,0,0,1,2.27,5A6,6,0,0,1,198.64,49a11.25,11.25,0,0,1-6.75,1.91,12.38,12.38,0,0,1-7.06-2,6.49,6.49,0,0,1-2.92-5.93l0-.11h2a5.13,5.13,0,0,0,2.36,4.66A10,10,0,0,0,191.89,49a8.76,8.76,0,0,0,5.19-1.41A4.36,4.36,0,0,0,199.06,43.85Z"/><path class="b" d="M221,43H208.57l-2.78,7.53h-2.3l10.26-27h2.1l10.18,27h-2.3Zm-11.63-2h10.91l-5.38-14.62h-.12Z"/><path class="b" d="M232.32,38.27V50.48h-2.2v-27h9.14q4.35,0,6.66,1.91a6.74,6.74,0,0,1,2.32,5.55A6.33,6.33,0,0,1,247,34.79a7,7,0,0,1-3.51,2.48,5.84,5.84,0,0,1,3.61,2.26,7,7,0,0,1,1.11,4.07v2.54a8.21,8.21,0,0,0,.29,2.26,3.54,3.54,0,0,0,1,1.64v.44h-2.27a3.7,3.7,0,0,1-1-1.87A10.91,10.91,0,0,1,246,46.1V43.64a5,5,0,0,0-1.6-3.93,6.49,6.49,0,0,0-4.49-1.44Zm0-1.89H239q3.64,0,5.34-1.47a5,5,0,0,0,1.69-4,5.09,5.09,0,0,0-1.68-4.11,7.64,7.64,0,0,0-5.08-1.44h-6.94Z"/><path class="b" d="M270.64,43.85a4.5,4.5,0,0,0-1.65-3.6,15.15,15.15,0,0,0-5.75-2.48,18.26,18.26,0,0,1-6.72-2.89,5.79,5.79,0,0,1-2.28-4.81A6.08,6.08,0,0,1,256.79,25a10.56,10.56,0,0,1,6.56-1.94,9.61,9.61,0,0,1,6.73,2.32,7.1,7.1,0,0,1,2.49,5.66l-.06.11h-2a5.77,5.77,0,0,0-1.92-4.46,7.45,7.45,0,0,0-5.2-1.74,8,8,0,0,0-5.08,1.45,4.4,4.4,0,0,0-1.82,3.6,4.21,4.21,0,0,0,1.68,3.4,15.78,15.78,0,0,0,5.83,2.4,16.94,16.94,0,0,1,6.63,3,6.17,6.17,0,0,1,2.28,5A6,6,0,0,1,270.22,49a11.24,11.24,0,0,1-6.74,1.91,12.36,12.36,0,0,1-7.06-2,6.47,6.47,0,0,1-2.92-5.93l0-.11h2a5.15,5.15,0,0,0,2.36,4.66A10,10,0,0,0,263.48,49a8.7,8.7,0,0,0,5.18-1.41A4.36,4.36,0,0,0,270.64,43.85Z"/><path class="b" d="M284.28,39.92h-8.89V38h8.89Z"/><path class="b" d="M307.51,42l0,.11a9.44,9.44,0,0,1-2.9,6.39,9.64,9.64,0,0,1-6.81,2.33,9.07,9.07,0,0,1-7.27-3.25,12.58,12.58,0,0,1-2.77-8.44v-4.4a12.61,12.61,0,0,1,2.77-8.43,9.06,9.06,0,0,1,7.27-3.27,9.8,9.8,0,0,1,6.83,2.28,9.37,9.37,0,0,1,2.88,6.42l0,.11h-2.08a8.42,8.42,0,0,0-2.31-5.14A7.32,7.32,0,0,0,297.84,25a6.86,6.86,0,0,0-5.69,2.74,11.07,11.07,0,0,0-2.14,7v4.43a11.11,11.11,0,0,0,2.14,7.07A6.86,6.86,0,0,0,297.84,49a7.48,7.48,0,0,0,5.29-1.74,8.22,8.22,0,0,0,2.3-5.2Z"/><path class="b" d="M311.4,40.15a10.77,10.77,0,0,1,2.44-7.28,8.73,8.73,0,0,1,12.89,0,10.82,10.82,0,0,1,2.43,7.28v.61A10.81,10.81,0,0,1,326.74,48a8.77,8.77,0,0,1-12.9,0,10.72,10.72,0,0,1-2.44-7.28Zm2.23.6a9.61,9.61,0,0,0,1.76,5.86,6.24,6.24,0,0,0,9.79,0A9.55,9.55,0,0,0,327,40.75v-.61a9.43,9.43,0,0,0-1.78-5.82,6.2,6.2,0,0,0-9.78,0,9.55,9.55,0,0,0-1.76,5.82Z"/><path class="b" d="M342,45.92l.54,1.8h.11l.54-1.8,8.11-22.45h2.41l-10.08,27h-2.09l-10.08-27h2.41Z"/><path class="b" d="M363.41,39.92h-8.88V38h8.88Z"/><path class="b" d="M383.8,50.48H367V48.76l8.85-10a27.13,27.13,0,0,0,3.46-4.63,7.47,7.47,0,0,0,1-3.57,5.68,5.68,0,0,0-1.42-4.05,5.22,5.22,0,0,0-4-1.52,6.08,6.08,0,0,0-4.68,1.71,6.41,6.41,0,0,0-1.59,4.56h-2.06l0-.11a7.58,7.58,0,0,1,2.19-5.72,8.26,8.26,0,0,1,6.18-2.33,7.73,7.73,0,0,1,5.58,2,7.09,7.09,0,0,1,2.1,5.38A8.66,8.66,0,0,1,381.2,35a37.4,37.4,0,0,1-3.91,5.11l-7.44,8.41,0,.09H383.8Z"/><path class="b" d="M405.92,45.92l.54,1.8h.11l.54-1.8,8.11-22.45h2.41l-10.08,27h-2.09l-10.08-27h2.42Z"/><path class="b" d="M433,50.48c-.15-.68-.25-1.27-.31-1.76a10.8,10.8,0,0,1-.1-1.5,8.78,8.78,0,0,1-3,2.61,8.38,8.38,0,0,1-4.17,1,6.34,6.34,0,0,1-4.56-1.56,5.52,5.52,0,0,1-1.62-4.17,5.19,5.19,0,0,1,2.4-4.46A11.25,11.25,0,0,1,428.17,39h4.43V36.53a4.29,4.29,0,0,0-1.38-3.38,5.66,5.66,0,0,0-3.87-1.22,6.17,6.17,0,0,0-3.85,1.17A3.49,3.49,0,0,0,422,36l-2,0,0-.11a4.81,4.81,0,0,1,2.05-4A8.42,8.42,0,0,1,427.45,30a8.1,8.1,0,0,1,5.34,1.69,6,6,0,0,1,2,4.85v9.87a17.41,17.41,0,0,0,.12,2.06,13.62,13.62,0,0,0,.4,2Zm-7.29-1.58A7.91,7.91,0,0,0,430,47.78a6.66,6.66,0,0,0,2.65-2.86v-4.2h-4.47A8.15,8.15,0,0,0,423.3,42a3.82,3.82,0,0,0-1.81,3.2,3.42,3.42,0,0,0,1.12,2.66A4.42,4.42,0,0,0,425.72,48.9Z"/><path class="b" d="M450,32.32l-1.65-.11a5,5,0,0,0-3.44,1.17A6.49,6.49,0,0,0,443,36.62V50.48h-2.23V30.41h1.95l.28,3.34V34a7.23,7.23,0,0,1,2.34-2.9,5.85,5.85,0,0,1,3.48-1,5.57,5.57,0,0,1,.83.07,5.72,5.72,0,0,1,.66.14Z"/><path class="b" d="M456.15,24.65h-2.21V21.54h2.21Zm0,25.83h-2.21V30.41h2.21Z"/><path class="b" d="M475,50.48c-.15-.68-.25-1.27-.31-1.76a10.8,10.8,0,0,1-.1-1.5,8.78,8.78,0,0,1-3,2.61,8.38,8.38,0,0,1-4.17,1,6.32,6.32,0,0,1-4.56-1.56,5.52,5.52,0,0,1-1.62-4.17,5.19,5.19,0,0,1,2.4-4.46A11.25,11.25,0,0,1,470.16,39h4.43V36.53a4.29,4.29,0,0,0-1.38-3.38,5.66,5.66,0,0,0-3.87-1.22,6.17,6.17,0,0,0-3.85,1.17A3.49,3.49,0,0,0,464,36l-2,0,0-.11a4.81,4.81,0,0,1,2.05-4,8.41,8.41,0,0,1,5.5-1.78,8.11,8.11,0,0,1,5.35,1.69,6,6,0,0,1,2,4.85v9.87a17.41,17.41,0,0,0,.12,2.06,12.41,12.41,0,0,0,.4,2Zm-7.29-1.58a7.93,7.93,0,0,0,4.23-1.12,6.66,6.66,0,0,0,2.65-2.86v-4.2h-4.47A8.13,8.13,0,0,0,465.29,42a3.82,3.82,0,0,0-1.81,3.2,3.42,3.42,0,0,0,1.12,2.66A4.41,4.41,0,0,0,467.71,48.9Z"/><path class="b" d="M484.69,30.41l.2,3.5a7.1,7.1,0,0,1,2.61-2.86,7.2,7.2,0,0,1,3.88-1,6.2,6.2,0,0,1,5,2c1.14,1.33,1.7,3.4,1.7,6.22V50.48h-2.22V38.25q0-3.47-1.29-4.89a4.66,4.66,0,0,0-3.67-1.43,5.76,5.76,0,0,0-3.81,1.23A6.92,6.92,0,0,0,485,36.44v14h-2.23V30.41Z"/><path class="b" d="M507.36,25.27v5.14h4.42v1.81h-4.42V45.31a4.31,4.31,0,0,0,.71,2.79,2.4,2.4,0,0,0,1.91.82c.36,0,.7,0,1,0s.74-.09,1.18-.16l.34,1.65a6,6,0,0,1-1.36.37,9.47,9.47,0,0,1-1.59.13,4.18,4.18,0,0,1-3.3-1.33,6.36,6.36,0,0,1-1.17-4.23V32.22h-3.47V30.41h3.47V25.27Z"/><path class="b" d="M528.51,45.37a3.2,3.2,0,0,0-1.16-2.46,9.3,9.3,0,0,0-4.18-1.72,14.17,14.17,0,0,1-5.32-2.06,4.26,4.26,0,0,1-1.71-3.62,4.83,4.83,0,0,1,1.94-3.89A7.83,7.83,0,0,1,523.21,30a8.08,8.08,0,0,1,5.38,1.68,5,5,0,0,1,1.89,4.21l0,.11h-2.06a3.71,3.71,0,0,0-1.4-2.88,5.55,5.55,0,0,0-3.77-1.22,5.46,5.46,0,0,0-3.65,1,3.15,3.15,0,0,0-1.22,2.45,2.91,2.91,0,0,0,1,2.29,10.26,10.26,0,0,0,4.19,1.58,13.88,13.88,0,0,1,5.36,2.19,4.52,4.52,0,0,1,1.78,3.77,4.9,4.9,0,0,1-2,4.07,10.23,10.23,0,0,1-11.12-.19,4.93,4.93,0,0,1-2-4.16l0-.11h2A3.63,3.63,0,0,0,519.45,48a7.42,7.42,0,0,0,3.87,1,6.12,6.12,0,0,0,3.8-1.06A3.1,3.1,0,0,0,528.51,45.37Z"/><path class="b" d="M549.35,35.73a17.6,17.6,0,0,1-2.23-3.39,7.28,7.28,0,0,1-.72-3.14,6,6,0,0,1,1.65-4.53,6.26,6.26,0,0,1,4.53-1.59,5.89,5.89,0,0,1,4.24,1.5,5,5,0,0,1,1.57,3.78,4.89,4.89,0,0,1-.84,2.88,11.18,11.18,0,0,1-2.41,2.41l-2.95,2.27,7.64,8.92a10.45,10.45,0,0,0,1.41-3,11.64,11.64,0,0,0,.5-3.49h2a13.53,13.53,0,0,1-.68,4.37,11.92,11.92,0,0,1-2,3.61l3.43,4,0,.09H562l-2.26-2.61a11.82,11.82,0,0,1-3.45,2.22,10.44,10.44,0,0,1-4,.78,9,9,0,0,1-6.14-2,6.69,6.69,0,0,1-2.26-5.29,6.55,6.55,0,0,1,1.34-4,18.77,18.77,0,0,1,3.89-3.65ZM552.24,49a8.75,8.75,0,0,0,3.33-.66,9.53,9.53,0,0,0,2.93-1.9l-7.68-9-.16-.15a.41.41,0,0,1-.1-.14l-.88.67A11.14,11.14,0,0,0,546.8,41a5.69,5.69,0,0,0-.73,2.6,5.13,5.13,0,0,0,1.58,3.84A6.33,6.33,0,0,0,552.24,49Zm-3.61-19.82a6.19,6.19,0,0,0,.58,2.54A12.9,12.9,0,0,0,551,34.51l3.29-2.45a5.43,5.43,0,0,0,1.53-1.75,4.3,4.3,0,0,0,.45-1.95,3.29,3.29,0,0,0-1-2.43,3.72,3.72,0,0,0-2.72-1,3.61,3.61,0,0,0-2.92,1.21A4.39,4.39,0,0,0,548.63,29.16Z"/><path class="b" d="M579.58,30.41l.2,3.32A7,7,0,0,1,582.35,31a7.34,7.34,0,0,1,3.83-1A6.45,6.45,0,0,1,590,31.15a6.15,6.15,0,0,1,2.22,3.39,7.64,7.64,0,0,1,2.59-3.31,6.85,6.85,0,0,1,4.09-1.2,6,6,0,0,1,5,2.14c1.16,1.42,1.75,3.62,1.75,6.6V50.48H603.4V38.71q0-3.72-1.31-5.25a4.54,4.54,0,0,0-3.64-1.53,5,5,0,0,0-4,1.61,7.69,7.69,0,0,0-1.75,4.15c0,.09,0,.21,0,.37s0,.28,0,.36V50.48h-2.24V38.71c0-2.43-.45-4.16-1.33-5.21a4.52,4.52,0,0,0-3.65-1.57,5.53,5.53,0,0,0-3.74,1.2,6.36,6.36,0,0,0-1.93,3.22V50.48h-2.25V30.41Z"/><path class="b" d="M626.5,43H614.12l-2.78,7.53H609l10.26-27h2.1l10.18,27h-2.3Zm-11.63-2h10.91L620.4,26.34h-.12Z"/><path class="b" d="M651.29,41a11.58,11.58,0,0,1-2,7.19,6.67,6.67,0,0,1-5.62,2.68,7.75,7.75,0,0,1-3.81-.88,6.88,6.88,0,0,1-2.58-2.53l-.24,3h-1.91V21.54h2.23v12A7.28,7.28,0,0,1,639.88,31a7.19,7.19,0,0,1,3.71-.92,6.56,6.56,0,0,1,5.66,2.89,13.07,13.07,0,0,1,2,7.69ZM649,40.61a11.83,11.83,0,0,0-1.48-6.27,4.84,4.84,0,0,0-4.4-2.41,5.76,5.76,0,0,0-3.74,1.15,6.86,6.86,0,0,0-2.1,3v9.11A6,6,0,0,0,643.2,49a5,5,0,0,0,4.38-2.16A10.28,10.28,0,0,0,649,41Z"/><path class="b" d="M668.29,45.37a3.23,3.23,0,0,0-1.16-2.46,9.35,9.35,0,0,0-4.19-1.72,14,14,0,0,1-5.31-2.06,4.25,4.25,0,0,1-1.72-3.62,4.83,4.83,0,0,1,1.94-3.89A7.83,7.83,0,0,1,663,30a8.06,8.06,0,0,1,5.38,1.68,5,5,0,0,1,1.89,4.21l0,.11h-2.06a3.72,3.72,0,0,0-1.41-2.88A5.55,5.55,0,0,0,663,31.93a5.46,5.46,0,0,0-3.65,1,3.14,3.14,0,0,0-1.21,2.45,2.91,2.91,0,0,0,1,2.29,10.14,10.14,0,0,0,4.18,1.58,13.81,13.81,0,0,1,5.36,2.19,4.52,4.52,0,0,1,1.78,3.77,4.87,4.87,0,0,1-2,4.07,10.21,10.21,0,0,1-11.11-.19,5,5,0,0,1-2-4.16l0-.11h2A3.67,3.67,0,0,0,659.22,48a7.47,7.47,0,0,0,3.87,1,6.09,6.09,0,0,0,3.8-1.06A3.11,3.11,0,0,0,668.29,45.37Z"/></svg>