<svg xmlns="http://www.w3.org/2000/svg" viewBox="0 0 140.87 63.27"><defs><style>.a{fill:#fff;fill-opacity:0.9;stroke:#80b2c0;stroke-miterlimit:10;}.b{fill:#004e63;}</style></defs><path class="a" d="M140.37,56.69H80.44l-10,6-10-6H9.91L.5,47.28V.5H131l9.4,9.41Z"/><path class="b" d="M36.36,19.51H31.57v4.12h5.49v.7H30.75v-10H37v.7H31.57v3.74h4.79Z"/><path class="b" d="M38.14,20.69a4.81,4.81,0,0,1,.75-2.83A2.42,2.42,0,0,1,41,16.79a2.61,2.61,0,0,1,1.34.33,2.7,2.7,0,0,1,.94.93V13.66h.82V24.33h-.73l-.07-1.08a2.44,2.44,0,0,1-1,.91,2.79,2.79,0,0,1-1.36.31,2.46,2.46,0,0,1-2.08-1,4.28,4.28,0,0,1-.75-2.65Zm.82.15A3.77,3.77,0,0,0,39.5,23a1.82,1.82,0,0,0,1.62.79,2.17,2.17,0,0,0,2.14-1.34V18.94a2.61,2.61,0,0,0-.79-1.05,2.16,2.16,0,0,0-1.34-.4,1.78,1.78,0,0,0-1.62.89A4.29,4.29,0,0,0,39,20.69Z"/><path class="b" d="M51.1,23.12a2.54,2.54,0,0,1-1,1,2.82,2.82,0,0,1-1.42.35,2.28,2.28,0,0,1-1.84-.79,3.81,3.81,0,0,1-.66-2.46V16.93h.82v4.31a3.22,3.22,0,0,0,.46,2,1.58,1.58,0,0,0,1.31.58,2.43,2.43,0,0,0,1.48-.41,2.24,2.24,0,0,0,.78-1.15V16.93h.82v7.4h-.73Z"/><path class="b" d="M56.79,23.77a2.36,2.36,0,0,0,1.44-.46A1.53,1.53,0,0,0,58.85,22h.72l0,.05a2,2,0,0,1-.82,1.71,3.06,3.06,0,0,1-2,.69,2.8,2.8,0,0,1-2.33-1,4.15,4.15,0,0,1-.83-2.67v-.28a4.16,4.16,0,0,1,.83-2.66,2.81,2.81,0,0,1,2.32-1,2.93,2.93,0,0,1,2,.72,2.32,2.32,0,0,1,.78,1.89v0h-.73a1.8,1.8,0,0,0-.6-1.42,2.16,2.16,0,0,0-1.47-.53,2,2,0,0,0-1.76.85,3.77,3.77,0,0,0-.57,2.14v.29A3.82,3.82,0,0,0,55,22.93,2,2,0,0,0,56.79,23.77Z"/><path class="b" d="M66,24.33a5.43,5.43,0,0,1-.12-.65,5.12,5.12,0,0,1,0-.56,3.35,3.35,0,0,1-1.1,1,3.14,3.14,0,0,1-1.54.38,2.3,2.3,0,0,1-1.67-.57,2,2,0,0,1-.6-1.54,1.9,1.9,0,0,1,.88-1.64,4.13,4.13,0,0,1,2.39-.62h1.64v-.91a1.58,1.58,0,0,0-.51-1.25,2.1,2.1,0,0,0-1.43-.45,2.33,2.33,0,0,0-1.42.43A1.31,1.31,0,0,0,61.92,19h-.75l0,0a1.79,1.79,0,0,1,.76-1.48,3.06,3.06,0,0,1,2-.66,2.92,2.92,0,0,1,2,.63,2.18,2.18,0,0,1,.75,1.78v3.64a6.34,6.34,0,0,0,0,.76,4.73,4.73,0,0,0,.15.73Zm-2.69-.58a2.89,2.89,0,0,0,1.56-.42,2.47,2.47,0,0,0,1-1V20.73H64.19a3,3,0,0,0-1.78.48,1.39,1.39,0,0,0-.67,1.18,1.3,1.3,0,0,0,.41,1A1.66,1.66,0,0,0,63.3,23.75Z"/><path class="b" d="M70.11,15v1.89h1.63v.67H70.11v4.82a1.55,1.55,0,0,0,.27,1,.88.88,0,0,0,.7.3h.39l.43-.06.12.61a1.9,1.9,0,0,1-.5.13,2.84,2.84,0,0,1-.58,0A1.54,1.54,0,0,1,69.72,24a2.33,2.33,0,0,1-.43-1.56V17.6H68v-.67h1.28V15Z"/><path class="b" d="M76.25,24.47a3,3,0,0,1-2.3-1,3.73,3.73,0,0,1-.92-2.6v-.38a3.84,3.84,0,0,1,.91-2.63,2.84,2.84,0,0,1,2.21-1.05,2.72,2.72,0,0,1,2.14.87A3.28,3.28,0,0,1,79.07,20v.7H73.85v.2a3.29,3.29,0,0,0,.66,2.09,2.12,2.12,0,0,0,1.74.83,3.63,3.63,0,0,0,1.31-.21,2.43,2.43,0,0,0,.92-.61l.35.56a2.85,2.85,0,0,1-1.06.7A3.87,3.87,0,0,1,76.25,24.47Zm-.1-7a2,2,0,0,0-1.52.69,3,3,0,0,0-.72,1.74v0h4.34v-.2a2.35,2.35,0,0,0-.57-1.61A2,2,0,0,0,76.15,17.49Z"/><path class="b" d="M87.25,19.9l3.09-5.53h1l-3.63,6.32v3.64h-.82V20.64l-3.6-6.27h1Z"/><path class="b" d="M91.7,20.52a4,4,0,0,1,.89-2.68,3.21,3.21,0,0,1,4.75,0,4,4,0,0,1,.9,2.68v.23a4,4,0,0,1-.89,2.68,3.24,3.24,0,0,1-4.76,0,4,4,0,0,1-.89-2.68Zm.82.22a3.47,3.47,0,0,0,.65,2.16,2.3,2.3,0,0,0,3.6,0,3.47,3.47,0,0,0,.65-2.16v-.22a3.48,3.48,0,0,0-.65-2.15A2.15,2.15,0,0,0,95,17.49a2.12,2.12,0,0,0-1.79.88,3.48,3.48,0,0,0-.65,2.15Z"/><path class="b" d="M104.79,23.12a2.54,2.54,0,0,1-1,1,2.83,2.83,0,0,1-1.43.35,2.27,2.27,0,0,1-1.83-.79,3.81,3.81,0,0,1-.66-2.46V16.93h.82v4.31a3.22,3.22,0,0,0,.46,2,1.58,1.58,0,0,0,1.31.58,2.45,2.45,0,0,0,1.48-.41,2.24,2.24,0,0,0,.78-1.15V16.93h.82v7.4h-.73Z"/><path class="b" d="M111.14,17.64l-.6-.05a1.85,1.85,0,0,0-1.27.44,2.41,2.41,0,0,0-.71,1.19v5.11h-.82v-7.4h.72l.1,1.23v.08a2.6,2.6,0,0,1,.86-1.06,2.14,2.14,0,0,1,1.29-.39,1.53,1.53,0,0,1,.3,0,1.11,1.11,0,0,1,.24.05Z"/><path class="b" d="M47.19,37v4.14h-.81v-10h3.43a3.43,3.43,0,0,1,2.42.8,3,3,0,0,1,0,4.23,3.43,3.43,0,0,1-2.42.79Zm0-.7h2.62a2.45,2.45,0,0,0,1.84-.62,2.12,2.12,0,0,0,.62-1.58,2.21,2.21,0,0,0-.61-1.59,2.48,2.48,0,0,0-1.85-.63H47.19Z"/><path class="b" d="M59.42,41.13c-.05-.25-.09-.47-.11-.65a3.43,3.43,0,0,1,0-.56,3.31,3.31,0,0,1-1.09,1,3.17,3.17,0,0,1-1.54.38A2.34,2.34,0,0,1,55,40.7a2,2,0,0,1-.6-1.54,1.91,1.91,0,0,1,.89-1.64,4.13,4.13,0,0,1,2.39-.62h1.63V36a1.58,1.58,0,0,0-.51-1.25,2.07,2.07,0,0,0-1.42-.45,2.33,2.33,0,0,0-1.42.43,1.28,1.28,0,0,0-.56,1.06H54.6v0a1.77,1.77,0,0,1,.76-1.48,3.05,3.05,0,0,1,2-.66,3,3,0,0,1,2,.63A2.18,2.18,0,0,1,60.09,36v3.64a6.34,6.34,0,0,0,0,.76,4.73,4.73,0,0,0,.15.73Zm-2.68-.58a2.94,2.94,0,0,0,1.56-.42,2.38,2.38,0,0,0,1-1.05V37.53H57.63a3,3,0,0,0-1.79.48,1.4,1.4,0,0,0-.66,1.18,1.3,1.3,0,0,0,.41,1A1.66,1.66,0,0,0,56.74,40.55Z"/><path class="b" d="M63.55,31.84v1.89h1.63v.67H63.55v4.82a1.55,1.55,0,0,0,.27,1,.87.87,0,0,0,.7.3h.38l.44-.06.12.61a2,2,0,0,1-.5.13,2.94,2.94,0,0,1-.59.05,1.52,1.52,0,0,1-1.21-.49,2.33,2.33,0,0,1-.43-1.56V34.4H61.45v-.67h1.28V31.84Z"/><path class="b" d="M67.83,31.61H67V30.46h.81Zm0,9.52H67v-7.4h.81Z"/><path class="b" d="M72.87,41.27a3,3,0,0,1-2.31-1,3.77,3.77,0,0,1-.92-2.6v-.38a3.85,3.85,0,0,1,.92-2.63,2.81,2.81,0,0,1,2.21-1,2.74,2.74,0,0,1,2.14.87,3.28,3.28,0,0,1,.78,2.29v.7H70.46v.2a3.19,3.19,0,0,0,.67,2.08,2.11,2.11,0,0,0,1.74.84,3.63,3.63,0,0,0,1.31-.21,2.51,2.51,0,0,0,.92-.61l.35.56a2.85,2.85,0,0,1-1.06.7A3.9,3.9,0,0,1,72.87,41.27Zm-.1-7a2,2,0,0,0-1.53.69,2.91,2.91,0,0,0-.71,1.74v0h4.33v-.2a2.39,2.39,0,0,0-.56-1.61A2,2,0,0,0,72.77,34.29Z"/><path class="b" d="M78,33.73,78.11,35a2.57,2.57,0,0,1,1-1.05,2.65,2.65,0,0,1,1.43-.38,2.28,2.28,0,0,1,1.83.74A3.46,3.46,0,0,1,83,36.62v4.51h-.82V36.62a2.66,2.66,0,0,0-.48-1.8,1.71,1.71,0,0,0-1.35-.53,2.07,2.07,0,0,0-1.4.46A2.5,2.5,0,0,0,78.13,36v5.17h-.82v-7.4Z"/><path class="b" d="M86.38,31.84v1.89H88v.67H86.38v4.82a1.55,1.55,0,0,0,.27,1,.88.88,0,0,0,.7.3h.38l.44-.06.12.61a1.9,1.9,0,0,1-.5.13,2.88,2.88,0,0,1-.59.05A1.53,1.53,0,0,1,86,40.78a2.33,2.33,0,0,1-.43-1.56V34.4H84.28v-.67h1.28V31.84Z"/><path class="b" d="M94.18,39.24a1.21,1.21,0,0,0-.43-.9,3.51,3.51,0,0,0-1.54-.64,5,5,0,0,1-2-.76,1.55,1.55,0,0,1-.63-1.33,1.8,1.8,0,0,1,.71-1.43,2.91,2.91,0,0,1,1.89-.59,3,3,0,0,1,2,.62,1.86,1.86,0,0,1,.7,1.55v0h-.76a1.36,1.36,0,0,0-.52-1.06,2.43,2.43,0,0,0-2.73-.06,1.14,1.14,0,0,0-.45.9,1.05,1.05,0,0,0,.39.84,3.77,3.77,0,0,0,1.54.59,4.87,4.87,0,0,1,2,.8A1.66,1.66,0,0,1,95,39.2a1.79,1.79,0,0,1-.75,1.5,3.76,3.76,0,0,1-4.09-.07,1.8,1.8,0,0,1-.73-1.53v0h.76a1.34,1.34,0,0,0,.65,1.15,2.72,2.72,0,0,0,1.42.36,2.31,2.31,0,0,0,1.4-.38A1.15,1.15,0,0,0,94.18,39.24Z"/></svg>