<svg xmlns="http://www.w3.org/2000/svg" viewBox="0 0 140.87 63.27"><defs><style>.a{fill:#fff;stroke:#80b2c0;stroke-miterlimit:10;}.b{fill:#004e63;}</style></defs><path class="a" d="M140.37,56.69H80.44l-10,6-10-6H9.91L.5,47.28V.5H131l9.4,9.41Z"/><path class="b" d="M41.72,24.33v-10h2.9a4,4,0,0,1,3,1.22,4.29,4.29,0,0,1,1.19,3.13V20a4.29,4.29,0,0,1-1.19,3.13,4.07,4.07,0,0,1-3,1.21Zm.82-9.26v8.56h2.08a3.17,3.17,0,0,0,2.43-1A3.73,3.73,0,0,0,48,20v-1.3a3.66,3.66,0,0,0-1-2.59,3.18,3.18,0,0,0-2.42-1Z"/><path class="b" d="M55.53,23.12a2.54,2.54,0,0,1-1,1,2.83,2.83,0,0,1-1.43.35,2.26,2.26,0,0,1-1.83-.79,3.81,3.81,0,0,1-.66-2.46V16.93h.82v4.31a3.16,3.16,0,0,0,.46,1.94,1.56,1.56,0,0,0,1.31.59,2.45,2.45,0,0,0,1.48-.41,2.24,2.24,0,0,0,.78-1.15V16.93h.82v7.4H55.6Z"/><path class="b" d="M63.16,24.33c0-.25-.09-.47-.11-.65a3.43,3.43,0,0,1,0-.56,3.31,3.31,0,0,1-1.09,1,3.17,3.17,0,0,1-1.54.38,2.34,2.34,0,0,1-1.68-.57,2,2,0,0,1-.6-1.54A1.91,1.91,0,0,1,59,20.72a4.13,4.13,0,0,1,2.39-.62H63v-.91a1.58,1.58,0,0,0-.51-1.25,2.07,2.07,0,0,0-1.42-.45,2.24,2.24,0,0,0-1.42.43,1.29,1.29,0,0,0-.57,1h-.75v0a1.75,1.75,0,0,1,.75-1.48,3.1,3.1,0,0,1,2-.66,3,3,0,0,1,2,.63,2.18,2.18,0,0,1,.75,1.78v3.64a6.34,6.34,0,0,0,0,.76,4.73,4.73,0,0,0,.15.73Zm-2.68-.58A2.88,2.88,0,0,0,62,23.33a2.35,2.35,0,0,0,1-1V20.73H61.36a3,3,0,0,0-1.78.48,1.4,1.4,0,0,0-.66,1.18,1.26,1.26,0,0,0,.41,1A1.66,1.66,0,0,0,60.48,23.75Z"/><path class="b" d="M66.92,24.33h-.81V13.66h.81Z"/><path class="b" d="M73.28,16.93l.07,1.22a2.56,2.56,0,0,1,2.36-1.36,2.38,2.38,0,0,1,1.42.41A2.31,2.31,0,0,1,78,18.46a2.79,2.79,0,0,1,1-1.22,2.5,2.5,0,0,1,1.51-.45,2.21,2.21,0,0,1,1.82.79A3.79,3.79,0,0,1,82.88,20v4.32h-.82V20a2.93,2.93,0,0,0-.49-1.93,1.65,1.65,0,0,0-1.34-.57,1.85,1.85,0,0,0-1.47.6,2.81,2.81,0,0,0-.64,1.52v.14a.72.72,0,0,1,0,.13v4.45H77.3V20a3,3,0,0,0-.49-1.92,1.65,1.65,0,0,0-1.34-.58,2.06,2.06,0,0,0-1.38.44,2.31,2.31,0,0,0-.71,1.19v5.21h-.83v-7.4Z"/><path class="b" d="M90.57,21.55H86l-1,2.78h-.85l3.79-10h.77l3.75,10h-.85Zm-4.29-.73h4l-2-5.39h0Z"/><path class="b" d="M99.7,20.83A4.28,4.28,0,0,1,99,23.48a2.45,2.45,0,0,1-2.07,1,2.92,2.92,0,0,1-1.4-.32,2.45,2.45,0,0,1-1-.94l-.09,1.12h-.71V13.66h.82v4.43a2.73,2.73,0,0,1,1-1,2.69,2.69,0,0,1,1.36-.34A2.42,2.42,0,0,1,99,17.86a4.81,4.81,0,0,1,.75,2.83Zm-.83-.14a4.39,4.39,0,0,0-.54-2.31,1.8,1.8,0,0,0-1.62-.89,2.09,2.09,0,0,0-1.38.43A2.49,2.49,0,0,0,94.55,19v3.36a2.37,2.37,0,0,0,.82,1,2.24,2.24,0,0,0,1.35.38A1.81,1.81,0,0,0,98.33,23a3.77,3.77,0,0,0,.54-2.14Z"/><path class="b" d="M53.34,31.87H49.91v9.26h-.82V31.87H45.67v-.7h7.67Z"/><path class="b" d="M55.55,35a2.73,2.73,0,0,1,1-1A2.8,2.8,0,0,1,58,33.59a2.23,2.23,0,0,1,1.79.73,3.36,3.36,0,0,1,.63,2.25v4.56h-.82V36.55a2.5,2.5,0,0,0-.48-1.73,1.66,1.66,0,0,0-1.3-.53,2.26,2.26,0,0,0-1.41.44,2.59,2.59,0,0,0-.83,1.18v5.22h-.82V30.46h.82Z"/><path class="b" d="M65.3,41.27a3,3,0,0,1-2.31-1,3.77,3.77,0,0,1-.92-2.6v-.38A3.89,3.89,0,0,1,63,34.64a2.84,2.84,0,0,1,2.22-1,2.74,2.74,0,0,1,2.14.87,3.27,3.27,0,0,1,.77,2.29v.7H62.89v.2a3.19,3.19,0,0,0,.67,2.08,2.11,2.11,0,0,0,1.74.84,3.58,3.58,0,0,0,1.3-.21,2.55,2.55,0,0,0,.93-.61l.35.56a2.85,2.85,0,0,1-1.06.7A4.1,4.1,0,0,1,65.3,41.27Zm-.1-7a2,2,0,0,0-1.53.69A3,3,0,0,0,63,36.72l0,0H67.3v-.2a2.35,2.35,0,0,0-.57-1.61A1.93,1.93,0,0,0,65.2,34.29Z"/><path class="b" d="M73.14,34.43l-.61,0a1.87,1.87,0,0,0-1.27.44,2.35,2.35,0,0,0-.7,1.19v5.11h-.83v-7.4h.72L70.56,35V35A2.6,2.6,0,0,1,71.42,34a2.13,2.13,0,0,1,1.28-.39,1.55,1.55,0,0,1,.31,0l.24.05Z"/><path class="b" d="M79.18,41.13c-.05-.25-.09-.47-.11-.65a3.43,3.43,0,0,1,0-.56,3.31,3.31,0,0,1-1.09,1,3.17,3.17,0,0,1-1.54.38,2.34,2.34,0,0,1-1.68-.57,2,2,0,0,1-.6-1.54A1.9,1.9,0,0,1,75,37.52a4.13,4.13,0,0,1,2.39-.62H79V36a1.58,1.58,0,0,0-.51-1.25,2.07,2.07,0,0,0-1.42-.45,2.24,2.24,0,0,0-1.42.43,1.29,1.29,0,0,0-.57,1.05h-.75v0a1.75,1.75,0,0,1,.75-1.48,3.1,3.1,0,0,1,2-.66,3,3,0,0,1,2,.63A2.18,2.18,0,0,1,79.85,36v3.64a6.34,6.34,0,0,0,0,.76,4.73,4.73,0,0,0,.15.73Zm-2.68-.58a2.88,2.88,0,0,0,1.55-.42,2.35,2.35,0,0,0,1-1.05V37.53H77.38A3,3,0,0,0,75.6,38a1.4,1.4,0,0,0-.66,1.18,1.26,1.26,0,0,0,.41,1A1.66,1.66,0,0,0,76.5,40.55Z"/><path class="b" d="M88,37.63a4.28,4.28,0,0,1-.75,2.65,2.45,2.45,0,0,1-2.07,1A3.1,3.1,0,0,1,83.79,41a2.56,2.56,0,0,1-1-.84V44H82V33.73h.69l.1,1.15a2.65,2.65,0,0,1,1-1,2.73,2.73,0,0,1,1.37-.34,2.42,2.42,0,0,1,2.09,1.07A4.81,4.81,0,0,1,88,37.49Zm-.82-.15a4.28,4.28,0,0,0-.56-2.3A1.83,1.83,0,0,0,85,34.29a2.15,2.15,0,0,0-1.34.39,2.42,2.42,0,0,0-.78,1v3.56A2.19,2.19,0,0,0,85,40.57a1.86,1.86,0,0,0,1.63-.8,3.75,3.75,0,0,0,.56-2.15Z"/><path class="b" d="M91.84,39.12l.26.89h0l2.24-6.28h.91l-3.21,8.58a4.3,4.3,0,0,1-.74,1.28,1.7,1.7,0,0,1-1.34.52l-.35,0-.3-.06.09-.68.27,0H90a1,1,0,0,0,.85-.38,3.09,3.09,0,0,0,.55-1l.39-1-2.86-7.3h.91Z"/></svg>