<svg xmlns="http://www.w3.org/2000/svg" viewBox="0 0 140.87 63.27"><defs><style>.a{fill:#fff;fill-opacity:0.9;stroke:#80b2c0;stroke-miterlimit:10;}.b{fill:#004e63;}</style></defs><path class="a" d="M140.37,56.69H80.44l-10,6-10-6H9.91L.5,47.28V.5H131l9.4,9.41Z"/><path class="b" d="M34.58,20.19v4.14h-.81v-10H37.2a3.43,3.43,0,0,1,2.42.8,2.74,2.74,0,0,1,.86,2.11,2.76,2.76,0,0,1-.86,2.12,3.43,3.43,0,0,1-2.42.79Zm0-.7H37.2a2.49,2.49,0,0,0,1.85-.62,2.16,2.16,0,0,0,.61-1.58,2.21,2.21,0,0,0-.61-1.59,2.48,2.48,0,0,0-1.85-.63H34.58Z"/><path class="b" d="M46.81,24.33c-.05-.25-.09-.47-.11-.65a5.09,5.09,0,0,1,0-.56,3.22,3.22,0,0,1-1.09,1,3.17,3.17,0,0,1-1.54.38,2.34,2.34,0,0,1-1.68-.57,2,2,0,0,1-.59-1.54,1.9,1.9,0,0,1,.88-1.64A4.13,4.13,0,0,1,45,20.1h1.63v-.91a1.58,1.58,0,0,0-.51-1.25,2.07,2.07,0,0,0-1.42-.45,2.26,2.26,0,0,0-1.42.43,1.28,1.28,0,0,0-.56,1H42v0a1.77,1.77,0,0,1,.76-1.48,3.05,3.05,0,0,1,2-.66,2.93,2.93,0,0,1,2,.63,2.18,2.18,0,0,1,.75,1.78v3.64a6.34,6.34,0,0,0,0,.76,4.73,4.73,0,0,0,.15.73Zm-2.68-.58a2.92,2.92,0,0,0,1.56-.42,2.38,2.38,0,0,0,1-1V20.73H45a3,3,0,0,0-1.78.48,1.39,1.39,0,0,0-.67,1.18,1.3,1.3,0,0,0,.41,1A1.66,1.66,0,0,0,44.13,23.75Z"/><path class="b" d="M50.94,15v1.89h1.63v.67H50.94v4.82a1.55,1.55,0,0,0,.27,1,.88.88,0,0,0,.7.3h.38l.44-.06.12.61a2,2,0,0,1-.5.13,2.88,2.88,0,0,1-.59,0A1.52,1.52,0,0,1,50.55,24a2.33,2.33,0,0,1-.43-1.56V17.6H48.84v-.67h1.28V15Z"/><path class="b" d="M55.22,14.81h-.81V13.66h.81Zm0,9.52h-.81v-7.4h.81Z"/><path class="b" d="M60.26,24.47a3,3,0,0,1-2.31-1,3.77,3.77,0,0,1-.92-2.6v-.38A3.85,3.85,0,0,1,58,17.84a2.81,2.81,0,0,1,2.21-1.05,2.74,2.74,0,0,1,2.14.87A3.28,3.28,0,0,1,63.08,20v.7H57.85v.2a3.24,3.24,0,0,0,.67,2.08,2.11,2.11,0,0,0,1.74.84,3.63,3.63,0,0,0,1.31-.21,2.51,2.51,0,0,0,.92-.61l.35.56a2.85,2.85,0,0,1-1.06.7A4.1,4.1,0,0,1,60.26,24.47Zm-.1-7a2,2,0,0,0-1.53.69,2.91,2.91,0,0,0-.71,1.74v0h4.33v-.2a2.39,2.39,0,0,0-.56-1.61A2,2,0,0,0,60.16,17.49Z"/><path class="b" d="M65.42,16.93l.08,1.29a2.57,2.57,0,0,1,1-1,2.65,2.65,0,0,1,1.43-.38,2.28,2.28,0,0,1,1.83.74,3.46,3.46,0,0,1,.63,2.29v4.51h-.82V19.82a2.66,2.66,0,0,0-.48-1.8,1.71,1.71,0,0,0-1.35-.53,2.07,2.07,0,0,0-1.4.46,2.5,2.5,0,0,0-.78,1.21v5.17H64.7v-7.4Z"/><path class="b" d="M73.77,15v1.89H75.4v.67H73.77v4.82a1.55,1.55,0,0,0,.27,1,.88.88,0,0,0,.7.3h.39l.43-.06.12.61a1.9,1.9,0,0,1-.5.13,2.88,2.88,0,0,1-.59,0A1.53,1.53,0,0,1,73.38,24,2.33,2.33,0,0,1,73,22.42V17.6H71.67v-.67H73V15Z"/><path class="b" d="M81.23,16.93l.08,1.22a2.56,2.56,0,0,1,2.36-1.36,2.41,2.41,0,0,1,1.42.41,2.24,2.24,0,0,1,.81,1.26,2.81,2.81,0,0,1,1-1.22,2.47,2.47,0,0,1,1.5-.45,2.25,2.25,0,0,1,1.83.79A3.8,3.8,0,0,1,90.83,20v4.32H90V20a3,3,0,0,0-.48-1.93,1.66,1.66,0,0,0-1.34-.57,1.82,1.82,0,0,0-1.47.6,2.75,2.75,0,0,0-.65,1.52.76.76,0,0,0,0,.14v4.58h-.83V20a3,3,0,0,0-.49-1.92,1.64,1.64,0,0,0-1.34-.58,2.06,2.06,0,0,0-1.38.44,2.38,2.38,0,0,0-.71,1.19v5.21H80.5v-7.4Z"/><path class="b" d="M98.52,21.55H94l-1,2.78h-.85l3.78-10h.77l3.75,10h-.84Zm-4.28-.73h4l-2-5.39h0Z"/><path class="b" d="M107.65,20.83a4.28,4.28,0,0,1-.75,2.65,2.45,2.45,0,0,1-2.07,1,2.92,2.92,0,0,1-1.4-.32,2.52,2.52,0,0,1-1-.94l-.09,1.12h-.7V13.66h.82v4.43a2.52,2.52,0,0,1,2.31-1.3,2.4,2.4,0,0,1,2.08,1.07,4.81,4.81,0,0,1,.75,2.83Zm-.82-.14a4.39,4.39,0,0,0-.55-2.31,1.78,1.78,0,0,0-1.62-.89,2.09,2.09,0,0,0-1.38.43,2.47,2.47,0,0,0-.77,1.09v3.36a2.2,2.2,0,0,0,2.16,1.4,1.82,1.82,0,0,0,1.62-.79,3.77,3.77,0,0,0,.54-2.14Z"/><path class="b" d="M50.23,36.31H45.44v4.12h5.49v.7h-6.3v-10h6.26v.7H45.44v3.74h4.79Z"/><path class="b" d="M53.38,41.13h-.81V30.46h.81Z"/><path class="b" d="M56.56,31.61h-.81V30.46h.81Zm0,9.52h-.81v-7.4h.81Z"/><path class="b" d="M58.5,37.49a4.81,4.81,0,0,1,.76-2.83,2.43,2.43,0,0,1,2.1-1.07,2.57,2.57,0,0,1,1.36.35,2.76,2.76,0,0,1,1,1l.1-1.18h.69V41a3.17,3.17,0,0,1-.79,2.26,2.9,2.9,0,0,1-2.2.82A5.09,5.09,0,0,1,60.34,44a4.12,4.12,0,0,1-1.06-.35l.21-.69a4.32,4.32,0,0,0,2,.44,2,2,0,0,0,1.63-.62A2.55,2.55,0,0,0,63.64,41V40.1a2.63,2.63,0,0,1-1,.87,2.88,2.88,0,0,1-1.34.3,2.48,2.48,0,0,1-2.09-1,4.28,4.28,0,0,1-.76-2.65Zm.82.14a3.75,3.75,0,0,0,.55,2.14,1.84,1.84,0,0,0,1.63.8,2.28,2.28,0,0,0,1.32-.36,2.42,2.42,0,0,0,.82-1V35.77a2.55,2.55,0,0,0-.79-1.06,2,2,0,0,0-1.34-.42,1.81,1.81,0,0,0-1.63.89,4.34,4.34,0,0,0-.56,2.31Z"/><path class="b" d="M67.54,31.61h-.81V30.46h.81Zm0,9.52h-.81v-7.4h.81Z"/><path class="b" d="M75.76,37.63A4.28,4.28,0,0,1,75,40.28a2.45,2.45,0,0,1-2.07,1,2.92,2.92,0,0,1-1.4-.32,2.52,2.52,0,0,1-1-.94l-.09,1.12h-.7V30.46h.82v4.43a2.52,2.52,0,0,1,2.31-1.3A2.4,2.4,0,0,1,75,34.66a4.81,4.81,0,0,1,.75,2.83Zm-.82-.14a4.29,4.29,0,0,0-.55-2.31,1.78,1.78,0,0,0-1.62-.89,2.09,2.09,0,0,0-1.38.43,2.47,2.47,0,0,0-.77,1.09v3.36a2.2,2.2,0,0,0,2.16,1.4,1.82,1.82,0,0,0,1.62-.79,3.78,3.78,0,0,0,.54-2.15Z"/><path class="b" d="M78.51,31.61H77.7V30.46h.81Zm0,9.52H77.7v-7.4h.81Z"/><path class="b" d="M81.69,41.13h-.81V30.46h.81Z"/><path class="b" d="M84.87,31.61h-.81V30.46h.81Zm0,9.52h-.81v-7.4h.81Z"/><path class="b" d="M88.42,31.84v1.89H90v.67H88.42v4.82a1.62,1.62,0,0,0,.26,1,.89.89,0,0,0,.7.3h.39l.43-.06.12.61a1.93,1.93,0,0,1-.49.13,3,3,0,0,1-.59.05A1.54,1.54,0,0,1,88,40.78a2.33,2.33,0,0,1-.43-1.56V34.4H86.31v-.67h1.28V31.84Z"/><path class="b" d="M93.88,39.12l.26.89h0l2.24-6.28h.91l-3.21,8.58a4.12,4.12,0,0,1-.75,1.28,1.67,1.67,0,0,1-1.34.52l-.35,0-.3-.06.1-.68.26,0H92a1,1,0,0,0,.85-.38,3.29,3.29,0,0,0,.55-1l.39-1-2.86-7.3h.91Z"/></svg>