<svg xmlns="http://www.w3.org/2000/svg" viewBox="0 0 140.87 63.27"><defs><style>.a{fill:#fff;stroke:#80b2c0;stroke-miterlimit:10;}.b{fill:#004e63;}</style></defs><path class="a" d="M140.37,56.69H80.44l-10,6-10-6H9.91L.5,47.28V.5H131l9.4,9.41Z"/><path class="b" d="M21.4,19.83v4.5h-.81V14.38H24a3.76,3.76,0,0,1,2.45.7,2.5,2.5,0,0,1,.86,2,2.39,2.39,0,0,1-.46,1.42,2.67,2.67,0,0,1-1.29.91,2.2,2.2,0,0,1,1.33.83,2.62,2.62,0,0,1,.4,1.5v.94a3,3,0,0,0,.11.83,1.23,1.23,0,0,0,.37.6v.17h-.84a1.33,1.33,0,0,1-.35-.69,4.08,4.08,0,0,1-.11-.93V21.8a1.81,1.81,0,0,0-.59-1.44,2.39,2.39,0,0,0-1.65-.53Zm0-.7h2.46a2.94,2.94,0,0,0,2-.54,1.84,1.84,0,0,0,.63-1.47,1.89,1.89,0,0,0-.62-1.51A2.84,2.84,0,0,0,24,15.08H21.4Z"/><path class="b" d="M29.14,20.52a4,4,0,0,1,.9-2.68,2.94,2.94,0,0,1,2.37-1.05,3,3,0,0,1,2.38,1.05,4,4,0,0,1,.89,2.68v.23a4,4,0,0,1-.89,2.68,3.23,3.23,0,0,1-4.75,0,4,4,0,0,1-.9-2.68Zm.82.22a3.53,3.53,0,0,0,.65,2.16,2.31,2.31,0,0,0,3.61,0,3.53,3.53,0,0,0,.65-2.16v-.22a3.48,3.48,0,0,0-.66-2.15,2.15,2.15,0,0,0-1.8-.88,2.12,2.12,0,0,0-1.8.88A3.54,3.54,0,0,0,30,20.52Z"/><path class="b" d="M38.31,24.33h-.82V13.66h.82Z"/><path class="b" d="M43.35,24.47a3,3,0,0,1-2.31-1,3.77,3.77,0,0,1-.92-2.6v-.38A3.84,3.84,0,0,1,41,17.84a2.84,2.84,0,0,1,2.21-1.05,2.72,2.72,0,0,1,2.14.87A3.28,3.28,0,0,1,46.16,20v.7H40.94v.2a3.24,3.24,0,0,0,.66,2.08,2.11,2.11,0,0,0,1.75.84,3.62,3.62,0,0,0,1.3-.21,2.43,2.43,0,0,0,.92-.61l.35.56a2.89,2.89,0,0,1-1.05.7A4.13,4.13,0,0,1,43.35,24.47Zm-.11-7a2,2,0,0,0-1.52.69A3,3,0,0,0,41,19.92v0h4.34v-.2a2.35,2.35,0,0,0-.57-1.61A2,2,0,0,0,43.24,17.49Z"/><path class="b" d="M50.73,20.52a4,4,0,0,1,.89-2.68,3.21,3.21,0,0,1,4.75,0,4,4,0,0,1,.9,2.68v.23a4,4,0,0,1-.89,2.68,3.24,3.24,0,0,1-4.76,0,4,4,0,0,1-.89-2.68Zm.82.22a3.47,3.47,0,0,0,.65,2.16,2.3,2.3,0,0,0,3.6,0,3.47,3.47,0,0,0,.66-2.16v-.22a3.48,3.48,0,0,0-.66-2.15,2.15,2.15,0,0,0-1.8-.88,2.12,2.12,0,0,0-1.8.88,3.48,3.48,0,0,0-.65,2.15Z"/><path class="b" d="M59.57,24.33V17.6H58.35v-.67h1.22V15.85a2.46,2.46,0,0,1,.56-1.72,2,2,0,0,1,1.56-.61,3.55,3.55,0,0,1,.46,0l.47.1-.1.68-.34-.07-.41,0a1.27,1.27,0,0,0-1,.42,1.78,1.78,0,0,0-.36,1.19v1.08h1.77v.67H60.39v6.73Z"/><path class="b" d="M70,22.65l.19.66h0l.2-.66,3-8.28h.89l-3.71,10h-.78l-3.71-10H67Z"/><path class="b" d="M80,24.33a5.43,5.43,0,0,1-.12-.65,5.12,5.12,0,0,1,0-.56,3.35,3.35,0,0,1-1.1,1,3.14,3.14,0,0,1-1.54.38,2.34,2.34,0,0,1-1.68-.57,2.08,2.08,0,0,1-.59-1.54,1.9,1.9,0,0,1,.88-1.64,4.13,4.13,0,0,1,2.39-.62h1.64v-.91a1.58,1.58,0,0,0-.51-1.25,2.1,2.1,0,0,0-1.43-.45,2.26,2.26,0,0,0-1.42.43,1.3,1.3,0,0,0-.56,1h-.75l0,0a1.79,1.79,0,0,1,.76-1.48,3.05,3.05,0,0,1,2-.66,2.93,2.93,0,0,1,2,.63,2.18,2.18,0,0,1,.75,1.78v3.64a6.34,6.34,0,0,0,0,.76,4.73,4.73,0,0,0,.15.73Zm-2.69-.58a2.89,2.89,0,0,0,1.56-.42,2.47,2.47,0,0,0,1-1V20.73H78.19a3,3,0,0,0-1.78.48,1.39,1.39,0,0,0-.67,1.18,1.3,1.3,0,0,0,.41,1A1.66,1.66,0,0,0,77.3,23.75Z"/><path class="b" d="M85.57,23.77A2.36,2.36,0,0,0,87,23.31,1.53,1.53,0,0,0,87.63,22h.72l0,0a2,2,0,0,1-.82,1.72,3.06,3.06,0,0,1-2,.69,2.78,2.78,0,0,1-2.33-1,4.11,4.11,0,0,1-.83-2.66v-.28a4.16,4.16,0,0,1,.83-2.66,2.81,2.81,0,0,1,2.32-1,2.93,2.93,0,0,1,2,.72,2.32,2.32,0,0,1,.78,1.89v0h-.73A1.8,1.8,0,0,0,87,18a2.16,2.16,0,0,0-1.47-.53,2,2,0,0,0-1.76.85,3.77,3.77,0,0,0-.57,2.14v.29a3.82,3.82,0,0,0,.57,2.16A2,2,0,0,0,85.57,23.77Z"/><path class="b" d="M92.82,23.77a2.34,2.34,0,0,0,1.44-.46A1.53,1.53,0,0,0,94.88,22h.73v0a2,2,0,0,1-.82,1.72,3.06,3.06,0,0,1-2,.69,2.79,2.79,0,0,1-2.33-1,4.1,4.1,0,0,1-.82-2.66v-.28a4.16,4.16,0,0,1,.82-2.66,2.82,2.82,0,0,1,2.33-1,2.92,2.92,0,0,1,2,.72,2.36,2.36,0,0,1,.79,1.89l0,0h-.73a1.8,1.8,0,0,0-.6-1.42,2.13,2.13,0,0,0-1.46-.53,2,2,0,0,0-1.76.85,3.77,3.77,0,0,0-.57,2.14v.29a3.89,3.89,0,0,0,.56,2.16A2,2,0,0,0,92.82,23.77Z"/><path class="b" d="M98.25,14.81h-.81V13.66h.81Zm0,9.52h-.81v-7.4h.81Z"/><path class="b" d="M101.24,16.93l.07,1.29a2.58,2.58,0,0,1,2.4-1.43,2.28,2.28,0,0,1,1.83.74,3.46,3.46,0,0,1,.63,2.29v4.51h-.82V19.82a2.66,2.66,0,0,0-.48-1.8,1.73,1.73,0,0,0-1.35-.53,2.07,2.07,0,0,0-1.4.46,2.45,2.45,0,0,0-.79,1.21v5.17h-.82v-7.4Z"/><path class="b" d="M111.08,24.47a3,3,0,0,1-2.3-1,3.73,3.73,0,0,1-.92-2.6v-.38a3.84,3.84,0,0,1,.91-2.63A2.82,2.82,0,0,1,111,16.79a2.72,2.72,0,0,1,2.14.87A3.28,3.28,0,0,1,113.9,20v.7h-5.22v.2a3.24,3.24,0,0,0,.66,2.08,2.11,2.11,0,0,0,1.74.84,3.63,3.63,0,0,0,1.31-.21,2.43,2.43,0,0,0,.92-.61l.35.56a2.85,2.85,0,0,1-1.06.7A4.06,4.06,0,0,1,111.08,24.47Zm-.1-7a2,2,0,0,0-1.52.69,3,3,0,0,0-.72,1.74v0h4.34v-.2a2.35,2.35,0,0,0-.57-1.61A2,2,0,0,0,111,17.49Z"/><path class="b" d="M120,22.44a1.17,1.17,0,0,0-.43-.9A3.51,3.51,0,0,0,118,20.9a5.08,5.08,0,0,1-2-.76,1.56,1.56,0,0,1-.63-1.33,1.8,1.8,0,0,1,.71-1.43,2.91,2.91,0,0,1,1.89-.59,3,3,0,0,1,2,.62,1.86,1.86,0,0,1,.69,1.55v0h-.76a1.36,1.36,0,0,0-.52-1.06,2.43,2.43,0,0,0-2.73-.06,1.14,1.14,0,0,0-.45.9,1.05,1.05,0,0,0,.39.84,3.83,3.83,0,0,0,1.54.59,5,5,0,0,1,2,.8,1.68,1.68,0,0,1,.65,1.39,1.79,1.79,0,0,1-.75,1.5,3.76,3.76,0,0,1-4.09-.07,1.82,1.82,0,0,1-.73-1.53v0H116a1.34,1.34,0,0,0,.65,1.15,2.72,2.72,0,0,0,1.42.36,2.29,2.29,0,0,0,1.41-.39A1.14,1.14,0,0,0,120,22.44Z"/><path class="b" d="M44.9,41.13c0-.25-.09-.47-.11-.65a3.43,3.43,0,0,1,0-.56,3.31,3.31,0,0,1-1.09,1,3.17,3.17,0,0,1-1.54.38,2.34,2.34,0,0,1-1.68-.57,2,2,0,0,1-.59-1.54,1.89,1.89,0,0,1,.88-1.64,4.13,4.13,0,0,1,2.39-.62h1.63V36a1.58,1.58,0,0,0-.51-1.25,2.07,2.07,0,0,0-1.42-.45,2.26,2.26,0,0,0-1.42.43,1.28,1.28,0,0,0-.56,1.05h-.76v0a1.77,1.77,0,0,1,.76-1.48,3.05,3.05,0,0,1,2-.66,3,3,0,0,1,2,.63A2.18,2.18,0,0,1,45.57,36v3.64a6.34,6.34,0,0,0,0,.76,4.73,4.73,0,0,0,.15.73Zm-2.68-.58a2.92,2.92,0,0,0,1.56-.42,2.38,2.38,0,0,0,1-1.05V37.53H43.11a3,3,0,0,0-1.79.48,1.4,1.4,0,0,0-.66,1.18,1.3,1.3,0,0,0,.41,1A1.66,1.66,0,0,0,42.22,40.55Z"/><path class="b" d="M48.47,33.73,48.55,35a2.57,2.57,0,0,1,1-1.05,2.65,2.65,0,0,1,1.43-.38,2.28,2.28,0,0,1,1.83.74,3.46,3.46,0,0,1,.63,2.29v4.51h-.82V36.62a2.66,2.66,0,0,0-.48-1.8,1.7,1.7,0,0,0-1.34-.53,2.08,2.08,0,0,0-1.41.46A2.5,2.5,0,0,0,48.57,36v5.17h-.82v-7.4Z"/><path class="b" d="M55.22,37.49A4.81,4.81,0,0,1,56,34.66a2.41,2.41,0,0,1,2.09-1.07,2.64,2.64,0,0,1,1.34.33,2.78,2.78,0,0,1,.94.93V30.46h.81V41.13h-.72l-.07-1.08a2.51,2.51,0,0,1-1,.91,2.83,2.83,0,0,1-1.37.31,2.45,2.45,0,0,1-2.07-1,4.28,4.28,0,0,1-.75-2.65Zm.82.14a3.78,3.78,0,0,0,.54,2.15,1.8,1.8,0,0,0,1.61.79,2.17,2.17,0,0,0,2.15-1.34V35.74a2.7,2.7,0,0,0-.79-1.05,2.18,2.18,0,0,0-1.34-.4,1.79,1.79,0,0,0-1.63.89A4.39,4.39,0,0,0,56,37.49Z"/><path class="b" d="M67.43,33.73,67.5,35a2.69,2.69,0,0,1,1-1,2.64,2.64,0,0,1,1.41-.36,2.38,2.38,0,0,1,1.42.41,2.31,2.31,0,0,1,.82,1.26,2.79,2.79,0,0,1,1-1.22,2.5,2.5,0,0,1,1.51-.45,2.23,2.23,0,0,1,1.82.79A3.79,3.79,0,0,1,77,36.81v4.32h-.82V36.79a3,3,0,0,0-.49-1.93,1.66,1.66,0,0,0-1.34-.57,1.85,1.85,0,0,0-1.47.6,2.74,2.74,0,0,0-.64,1.52v4.72h-.82V36.79A3,3,0,0,0,71,34.87a1.66,1.66,0,0,0-1.34-.58,2.06,2.06,0,0,0-1.38.44,2.4,2.4,0,0,0-.72,1.19v5.21H66.7v-7.4Z"/><path class="b" d="M84.72,38.35H80.16l-1,2.78h-.85l3.78-10h.78l3.75,10h-.85Zm-4.29-.73h4l-2-5.39h0Z"/><path class="b" d="M93.85,37.63a4.28,4.28,0,0,1-.75,2.65,2.45,2.45,0,0,1-2.07,1A3,3,0,0,1,89.62,41a2.59,2.59,0,0,1-1-.94l-.08,1.12h-.71V30.46h.82v4.43a2.79,2.79,0,0,1,.94-1A2.73,2.73,0,0,1,91,33.59a2.42,2.42,0,0,1,2.09,1.07,4.81,4.81,0,0,1,.75,2.83ZM93,37.49a4.39,4.39,0,0,0-.54-2.31,1.81,1.81,0,0,0-1.63-.89,2.08,2.08,0,0,0-1.37.43,2.49,2.49,0,0,0-.78,1.09v3.36a2.3,2.3,0,0,0,.82,1,2.24,2.24,0,0,0,1.35.38,1.82,1.82,0,0,0,1.61-.79A3.78,3.78,0,0,0,93,37.63Z"/><path class="b" d="M100.11,39.24a1.17,1.17,0,0,0-.43-.9,3.46,3.46,0,0,0-1.54-.64,5.08,5.08,0,0,1-2-.76,1.56,1.56,0,0,1-.63-1.33,1.78,1.78,0,0,1,.72-1.43,2.87,2.87,0,0,1,1.89-.59,3,3,0,0,1,2,.62,1.86,1.86,0,0,1,.7,1.55l0,0h-.76a1.38,1.38,0,0,0-.51-1.06,2.06,2.06,0,0,0-1.39-.45,2,2,0,0,0-1.35.39,1.14,1.14,0,0,0-.45.9,1.05,1.05,0,0,0,.39.84,3.83,3.83,0,0,0,1.54.59,5,5,0,0,1,2,.8,1.65,1.65,0,0,1,.65,1.39,1.79,1.79,0,0,1-.74,1.5,3.78,3.78,0,0,1-4.1-.07,1.85,1.85,0,0,1-.73-1.53l0,0h.75a1.34,1.34,0,0,0,.65,1.15,2.76,2.76,0,0,0,1.43.36,2.26,2.26,0,0,0,1.4-.39A1.14,1.14,0,0,0,100.11,39.24Z"/></svg>