<?xml version="1.0" encoding="utf-8"?>
<!-- Generator: Adobe Illustrator 25.1.0, SVG Export Plug-In . SVG Version: 6.00 Build 0)  -->
<svg version="1.1" id="Layer_1" xmlns="http://www.w3.org/2000/svg" xmlns:xlink="http://www.w3.org/1999/xlink" x="0px" y="0px"
	 viewBox="0 0 14 12.9" style="enable-background:new 0 0 14 12.9;" xml:space="preserve">
<style type="text/css">
	.st0{fill:#004E63;}
</style>
<path class="st0" d="M13.5,9.2v2.5c0,0.4-0.3,0.8-0.8,0.8H1.3c-0.2,0-0.4-0.1-0.5-0.2c-0.1-0.1-0.2-0.3-0.2-0.5V9.2
	c0-0.2,0.1-0.4,0.2-0.5C0.9,8.5,1,8.5,1.3,8.5h3.6l1.1,1.1c0.6,0.6,1.5,0.6,2.1,0l1.1-1.1h3.6C13.2,8.5,13.5,8.8,13.5,9.2z M11,4.8
	c0.1,0.2,0.1,0.4-0.1,0.6L7.4,8.8C7.2,9,6.9,9,6.7,8.8c0,0,0,0,0,0L3.2,5.3C3,5.2,2.9,4.9,3,4.8c0.1-0.2,0.3-0.3,0.5-0.3h2V1
	c0-0.1,0.1-0.3,0.2-0.3C5.7,0.5,5.9,0.5,6,0.5h2c0.1,0,0.3,0.1,0.4,0.2C8.4,0.7,8.5,0.8,8.5,1v3.5h2C10.7,4.5,10.9,4.6,11,4.8z
	 M10.4,11.3c0.2-0.2,0.2-0.5,0-0.7c-0.2-0.2-0.5-0.2-0.7,0c-0.2,0.2-0.2,0.5,0,0.7c0.1,0.1,0.2,0.1,0.3,0.1
	C10.1,11.5,10.3,11.4,10.4,11.3z M12.4,11.3c0.2-0.2,0.2-0.5,0-0.7c-0.2-0.2-0.5-0.2-0.7,0c-0.2,0.2-0.2,0.5,0,0.7
	c0.1,0.1,0.2,0.1,0.3,0.1C12.1,11.5,12.3,11.4,12.4,11.3z"/>
</svg>
