<?xml version="1.0" encoding="utf-8"?>
<!-- Generator: Adobe Illustrator 25.1.0, SVG Export Plug-In . SVG Version: 6.00 Build 0)  -->
<svg version="1.1" id="Layer_1" xmlns="http://www.w3.org/2000/svg" xmlns:xlink="http://www.w3.org/1999/xlink" x="0px" y="0px"
	 viewBox="0 0 13 13" style="enable-background:new 0 0 13 13;" xml:space="preserve">
<style type="text/css">
	.st0{fill:#004E63;}
</style>
<path class="st0" d="M10.5,3.7L7.8,6.5l2.8,2.8l1.1-1.1C11.8,8,12,7.9,12.2,8c0.2,0.1,0.3,0.3,0.3,0.5V12c0,0.3-0.2,0.5-0.5,0.5H8.5
	c-0.2,0-0.4-0.1-0.5-0.3c-0.1-0.2,0-0.4,0.1-0.5l1.1-1.1L6.5,7.8l-2.8,2.8l1.1,1.1C5,11.8,5.1,12,5,12.2c-0.1,0.2-0.2,0.3-0.5,0.3H1
	c-0.1,0-0.3-0.1-0.4-0.1c-0.1-0.1-0.2-0.2-0.1-0.4V8.5c0-0.2,0.1-0.4,0.3-0.5C1,7.9,1.2,8,1.4,8.1l1.1,1.1l2.8-2.8L2.5,3.7L1.4,4.8
	C1.3,4.9,1.1,5,1,5C0.9,5,0.9,5,0.8,5C0.6,4.9,0.5,4.7,0.5,4.5V1c0-0.1,0.1-0.3,0.1-0.4C0.7,0.6,0.9,0.5,1,0.5h3.5
	c0.2,0,0.4,0.1,0.5,0.3C5.1,1,5,1.2,4.8,1.4L3.7,2.5l2.8,2.8l2.8-2.8L8.1,1.4C8,1.2,7.9,1,8,0.8c0.1-0.2,0.3-0.3,0.5-0.3H12
	c0.1,0,0.3,0.1,0.4,0.1c0.1,0.1,0.2,0.2,0.1,0.4v3.5c0,0.2-0.1,0.4-0.3,0.5c-0.1,0-0.1,0-0.2,0c-0.1,0-0.3-0.1-0.4-0.2L10.5,3.7z"/>
</svg>
