<?xml version="1.0" encoding="utf-8"?>
<!-- Generator: Adobe Illustrator 25.1.0, SVG Export Plug-In . SVG Version: 6.00 Build 0)  -->
<svg version="1.1" id="Layer_1" xmlns="http://www.w3.org/2000/svg" xmlns:xlink="http://www.w3.org/1999/xlink" x="0px" y="0px"
	 viewBox="0 0 13 13" style="enable-background:new 0 0 13 13;" xml:space="preserve">
<style type="text/css">
	.st0{fill:#004E63;}
</style>
<path class="st0" d="M11.7,3.5c0.5,0.9,0.8,1.9,0.8,3c0,1.1-0.3,2.1-0.8,3c-0.5,0.9-1.3,1.7-2.2,2.2c-0.9,0.5-1.9,0.8-3,0.8
	c-1.1,0-2.1-0.3-3-0.8c-0.9-0.5-1.7-1.3-2.2-2.2c-0.5-0.9-0.8-1.9-0.8-3c0-1.1,0.3-2.1,0.8-3c0.5-0.9,1.3-1.7,2.2-2.2
	c0.9-0.5,1.9-0.8,3-0.8c1.1,0,2.1,0.3,3,0.8C10.4,1.8,11.2,2.6,11.7,3.5z M10.5,6.5c0-0.1,0-0.3-0.1-0.3L9.7,5.5
	C9.5,5.3,9.2,5.3,9,5.5c0,0,0,0,0,0L7.5,6.9V3c0-0.1-0.1-0.3-0.2-0.3C7.3,2.6,7.1,2.5,7,2.5H6c-0.1,0-0.3,0.1-0.3,0.2
	C5.6,2.7,5.5,2.9,5.5,3v3.9L4,5.5C3.9,5.4,3.8,5.3,3.7,5.3c-0.1,0-0.3,0.1-0.4,0.2L2.6,6.2c-0.2,0.2-0.2,0.5,0,0.7l2.8,2.8l0.7,0.7
	c0.2,0.2,0.5,0.2,0.7,0l0.7-0.7l2.8-2.8C10.5,6.8,10.5,6.6,10.5,6.5z"/>
</svg>
