<?xml version="1.0" encoding="utf-8"?>
<!-- Generator: Adobe Illustrator 25.1.0, SVG Export Plug-In . SVG Version: 6.00 Build 0)  -->
<svg version="1.1" id="Layer_1" xmlns="http://www.w3.org/2000/svg" xmlns:xlink="http://www.w3.org/1999/xlink" x="0px" y="0px"
	 viewBox="0 0 13 13" style="enable-background:new 0 0 13 13;" xml:space="preserve">
<style type="text/css">
	.st0{fill:#004E63;}
</style>
<path class="st0" d="M11.7,3.5c0.5,0.9,0.8,1.9,0.8,3c0,1.1-0.3,2.1-0.8,3c-0.5,0.9-1.3,1.7-2.2,2.2c-0.9,0.5-1.9,0.8-3,0.8
	c-1.1,0-2.1-0.3-3-0.8c-0.9-0.5-1.7-1.3-2.2-2.2c-0.5-0.9-0.8-1.9-0.8-3c0-1.1,0.3-2.1,0.8-3c0.5-0.9,1.3-1.7,2.2-2.2
	c0.9-0.5,1.9-0.8,3-0.8c1.1,0,2.1,0.3,3,0.8C10.4,1.8,11.2,2.6,11.7,3.5z M10.5,6.5c0-0.1,0-0.3-0.1-0.3L7.6,3.3L6.8,2.6
	c-0.2-0.2-0.5-0.2-0.7,0L5.4,3.3L2.6,6.1c-0.2,0.2-0.2,0.5,0,0.7l0.7,0.7c0.2,0.2,0.5,0.2,0.7,0c0,0,0,0,0,0l1.5-1.5V10
	c0,0.3,0.2,0.5,0.5,0.5h1c0.3,0,0.5-0.2,0.5-0.5V6.1L9,7.6c0.1,0.1,0.2,0.2,0.4,0.2c0.1,0,0.3-0.1,0.4-0.2l0.7-0.7
	C10.5,6.7,10.5,6.6,10.5,6.5z"/>
</svg>
