<?xml version="1.0" encoding="utf-8"?>
<!-- Generator: Adobe Illustrator 25.1.0, SVG Export Plug-In . SVG Version: 6.00 Build 0)  -->
<svg version="1.1" id="Layer_1" xmlns="http://www.w3.org/2000/svg" xmlns:xlink="http://www.w3.org/1999/xlink" x="0px" y="0px"
	 viewBox="0 0 14 14" style="enable-background:new 0 0 14 14;" xml:space="preserve">
<style type="text/css">
	.st0{fill:#004E63;}
</style>
<path class="st0" d="M13.5,12.5c0,0.6-0.4,1-1,1c-0.3,0-0.5-0.1-0.7-0.3l-2.7-2.7c-0.9,0.7-2,1-3.1,1c-1.5,0-2.9-0.6-3.9-1.6
	c-1-1-1.6-2.4-1.6-3.9c0-0.7,0.1-1.5,0.4-2.1c0.6-1.3,1.6-2.4,2.9-2.9C4.5,0.6,5.3,0.5,6,0.5c1.5,0,2.9,0.6,3.9,1.6
	c0.5,0.5,0.9,1.1,1.2,1.8c0.3,0.7,0.4,1.4,0.4,2.1c0,1.1-0.3,2.2-1,3.1l2.7,2.7C13.4,12,13.5,12.2,13.5,12.5z M8.5,8.5
	c0.7-0.7,1-1.6,1-2.5c0-0.9-0.3-1.8-1-2.5c-0.7-0.7-1.6-1-2.5-1c-0.9,0-1.8,0.3-2.5,1c-0.7,0.7-1,1.6-1,2.5c0,0.9,0.3,1.8,1,2.5
	c0.7,0.7,1.6,1,2.5,1C6.9,9.5,7.8,9.2,8.5,8.5z M8.5,5.8v0.5c0,0.1-0.1,0.2-0.2,0.3c0,0,0,0,0,0H6.5v1.8c0,0.1-0.1,0.2-0.2,0.3
	c0,0,0,0,0,0H5.8c-0.1,0-0.2-0.1-0.3-0.2c0,0,0,0,0,0V6.5H3.8c-0.1,0-0.2-0.1-0.3-0.2c0,0,0,0,0,0V5.8c0-0.1,0.1-0.2,0.2-0.3
	c0,0,0,0,0,0h1.8V3.8c0-0.1,0.1-0.2,0.2-0.3c0,0,0,0,0,0h0.5c0.1,0,0.2,0.1,0.3,0.2c0,0,0,0,0,0v1.8h1.8C8.4,5.5,8.5,5.6,8.5,5.8
	C8.5,5.7,8.5,5.7,8.5,5.8z"/>
</svg>
