<?xml version="1.0" encoding="utf-8"?>
<!-- Generator: Adobe Illustrator 25.1.0, SVG Export Plug-In . SVG Version: 6.00 Build 0)  -->
<svg version="1.1" id="Layer_1" xmlns="http://www.w3.org/2000/svg" xmlns:xlink="http://www.w3.org/1999/xlink" x="0px" y="0px"
	 viewBox="0 0 1240.5 149" style="enable-background:new 0 0 1240.5 149;" xml:space="preserve">
<style type="text/css">
	.st0{fill:#FFFFFF;}
	.st1{fill:none;stroke:#BFD9E0;stroke-miterlimit:10;}
	.st2{fill-rule:evenodd;clip-rule:evenodd;fill:#FFFFFF;}
</style>
<g>
	<path class="st0" d="M206.7,134.7l0.1,0.2c-0.8,4.9-2.6,8.4-5.5,10.7c-3.1,2.3-6.9,3.5-10.8,3.3c-3.8,0.1-7.3-1.8-9.3-5
		c-2.2-3.3-2.9-7.6-1.9-12.7l1.6-9c1-5.6,3.1-9.9,6.3-13c3-3,7.1-4.7,11.3-4.7c4,0,7.1,1.2,9.3,3.7c2.2,2.5,2.8,5.9,1.9,10.4
		l-0.1,0.2H206c0.7-3.7,0.3-6.3-1.1-8c-1.4-1.7-3.8-2.5-7-2.5c-2.9,0-5.7,1.3-8.2,3.9c-2.6,2.8-4.3,6.2-4.8,9.9l-1.6,9
		c-0.8,4.4-0.5,7.8,1,10.3s3.8,3.7,7,3.7c2.8,0.1,5.6-0.9,7.8-2.6c2.1-1.7,3.5-4.4,4.2-7.9L206.7,134.7z"/>
	<path class="st0" d="M252.2,131.3c-1.1,5.8-3.2,10.2-6.4,13.2c-3.2,3-7.4,4.6-11.7,4.5c-3.9,0.2-7.6-1.7-9.8-4.9
		c-2.3-3.3-3-7.5-2-12.8l1.6-9c1-5.7,3.2-10.1,6.4-13.1c3.1-3,7.3-4.7,11.7-4.6c3.9-0.2,7.6,1.7,9.8,4.9c2.3,3.3,3,7.5,2.1,12.8
		L252.2,131.3z M250,122.3c0.9-4.7,0.5-8.2-1-10.5c-1.5-2.3-4.1-3.4-7.6-3.4c-3.2,0-6.4,1.3-8.6,3.7c-2.5,2.4-4.2,5.8-5,10.2l-1.6,9
		c-0.9,4.8-0.5,8.3,1,10.6c1.5,2.3,4.1,3.4,7.6,3.4c3.3,0,6.4-1.3,8.6-3.7c2.5-2.4,4.2-5.9,5-10.3L250,122.3z"/>
	<path class="st0" d="M295.2,148.4h-3.9l-15.1-35.8h-0.2l-6.5,35.8h-3.9l7.8-43.2h3.9l15.1,35.8h0.2l6.5-35.8h3.8L295.2,148.4z"/>
	<path class="st0" d="M342.1,142.6c-1.6,1.9-3.5,3.4-5.7,4.4c-2.9,1.4-6.1,2.1-9.3,2c-4,0.2-7.8-1.7-10.1-5
		c-2.4-3.3-3.2-7.6-2.2-12.8l1.6-9c1-5.6,3.2-9.9,6.5-13c3.2-3.1,7.5-4.7,11.9-4.7c4.1,0,7.3,1.2,9.4,3.5c2.1,2.3,2.8,5.4,2.2,9.2
		l-0.1,0.2l-3.6,0.2c0.4-3.1-0.1-5.4-1.5-7c-1.4-1.6-3.7-2.4-7-2.3c-3.4,0.1-6.5,1.5-8.8,4c-2.7,2.7-4.5,6.2-5.1,9.9l-1.6,9
		c-0.8,4.4-0.4,7.8,1.3,10.3s4.3,3.7,7.9,3.7c2.2,0,4.5-0.4,6.6-1.2c1.6-0.6,3-1.5,4.2-2.7l1.8-10.3h-9.1l0.7-3.8h13L342.1,142.6z"
		/>
	<path class="st0" d="M365.1,129.6l-3.4,18.9h-3.9l7.8-43.2h13.8c3.8,0,6.7,1.1,8.6,3.2c1.9,2.2,2.5,5.2,1.8,9
		c-0.4,2.3-1.3,4.5-2.7,6.4c-1.4,1.7-3.2,3-5.3,3.7c1.8,0.6,3.3,2,4,3.7c0.7,2,0.9,4.2,0.4,6.3l-0.8,4.4c-0.2,1.1-0.4,2.3-0.5,3.4
		c-0.1,0.8,0,1.5,0.2,2.3l-0.1,0.7h-4c-0.1-0.9-0.1-1.8,0-2.7c0.1-1.2,0.3-2.4,0.6-3.7l0.8-4.3c0.5-2.7,0.2-4.8-0.8-6.1
		s-2.8-2-5.3-2L365.1,129.6z M365.7,125.8h9.9c2.5,0.1,4.9-0.6,6.9-2.1c1.8-1.6,3-3.8,3.4-6.1c0.5-2.9,0.2-5.1-0.9-6.5
		s-3.2-2.1-6.3-2.1h-9.9L365.7,125.8z"/>
	<path class="st0" d="M427,127.8h-18l-3,16.9h20.7l-0.7,3.8h-24.7l7.8-43.2h24.6l-0.7,3.8h-20.7l-2.7,15h18L427,127.8z"/>
	<path class="st0" d="M466.2,137.6c0.4-2.2,0-4-1.2-5.2c-1.2-1.2-3.7-2.4-7.5-3.7c-4.2-1.4-7.2-3-9-4.8c-1.7-1.8-2.3-4.4-1.6-7.9
		c0.5-3.4,2.3-6.4,5-8.5c3-2.1,6.6-3.1,10.3-3c3.9,0,6.9,1.2,8.9,3.4c2,2.3,2.7,5.4,1.9,9.4l-0.1,0.2h-3.6c0.5-2.9,0.1-5.2-1.2-6.9
		s-3.5-2.5-6.5-2.5c-2.6-0.1-5.2,0.7-7.3,2.2c-1.8,1.3-3.1,3.2-3.5,5.4c-0.4,2.3-0.1,4,1,5.2s3.6,2.4,7.6,3.7c4.2,1.4,7.2,3,8.9,4.8
		c1.8,1.8,2.3,4.4,1.7,7.8c-0.5,3.5-2.4,6.6-5.3,8.6c-3.3,2-7,3-10.9,2.9c-3.4,0.1-6.7-1-9.4-3.1c-2.5-2.1-3.2-5.3-2.3-9.7l0.1-0.2
		h3.6c-0.6,3.5-0.1,5.9,1.6,7.3c2,1.4,4.5,2.1,7,2c2.8,0.1,5.5-0.7,7.8-2.2C464.3,141.8,465.7,139.8,466.2,137.6z"/>
	<path class="st0" d="M508.2,137.6c0.4-2.2,0-4-1.2-5.2c-1.2-1.2-3.7-2.4-7.5-3.7c-4.2-1.4-7.2-3-9-4.8c-1.7-1.8-2.3-4.4-1.6-7.9
		c0.5-3.4,2.3-6.5,5-8.5c3-2.1,6.6-3.1,10.3-3c3.9,0,6.9,1.2,8.9,3.4c2,2.3,2.7,5.4,1.9,9.4l-0.1,0.2h-3.6c0.5-2.9,0.1-5.2-1.2-6.9
		s-3.5-2.5-6.5-2.5c-2.6-0.1-5.2,0.7-7.3,2.2c-1.8,1.3-3.1,3.2-3.5,5.4c-0.4,2.3-0.1,4,1,5.2s3.6,2.4,7.6,3.7c4.2,1.4,7.2,3,8.9,4.8
		c1.8,1.8,2.3,4.4,1.7,7.8c-0.5,3.5-2.4,6.6-5.3,8.6c-3.3,2-7.1,3-10.9,2.9c-3.4,0.1-6.7-1-9.4-3.1c-2.4-2.1-3.2-5.3-2.3-9.7
		l0.1-0.2h3.6c-0.6,3.5-0.1,5.9,1.6,7.3c2,1.4,4.5,2.1,7,2c2.8,0.1,5.5-0.7,7.8-2.2C506.3,141.8,507.7,139.8,508.2,137.6z"/>
	<path class="st0" d="M555.3,132.3l-2.9,16.1h-3.9l7.8-43.2h13.8c3.7,0,6.5,1.3,8.4,3.9s2.5,5.8,1.9,9.7c-0.5,3.8-2.3,7.3-5.1,10
		c-2.8,2.4-6.3,3.7-10,3.6L555.3,132.3z M556,128.5h9.9c2.6,0,5.2-1,7-2.9c1.9-1.8,3.2-4.2,3.7-6.8c0.5-2.9,0.2-5.3-1-7.1
		c-1.1-1.8-3.2-2.7-6.1-2.7h-9.9L556,128.5z"/>
	<path class="st0" d="M597.8,129.6l-3.4,18.9h-3.9l7.8-43.2h13.8c3.8,0,6.7,1.1,8.6,3.2c1.9,2.2,2.5,5.2,1.8,9
		c-0.4,2.3-1.3,4.5-2.7,6.4c-1.4,1.7-3.2,3-5.3,3.7c1.8,0.6,3.3,2,4,3.7c0.7,2,0.9,4.2,0.4,6.3l-0.8,4.4c-0.2,1.1-0.4,2.3-0.5,3.4
		c-0.1,0.8,0,1.5,0.2,2.3l-0.1,0.7h-4c-0.1-0.9-0.1-1.8,0-2.7c0.2-1.2,0.3-2.4,0.6-3.7l0.8-4.3c0.5-2.7,0.2-4.8-0.8-6.1
		s-2.8-2-5.3-2L597.8,129.6z M598.5,125.8h9.9c2.5,0.1,4.9-0.6,6.9-2.1c1.8-1.6,3-3.8,3.4-6.1c0.5-2.9,0.2-5.1-0.9-6.5
		s-3.2-2.1-6.3-2.1h-9.9L598.5,125.8z"/>
	<path class="st0" d="M659.8,127.8h-18l-3,16.9h20.7l-0.7,3.8h-24.7l7.8-43.2h24.6l-0.7,3.8h-20.7l-2.7,15h18L659.8,127.8z"/>
	<path class="st0" d="M698.9,137.6c0.4-2.2,0-4-1.2-5.2s-3.7-2.4-7.5-3.7c-4.2-1.4-7.2-3-9-4.8c-1.7-1.8-2.3-4.4-1.6-7.9
		c0.5-3.4,2.3-6.4,5-8.5c3-2.1,6.6-3.1,10.3-3c3.9,0,6.9,1.2,8.9,3.4c2,2.3,2.7,5.4,1.9,9.4l-0.1,0.2H702c0.5-2.9,0.1-5.2-1.2-6.9
		s-3.5-2.5-6.5-2.5c-2.6-0.1-5.2,0.7-7.2,2.3c-1.8,1.3-3.1,3.2-3.5,5.4c-0.4,2.3-0.1,4,1,5.2s3.6,2.4,7.6,3.7c4.2,1.4,7.2,3,8.9,4.8
		c1.8,1.8,2.3,4.4,1.7,7.8c-0.5,3.5-2.4,6.6-5.3,8.6c-3.3,2-7,3-10.9,2.8c-3.4,0.1-6.7-1-9.3-3.1c-2.5-2.1-3.2-5.3-2.3-9.7l0.1-0.2
		h3.6c-0.6,3.5-0.1,5.9,1.6,7.3c2,1.4,4.5,2.1,7,2c2.8,0.1,5.5-0.7,7.8-2.2C697,141.8,698.4,139.8,698.9,137.6z"/>
	<path class="st0" d="M742.2,127.8h-18l-3,16.9h20.7l-0.7,3.8h-24.7l7.8-43.2H749l-0.7,3.8h-20.8l-2.7,15h18L742.2,127.8z"/>
	<path class="st0" d="M786.4,148.4h-3.8l-15.1-35.8h-0.2l-6.5,35.8h-3.9l7.8-43.2h3.9l15.1,35.8h0.2l6.5-35.8h3.8L786.4,148.4z"/>
	<path class="st0" d="M836.1,109h-12.2l-7.1,39.4h-3.9L820,109h-11.7l0.7-3.8h27.8L836.1,109z"/>
	<path class="st0" d="M867.7,137.2h-17.6l-5.8,11.2h-4l22.5-43.2h3.8l6.8,43.2h-4L867.7,137.2z M852,133.4h15.1l-3.4-22.5h-0.2
		L852,133.4z"/>
	<path class="st0" d="M919.6,109h-12.2l-7.1,39.4h-3.9l7.1-39.4h-11.7l0.7-3.8h27.8L919.6,109z"/>
	<path class="st0" d="M931.3,148.4h-3.9l7.8-43.2h3.9L931.3,148.4z"/>
	<path class="st0" d="M980.6,131.3c-1,5.8-3.2,10.2-6.4,13.2c-3.2,3-7.4,4.6-11.7,4.5c-3.9,0.2-7.6-1.7-9.8-4.9
		c-2.3-3.3-3-7.5-2-12.8l1.6-9c1-5.7,3.2-10.1,6.4-13.1c3.1-3,7.3-4.7,11.7-4.6c3.9-0.2,7.6,1.7,9.8,4.9c2.3,3.3,3,7.5,2.1,12.8
		L980.6,131.3z M978.4,122.3c0.8-4.7,0.5-8.2-1-10.5c-1.5-2.3-4.1-3.4-7.6-3.4c-3.3,0-6.4,1.3-8.6,3.7c-2.7,2.8-4.4,6.4-4.9,10.2
		l-1.6,9c-0.9,4.8-0.5,8.3,1,10.6c1.5,2.3,4.1,3.4,7.6,3.4c3.3,0,6.4-1.3,8.6-3.7c2.5-2.4,4.2-5.9,5-10.3L978.4,122.3z"/>
	<path class="st0" d="M1023.6,148.4h-3.8l-15.1-35.8h-0.2l-6.5,35.8h-3.9l7.8-43.2h3.9l15.1,35.8h0.2l6.4-35.8h3.8L1023.6,148.4z"/>
	<path class="st0" d="M1065.8,137.6c0.4-2.2,0-4-1.2-5.2c-1.2-1.2-3.7-2.4-7.5-3.7c-4.2-1.4-7.2-3-9-4.8c-1.7-1.8-2.3-4.4-1.6-7.9
		c0.5-3.4,2.3-6.4,5-8.5c3-2.1,6.6-3.1,10.3-3c3.9,0,6.9,1.2,8.9,3.4s2.7,5.4,1.9,9.4l-0.1,0.2h-3.6c0.5-2.9,0.1-5.2-1.2-6.9
		s-3.5-2.5-6.5-2.5c-2.6-0.1-5.2,0.7-7.3,2.2c-1.8,1.3-3.1,3.2-3.5,5.4c-0.4,2.3-0.1,4,1,5.2s3.6,2.4,7.6,3.7c4.2,1.4,7.2,3,8.9,4.8
		c1.8,1.8,2.3,4.4,1.7,7.8c-0.5,3.5-2.4,6.6-5.3,8.6c-2.8,1.9-6.5,2.9-10.9,2.9c-3.4,0.1-6.7-1-9.3-3.1c-2.4-2.1-3.2-5.3-2.3-9.7
		l0.1-0.2h3.6c-0.6,3.5-0.1,5.9,1.6,7.3c2,1.4,4.5,2.1,7,2c2.8,0.1,5.5-0.7,7.8-2.2C1063.8,141.8,1065.2,139.9,1065.8,137.6z"/>
	<line class="st1" x1="8.5" y1="48" x2="1240.5" y2="48"/>
	<path class="st2" d="M204.7,13.7l6.2,16h0.1l3.3-16h4.6L214,36.1h-5.1l-6.2-15.7h-0.1l-3.3,15.7h-4.7l4.9-22.4H204.7L204.7,13.7z
		 M226.4,12.8c0.9,0,1.7,0.3,2.3,1c0.6,0.6,1,1.4,1,2.3c0,0.9-0.3,1.7-1,2.3c-0.6,0.6-1.4,0.9-2.3,0.9c-0.9,0-1.7-0.3-2.3-0.9
		s-0.9-1.4-0.9-2.3c0-1,0.3-1.8,1-2.4C224.8,13.1,225.5,12.8,226.4,12.8L226.4,12.8z M226.4,13.3c-0.8,0-1.4,0.3-1.9,0.8
		s-0.8,1.2-0.8,1.9c0,0.8,0.3,1.4,0.8,1.9s1.2,0.8,1.9,0.8s1.4-0.3,1.9-0.8s0.8-1.2,0.8-1.9s-0.3-1.4-0.8-1.9
		C227.8,13.6,227.1,13.3,226.4,13.3L226.4,13.3z M226,14.2c0.4,0,0.7,0,0.7,0c0.3,0,0.5,0.1,0.7,0.2c0.3,0.2,0.5,0.5,0.5,0.9
		c0,0.3-0.1,0.5-0.3,0.7c-0.2,0.1-0.4,0.2-0.6,0.2c0.2,0,0.4,0.1,0.5,0.2c0.2,0.2,0.3,0.4,0.3,0.8v0.3v0.1v0.1v0.1h-0.9
		c0-0.1,0-0.3-0.1-0.5c0-0.2,0-0.4-0.1-0.4c0-0.1-0.1-0.2-0.3-0.3c-0.1,0-0.2,0-0.3-0.1h-0.2h-0.2v1.3h-1v-3.6h0.2
		C225.3,14.2,225.6,14.2,226,14.2L226,14.2z M226.1,14.9h-0.2V16h0.4c0.2,0,0.4,0,0.5-0.1s0.2-0.2,0.2-0.4s-0.1-0.3-0.3-0.4
		C226.6,14.9,226.4,14.9,226.1,14.9L226.1,14.9z"/>
	<path class="st2" d="M181.6,32c5,0,7.5-5.1,7.5-9.3c0-3.1-1.4-5.8-5.2-5.8c-5.2,0-7.6,5.1-7.6,9.4C176.3,29.3,177.9,32,181.6,32
		 M183.9,12.8c6.3,0,10.3,3.3,10.3,9.6c0,7.3-4.5,13.8-12.6,13.8c-6.5,0-10.3-3.6-10.3-9.9C171.2,19,176.1,12.8,183.9,12.8"/>
	<path class="st2" d="M155.2,23.9h4.7c2.7,0,5.3-1,5.3-3.6c0-2.4-1.8-2.8-3.8-2.8h-4.8L155.2,23.9L155.2,23.9z M152.3,13.7h11.1
		c4.2-0.1,6.9,1.5,6.9,5.9c0,3-2.2,5.6-5.3,6v0.1c1.9,0.6,2.4,2.2,2.4,4c0,1-0.2,2.5-0.2,3.9c0,1,0.1,1.9,0.3,2.6h-5
		c-0.1-0.5-0.2-1-0.2-1.5c0-1.5,0.3-3,0.3-4.6c0-2.2-1.3-2.7-3.4-2.7h-4.8l-1.9,8.8h-5.1L152.3,13.7L152.3,13.7z"/>
	<polygon class="st2" points="131.1,13.7 148.3,13.7 147.5,17.8 135.2,17.8 134.2,22.7 145.6,22.7 144.7,26.5 133.4,26.5 132.2,32 
		144.7,32 143.8,36.1 126.4,36.1 	"/>
	<polygon class="st2" points="106.9,13.7 112.1,13.7 118.4,29.7 118.5,29.7 121.7,13.7 126.4,13.7 121.5,36.1 116.5,36.1 
		110.1,20.4 110.1,20.4 106.8,36.1 102.1,36.1 	"/>
	<polygon class="st2" points="86.2,13.7 103.5,13.7 102.6,17.8 90.4,17.8 89.3,22.7 100.7,22.7 99.9,26.5 88.5,26.5 87.3,32 
		99.8,32 98.9,36.1 81.5,36.1 	"/>
	<path class="st2" d="M74,33.3L74,33.3c-1.6,2-3.7,2.8-5.8,2.8c-6.3,0-10-3.6-10-9.9c0-7.2,4.7-13.5,12.4-13.5
		c5.3,0,9.6,2.4,9.6,7.9h-5c-0.1-2.7-1.8-3.8-4.6-3.8c-5.1,0-7.4,5.1-7.4,9.4c0,3.1,1.5,5.7,5.1,5.7c3.8,0,5.4-2,6.3-4.8h-5.2
		l0.8-3.7h9.6l-2.6,12.1h-3.1L74,33.3L74,33.3z"/>
	<polygon class="st2" points="40.9,13.7 58.1,13.7 57.3,17.8 45,17.8 44,22.7 55.4,22.7 54.5,26.5 43.2,26.5 42,32 54.5,32 
		53.6,36.1 36.2,36.1 	"/>
	<path class="st2" d="M20.6,23.9h4.7c2.7,0,5.3-1,5.3-3.6c0-2.4-1.8-2.8-3.8-2.8H22L20.6,23.9L20.6,23.9z M17.7,13.7h11.1
		c4.2-0.1,6.9,1.5,6.9,5.9c0,3-2.2,5.6-5.3,6v0.1c1.9,0.6,2.4,2.2,2.4,4c0,1-0.2,2.5-0.2,3.9c0,1,0.1,1.9,0.3,2.6h-5
		c-0.1-0.5-0.2-1-0.2-1.5c0-1.5,0.3-3,0.3-4.6c0-2.2-1.3-2.7-3.4-2.7h-4.8l-1.9,8.8h-5.1L17.7,13.7L17.7,13.7z"/>
</g>
</svg>
