<svg xmlns="http://www.w3.org/2000/svg" viewBox="0 0 173.34 18.04"><defs><style>.a{fill:#fff;}.b,.c,.d{fill:none;stroke:#fff;stroke-linecap:round;stroke-linejoin:round;stroke-width:2px;}.c{stroke-dasharray:0 4.67;}.d{stroke-dasharray:0 5;}</style></defs><path class="a" d="M41.33,18a5.49,5.49,0,0,1-4.44-2,7.54,7.54,0,0,1-1.66-5v-.53A8.37,8.37,0,0,1,36.8,5.27a5,5,0,0,1,4.22-2,4.94,4.94,0,0,1,4,1.74,7.16,7.16,0,0,1,1.44,4.71v2.09H38.82l0,.08a3.83,3.83,0,0,0,.85,2.31,2.49,2.49,0,0,0,2,.91,6,6,0,0,0,1.91-.26A8.41,8.41,0,0,0,45.27,14l.93,2.38a6,6,0,0,1-2.05,1.18A8,8,0,0,1,41.33,18ZM41,6.2A1.75,1.75,0,0,0,39.5,7a4.67,4.67,0,0,0-.69,2.15l0,.07h4.24V8.89a3.37,3.37,0,0,0-.51-2A1.79,1.79,0,0,0,41,6.2Z"/><path class="a" d="M63.82,3.49,64,5.54a4.88,4.88,0,0,1,1.57-1.7,3.77,3.77,0,0,1,2.11-.61,3.67,3.67,0,0,1,3,1.36,6.73,6.73,0,0,1,1.09,4.26v8.91H68.31V8.84a3.17,3.17,0,0,0-.52-2,2,2,0,0,0-1.58-.6A2.46,2.46,0,0,0,65,6.51a2.6,2.6,0,0,0-.91.87V17.76H60.6V3.49Z"/><path class="a" d="M90.64,0V3.49H92.8V6.2H90.64v7.26A1.81,1.81,0,0,0,91,14.65a1.05,1.05,0,0,0,.83.35,3.18,3.18,0,0,0,.47,0,3.63,3.63,0,0,0,.45-.11l.3,2.78a7.26,7.26,0,0,1-1,.3,6,6,0,0,1-1.08.1,3.48,3.48,0,0,1-2.76-1.1,5.17,5.17,0,0,1-1-3.47V6.2H85.3V3.49h1.87V0Z"/><path class="a" d="M112.84,18a5.51,5.51,0,0,1-4.44-2,7.54,7.54,0,0,1-1.66-5v-.53a8.37,8.37,0,0,1,1.57-5.24,5,5,0,0,1,4.22-2,4.92,4.92,0,0,1,4,1.74A7.16,7.16,0,0,1,118,9.68v2.09h-7.67l0,.08a3.9,3.9,0,0,0,.85,2.31,2.5,2.5,0,0,0,2,.91,6.12,6.12,0,0,0,1.91-.26,8.35,8.35,0,0,0,1.66-.81l.93,2.38a6,6,0,0,1-2,1.18A7.91,7.91,0,0,1,112.84,18ZM112.53,6.2A1.75,1.75,0,0,0,111,7a4.67,4.67,0,0,0-.69,2.15l0,.07h4.25V8.89a3.37,3.37,0,0,0-.52-2A1.77,1.77,0,0,0,112.53,6.2Z"/><path class="a" d="M138.92,6.8l-1.27,0a2.1,2.1,0,0,0-1.27.36,2.21,2.21,0,0,0-.76,1v9.64h-3.45V3.49h3.21l.16,2.11a4.53,4.53,0,0,1,1.16-1.74,2.46,2.46,0,0,1,2.14-.58,3.69,3.69,0,0,1,.45.11Z"/><line class="b" x1="149" y1="11.11" x2="149" y2="11.11"/><line class="c" x1="153.67" y1="11.11" x2="170.01" y2="11.11"/><line class="b" x1="172.34" y1="11.11" x2="172.34" y2="11.11"/><line class="d" x1="1" y1="11.11" x2="24.34" y2="11.11"/></svg>