<?xml version="1.0" encoding="utf-8"?>
<!-- Generator: Adobe Illustrator 25.1.0, SVG Export Plug-In . SVG Version: 6.00 Build 0)  -->
<svg version="1.1" id="Layer_1" xmlns="http://www.w3.org/2000/svg" xmlns:xlink="http://www.w3.org/1999/xlink" x="0px" y="0px"
	 viewBox="0 0 120 120" style="enable-background:new 0 0 120 120;" xml:space="preserve">
<style type="text/css">
	.st0{fill:#2DC5DD;}
	.st1{fill:url(#SVGID_1_);}
	.st2{fill:url(#SVGID_2_);}
	.st3{fill:#56D3E6;}
	.st4{fill:#6AD9EB;}
	.st5{fill:#46CEE2;}
	.st6{fill:#3BCAE0;}
	.st7{fill:#48CFE3;}
	.st8{fill:url(#SVGID_3_);}
	.st9{fill:url(#SVGID_4_);}
	.st10{display:none;}
	.st11{display:inline;fill:url(#SVGID_5_);stroke:#006A9D;stroke-width:3;stroke-miterlimit:10;}
	.st12{fill:url(#SVGID_6_);}
	.st13{fill:url(#SVGID_7_);}
	.st14{fill:url(#SVGID_8_);}
	.st15{fill:url(#SVGID_9_);}
	.st16{fill:url(#SVGID_10_);}
	.st17{fill:url(#SVGID_11_);}
	.st18{fill:url(#SVGID_12_);}
	.st19{fill:#81D1E3;}
	.st20{fill:#18BED6;}
	.st21{fill:none;}
	.st22{fill:url(#SVGID_13_);}
	.st23{display:inline;fill:url(#SVGID_14_);stroke:#006A9D;stroke-width:3;stroke-miterlimit:10;}
	.st24{fill:url(#SVGID_15_);}
	.st25{fill:url(#SVGID_16_);}
	.st26{fill:url(#SVGID_17_);}
	.st27{fill:url(#SVGID_18_);}
	.st28{fill:url(#SVGID_19_);}
	.st29{fill:url(#SVGID_20_);}
	.st30{fill:url(#SVGID_21_);}
	.st31{fill:url(#SVGID_22_);}
	.st32{fill:#FFFFFF;}
	.st33{filter:url(#Adobe_OpacityMaskFilter);}
	.st34{clip-path:url(#SVGID_23_);fill:url(#SVGID_25_);}
	.st35{clip-path:url(#SVGID_23_);mask:url(#SVGID_24_);}
	.st36{opacity:0.85;fill:url(#SVGID_26_);}
	.st37{fill:none;stroke:#CDE7F5;stroke-width:44;stroke-miterlimit:10;}
	.st38{fill:none;stroke:#7AC2E1;stroke-width:38.3269;stroke-miterlimit:10;}
	.st39{fill:url(#SVGID_27_);}
	.st40{fill:#919395;}
	.st41{fill:url(#SVGID_28_);}
	.st42{fill:url(#SVGID_29_);}
	.st43{fill:#86CCF3;}
	.st44{fill:url(#SVGID_30_);}
	.st45{fill:#3AABEB;}
	.st46{clip-path:url(#SVGID_31_);}
	.st47{fill:url(#SVGID_32_);}
	.st48{fill:url(#SVGID_33_);}
	.st49{fill:#BCE2F8;}
	.st50{fill:none;stroke:#217A92;stroke-width:3.259;stroke-linecap:round;stroke-miterlimit:10;}
	.st51{fill:none;stroke:#82C2E7;stroke-width:1.065;stroke-linecap:round;stroke-miterlimit:10;}
	.st52{fill:none;stroke:#408FB5;stroke-width:0.9444;stroke-linecap:round;stroke-miterlimit:10;}
	.st53{fill:none;stroke:#6BC0F0;stroke-width:1.6295;stroke-miterlimit:10;}
	.st54{fill:none;stroke:url(#SVGID_34_);stroke-width:9.7769;stroke-miterlimit:10;}
	.st55{fill:#B0D0D8;}
	.st56{fill:none;stroke:#B0D0D8;stroke-width:2.436;stroke-linecap:round;stroke-miterlimit:10;}
	.st57{fill:none;stroke:#B0D0D8;stroke-width:3.654;stroke-linecap:round;stroke-miterlimit:10;}
	.st58{fill:none;stroke:url(#SVGID_35_);stroke-width:9.7769;stroke-miterlimit:10;}
	.st59{fill:none;stroke:#1FA0E8;stroke-width:1.733;stroke-linecap:round;stroke-miterlimit:10;}
	.st60{fill:none;stroke:#1FA0E8;stroke-width:0.8665;stroke-linecap:round;stroke-miterlimit:10;}
	.st61{fill:url(#SVGID_36_);}
	.st62{fill:none;stroke:#DE8AE5;stroke-width:0.8665;stroke-miterlimit:10;}
	.st63{fill:url(#SVGID_37_);}
	.st64{fill:none;stroke:#797979;stroke-width:1.733;stroke-miterlimit:10;}
	.st65{fill:none;stroke:url(#SVGID_38_);stroke-width:0.8665;stroke-miterlimit:10;}
	.st66{fill:#40403F;}
	.st67{fill:none;stroke:url(#SVGID_39_);stroke-width:0.8665;stroke-miterlimit:10;}
	.st68{fill:url(#SVGID_40_);stroke:#585858;stroke-width:1.2997;stroke-miterlimit:10;}
	.st69{fill:url(#SVGID_41_);stroke:#006682;stroke-width:0.4332;stroke-miterlimit:10;}
	.st70{fill:url(#SVGID_42_);stroke:#40403F;stroke-width:0.4332;stroke-miterlimit:10;}
	.st71{fill:none;stroke:#FFFFFF;stroke-width:0.4332;stroke-miterlimit:10;}
	.st72{fill:url(#SVGID_43_);}
	.st73{fill:#C7E7F9;}
	.st74{fill:#EBB9F0;}
	.st75{fill:#BFD9E0;}
	.st76{clip-path:url(#SVGID_44_);}
	.st77{clip-path:url(#SVGID_45_);}
	.st78{clip-path:url(#SVGID_46_);}
	.st79{fill:#69B8ED;}
	.st80{fill:#6DC1F0;}
	.st81{fill:url(#SVGID_47_);}
	.st82{fill:url(#SVGID_48_);}
	.st83{fill:url(#SVGID_49_);}
	.st84{fill:#CE4FD9;}
	.st85{fill:url(#SVGID_50_);}
	.st86{fill:url(#SVGID_51_);}
	.st87{fill:url(#SVGID_52_);}
	.st88{fill:url(#SVGID_53_);}
	.st89{fill:url(#SVGID_54_);}
	.st90{fill:url(#SVGID_55_);}
	.st91{fill:url(#SVGID_56_);}
	.st92{fill:url(#SVGID_57_);}
	.st93{fill:url(#SVGID_58_);}
	.st94{fill:url(#SVGID_59_);}
	.st95{fill:url(#SVGID_60_);}
	.st96{fill:url(#SVGID_61_);}
	.st97{fill:url(#SVGID_62_);}
	.st98{fill:url(#SVGID_63_);}
	.st99{fill:url(#SVGID_64_);}
	.st100{fill:url(#SVGID_65_);}
	.st101{fill:url(#SVGID_66_);}
	.st102{fill:url(#SVGID_67_);}
	.st103{fill:url(#SVGID_68_);}
	.st104{fill:url(#SVGID_69_);}
	.st105{fill:url(#SVGID_70_);}
	.st106{fill:url(#SVGID_71_);}
	.st107{fill:url(#SVGID_72_);}
	.st108{fill:url(#SVGID_73_);}
	.st109{fill:url(#SVGID_74_);}
	.st110{fill:url(#SVGID_75_);}
	.st111{fill:url(#SVGID_76_);}
	.st112{fill:url(#SVGID_77_);}
	.st113{fill:url(#SVGID_78_);}
	.st114{fill:url(#SVGID_79_);}
	.st115{fill:url(#SVGID_80_);}
	.st116{fill:url(#SVGID_81_);}
	.st117{fill:url(#SVGID_82_);}
	.st118{fill:url(#SVGID_83_);}
	.st119{fill:url(#SVGID_84_);}
	.st120{fill:url(#SVGID_85_);}
	.st121{fill:url(#SVGID_86_);}
	.st122{fill:url(#SVGID_87_);}
	.st123{fill:url(#SVGID_88_);}
	.st124{fill:url(#SVGID_89_);}
	.st125{fill:url(#SVGID_90_);}
	.st126{fill:url(#SVGID_91_);}
	.st127{fill:url(#SVGID_92_);}
	.st128{fill:url(#SVGID_93_);}
	.st129{fill:url(#SVGID_94_);}
	.st130{fill:#7CD9EA;}
	.st131{fill:#64D7E9;}
	.st132{fill:url(#SVGID_95_);}
	.st133{fill:url(#SVGID_96_);}
	.st134{fill:url(#SVGID_97_);}
	.st135{fill:#DE8AE5;}
	.st136{fill:url(#SVGID_98_);}
	.st137{fill:url(#SVGID_99_);}
	.st138{fill:url(#SVGID_100_);}
	.st139{fill:url(#SVGID_101_);}
	.st140{fill:url(#SVGID_102_);}
	.st141{fill:url(#SVGID_103_);}
	.st142{fill:url(#SVGID_104_);}
	.st143{fill:url(#SVGID_105_);}
	.st144{fill:url(#SVGID_106_);}
	.st145{fill:url(#SVGID_107_);}
	.st146{fill:url(#SVGID_108_);}
	.st147{fill:url(#SVGID_109_);}
	.st148{fill:url(#SVGID_110_);}
	.st149{fill:url(#SVGID_111_);}
	.st150{fill:url(#SVGID_112_);}
	.st151{fill:url(#SVGID_113_);}
	.st152{fill:url(#SVGID_114_);}
	.st153{fill:url(#SVGID_115_);}
	.st154{fill:url(#SVGID_116_);}
	.st155{fill:url(#SVGID_117_);}
	.st156{fill:url(#SVGID_118_);}
	.st157{fill:url(#SVGID_119_);}
	.st158{fill:url(#SVGID_120_);}
	.st159{fill:url(#SVGID_121_);}
	.st160{fill:url(#SVGID_122_);}
	.st161{fill:url(#SVGID_123_);}
	.st162{fill:url(#SVGID_124_);}
	.st163{fill:url(#SVGID_125_);}
	.st164{fill:url(#SVGID_126_);}
	.st165{fill:url(#SVGID_127_);}
	.st166{fill:url(#SVGID_128_);}
	.st167{fill:url(#SVGID_129_);}
	.st168{fill:url(#SVGID_130_);}
	.st169{fill:url(#SVGID_131_);}
	.st170{fill:url(#SVGID_132_);}
	.st171{fill:url(#SVGID_133_);}
	.st172{fill:url(#SVGID_134_);}
	.st173{fill:url(#SVGID_135_);}
	.st174{fill:url(#SVGID_136_);}
	.st175{fill:url(#SVGID_137_);}
	.st176{fill:url(#SVGID_138_);}
	.st177{fill:url(#SVGID_139_);}
	.st178{fill:url(#SVGID_140_);}
	.st179{fill:url(#SVGID_141_);}
	.st180{fill:url(#SVGID_142_);}
	.st181{fill:url(#SVGID_143_);}
	.st182{fill:url(#SVGID_144_);}
	.st183{fill:url(#SVGID_145_);}
	.st184{fill:url(#SVGID_146_);}
	.st185{fill:url(#SVGID_147_);}
	.st186{fill:url(#SVGID_148_);}
	.st187{fill:url(#SVGID_149_);}
	.st188{fill:url(#SVGID_151_);}
	.st189{fill:url(#SVGID_152_);}
	.st190{fill:url(#SVGID_153_);}
	.st191{fill:url(#SVGID_154_);}
	.st192{fill:url(#SVGID_155_);}
	.st193{fill:url(#SVGID_156_);}
	.st194{fill:url(#SVGID_158_);}
	.st195{fill:url(#SVGID_159_);}
	.st196{fill:url(#SVGID_160_);}
	.st197{fill:url(#SVGID_161_);}
	.st198{fill:url(#SVGID_162_);}
	.st199{fill:url(#SVGID_163_);}
	.st200{fill:url(#SVGID_164_);}
	.st201{fill:url(#SVGID_165_);}
	.st202{fill:url(#SVGID_166_);}
	.st203{fill:url(#SVGID_167_);}
	.st204{fill:url(#SVGID_168_);}
	.st205{fill:url(#SVGID_169_);}
	.st206{clip-path:url(#SVGID_170_);}
	.st207{fill:#57B8EE;stroke:#80CBDF;stroke-width:0.431;stroke-miterlimit:10;}
	.st208{opacity:0.3;fill:url(#SVGID_172_);}
	.st209{fill:url(#SVGID_174_);}
	.st210{fill:#57B8EE;}
	.st211{fill:url(#SVGID_176_);}
	.st212{fill:#52C4DC;}
	.st213{fill:url(#SVGID_178_);}
	.st214{fill:#79C6F1;}
	.st215{clip-path:url(#SVGID_179_);}
	.st216{fill:url(#SVGID_180_);}
	.st217{fill:url(#SVGID_182_);}
	.st218{fill:url(#SVGID_183_);}
	.st219{opacity:0.2;}
	.st220{fill:url(#SVGID_186_);}
	.st221{fill:url(#SVGID_187_);}
	.st222{fill:url(#SVGID_188_);}
	.st223{fill:#929497;}
	.st224{fill:url(#SVGID_189_);}
</style>
<symbol  id="New_Symbol_6" viewBox="-4.3 -5.9 8.7 11.7">
	<path class="st0" d="M2.8-4.3C2.7-3.5,1.4-2.7,0.3-2.9s-1.8-0.9-1.7-1.7s1.7-1.8,2.8-1C2.2-4.8,2.9-5.1,2.8-4.3z"/>
	
		<radialGradient id="SVGID_1_" cx="10462.4775" cy="-18034.541" r="6.2773" gradientTransform="matrix(0.3751 1.0733 0.9373 -0.5266 12979.4727 -20718.5801)" gradientUnits="userSpaceOnUse">
		<stop  offset="4.469546e-03" style="stop-color:#8BE5F2"/>
		<stop  offset="1" style="stop-color:#46CEE2"/>
	</radialGradient>
	<path class="st1" d="M2,5.2C2.1,5,2.2,4.7,2.2,4.5c-0.7,0.7-1-0.8-1-1.4c0-0.6-0.7-1.1-0.5-1.5c0.1-0.4,0.3-1.1,0.9-1.7
		c0.5-0.5,0.7-0.2,1.2-0.2c0.1-0.3,0.2-0.6,0.1-0.8C2.7-1.8,1.8-2.9,1.8-3.5c0-0.5,0.5-0.7,0.4-1c-0.2-0.3-0.5,0-0.8-0.3
		C1.1-5.1,0.7-5.7,0.2-5.5c-0.6,0.2-0.9,0.8-0.7,1c0.1,0,0.2,0,0.3,0.1c0.7,0.2,0.6,0.1,1,0.9c0.4,0.8,0.1,1.5,0,2.8S0.1,1.3-0.2,2
		s-0.7,1-1.6,1.6c-0.2,0.1-0.4,0.2-0.7,0.2c0,0.6,0.3,1.3,0.8,1.2c0.6-0.2,1.3,0,1.5,0.1s0.6,0.7,1.1,0.5C1.2,5.6,1.8,5.9,2,5.2z"/>
	
		<radialGradient id="SVGID_2_" cx="10456.4316" cy="-18037.8711" r="9.3566" gradientTransform="matrix(0.3751 1.0733 0.9373 -0.5266 12979.4727 -20718.5801)" gradientUnits="userSpaceOnUse">
		<stop  offset="4.469546e-03" style="stop-color:#8BE5F2"/>
		<stop  offset="1" style="stop-color:#46CEE2"/>
	</radialGradient>
	<path class="st2" d="M-0.2-4.5c-0.3-0.1-0.6-0.2-0.9,0.2c-0.3,0.4,0.1,0.9,0.3,1.1s-0.2,0.4-0.2,1c0,0.6,0.3,1,0,1.3
		S-1.7-0.7-2-0.1S-2.1,1-2.7,0.8s-2.1,0.5-1.5,1.6s1.3,1.8,2.3,1.2S-0.5,2.8-0.2,2s0.9-1.5,1-2.8s0.4-1.9,0-2.8S0.4-4.2-0.2-4.5z"/>
	<path class="st3" d="M0.1-0.5c-0.3-0.3-0.8-0.4-0.6-0.7c0.2-0.4,0.9-0.9,0.8-1.1C0.2-2.6-0.3-1.6-0.7-2C-0.8-2.2-0.9-2.4-1-2.5
		c0,0.1-0.1,0.2-0.1,0.4c0,0.6,0.3,1,0,1.3c-0.2,0.2-0.4,0.2-0.6,0.3c0.4-0.1,0.6,0,0.8,0.1C-0.5-0.2,0.4-0.3,0.1-0.5z"/>
	<path class="st4" d="M-2.3,1.4C-2,2-2.2,2.9-2.1,3c0.1,0.1,0,0,0.3-0.4c0.2-0.3,0.3-0.5,0.3-1c0-0.5-0.1-0.8-0.6-1.1c0,0,0,0,0,0
		c-0.1,0.3-0.2,0.4-0.5,0.3C-3,0.7-3.5,0.9-3.9,1.2C-3.5,1.1-2.6,0.9-2.3,1.4z"/>
	<path class="st5" d="M0.8-3.3c0-0.1,0-0.2-0.1-0.2c-0.4-0.8-0.3-0.7-1-0.9c-0.3-0.1-0.6-0.2-0.9,0.2c-0.3,0.4,0.1,0.9,0.3,1.1
		c0,0,0.1,0.1,0.1,0.1c0.2-0.2,0.1-0.6,0.5-0.7C0.1-3.8,0.5-3.6,0.8-3.3z"/>
	<path class="st6" d="M2.6-1.5C2.7-1.5,2.7-1.5,2.6-1.5C2.4-2.1,1.8-2.9,1.8-3.5c0-0.5,0.5-0.7,0.4-1C2-4.7,1.6-4.5,1.4-4.7
		C1.1-5,0.7-5.7,0.2-5.5c-0.6,0.2-0.9,0.8-0.7,1c0.1,0,0.2,0,0.3,0.1C0-4.3,0.1-4.3,0.2-4.3c0.1-0.4,0.2-0.5,0.5-0.4
		C1-4.5,1.1-4,1.2-3.9c0.2,0.1,0.5,0.2,0.3,0.5C1.4-3,1.4-2.2,1.6-2S2.2-1.8,2.6-1.5z"/>
	<path class="st7" d="M2,4.7c0,0,0.1-0.5,0.1-1.1c0-0.6-1.6-1.6-1.5-2c0.1-0.4,1.1-0.1,1.7-0.7c0.5-0.5,0.2-0.6,0.4-1.1
		c0.1-0.2,0.1-0.4,0.1-0.5c-0.1,0-0.3,0-0.6,0c-0.6,0-1,0.1-1.2,0.6C1,0.4,0.8,0.9,0.5,1.2C0.2,1.6-0.3,1.7-0.2,2.5
		c0,0.8,0.9,0.9,1.1,1.5C1.3,5,2,4.9,2,4.7z"/>
	
		<radialGradient id="SVGID_3_" cx="4386.2764" cy="-18867.7617" r="5.5851" gradientTransform="matrix(0.9149 0.675 0.4772 -0.9634 4993.7056 -21133.9922)" gradientUnits="userSpaceOnUse">
		<stop  offset="4.469546e-03" style="stop-color:#EFC4F2"/>
		<stop  offset="0.4079" style="stop-color:#DE8AE5"/>
	</radialGradient>
	<path class="st8" d="M3.6-0.2C3.1-0.7,2.4-0.7,1.8-0.3s-0.9,0.1-1.1,1s0.1,1.5,0.2,1.9S0.8,3.3,1.2,3.9s1.1,1.6,1.6,1.4
		S3.7,5.1,3.8,4C4,2.9,4.3,2.7,4.3,2S4.3,0.3,3.6-0.2z"/>
	
		<radialGradient id="SVGID_4_" cx="-524.1622" cy="-583.1407" r="3.8442" gradientTransform="matrix(0.9977 -6.811943e-02 6.811943e-02 0.9977 564.7779 549.1839)" gradientUnits="userSpaceOnUse">
		<stop  offset="0.3762" style="stop-color:#CE4FD9"/>
		<stop  offset="0.9615" style="stop-color:#CE4FD9"/>
		<stop  offset="1" style="stop-color:#1FA0E8"/>
	</radialGradient>
	<path class="st9" d="M3.6,4.8C3.4,5,3.2,5,3.1,5C2.7,5,2.2,4.4,1.9,4C1.7,3.5,2.1,3.2,2,2.5C1.8,1.8,1.9,1.3,2.1,0.8
		c0.3-0.5,0.7-0.3,1.5-0.1C4.1,0.8,4.3,1,4.4,1.3c0-0.6-0.2-1.2-0.7-1.6C3.2-0.7,2.4-0.7,1.9-0.3S1-0.2,0.8,0.7
		C0.6,1.5,0.9,2.1,1,2.5C1.1,3,0.9,3.3,1.2,3.9c0.3,0.5,1.1,1.6,1.6,1.4C3.1,5.2,3.4,5.1,3.6,4.8z"/>
</symbol>
<symbol  id="newSpike" viewBox="-50.8 -102.1 101.9 204.9">
	<g id="Layer_12_2_" class="st10">
		
			<radialGradient id="SVGID_5_" cx="9.0834" cy="43.9582" r="95.7922" gradientTransform="matrix(0.7876 0.6162 -0.3967 0.507 19.3691 16.0721)" gradientUnits="userSpaceOnUse">
			<stop  offset="0.177" style="stop-color:#9CDFE1"/>
			<stop  offset="1" style="stop-color:#00CCCC"/>
		</radialGradient>
		<path class="st11" d="M49.2,59.5c-0.2,0.9-0.5,1.7-0.9,2.5c-0.8,1.8-2.1,3.5-3.6,5c0,0-0.1,0.1-0.1,0.1c-0.4,0.4-0.8,0.7-1.2,1.1
			c-2.1,1.8-4.5,3.1-7.1,3.8c-2.6,0.7-5,0.7-7.2,0.3c-0.9-0.1-1.7-0.4-2.5-0.6c-0.4-0.1-0.8-0.2-1.1-0.4c-2.9-1-4.7-2.3-4.7-2.3
			S18.1,84,18.5,86.6c0.4,2.6,1.7,5,0.8,9.7c-1.3,6.4-8.6,6.5-11.5,1.9c-2.6-4.1-1.3-5-1.8-8.1c-0.5-3.1-3.7-5.6-5-8.7
			c-0.7-1.7-1.7-3.5-2.3-6.1C-0.8,79,1,81.3,1,81.3s-7,3.4-10.7,3.1c-3.7-0.4-14.5-4.5-16.4-11.9c-10,1.9-22.3-7.4-23.1-17.1
			C-50,45.6-46,33.8-37,30.8c5.6-1.9,8.9,1.1,11.5,0c2.6-1.1-0.8-5.6,0-9.3c0,0-5.6-6.7-6-14.1C-31.7-0.1-19.8-9.8-19.8-9.8
			s-2.2-6,0-9.3c2.2-3.4,8.6-5.2,8.6-5.2V-79c0,0-6-4.5-6-11.2c0-6.7,8.6-10.4,8.6-10.4h6.7h6.6h4.8c0,0,8.6,2.6,8.6,10.4
			c0,7.8-6.7,12.6-6.7,12.6v53.4c0.2-0.1,0.4-0.2,0.4-0.2s3,1.5,7.8,7.8c4.8,6.3,4.1,27.5,4.1,27.5s5.2,3.4,8.6,7.1
			c3.4,3.7,6.3,17.5,3.4,20.5c1.6,0.3,3,0.9,4.4,1.7c0.7,0.4,1.3,0.9,1.9,1.5c0.3,0.3,0.6,0.6,0.9,0.9c2.6,2.8,4.7,6.6,6.2,10.8
			c0.3,0.9,0.5,1.9,0.5,2.8C49.6,57.4,49.4,58.4,49.2,59.5z M0.1,55.2c0,0,0,0,0.1-0.1C0.2,55.1,0.1,55.1,0.1,55.2
			C0.1,55.1,0.1,55.1,0.1,55.2z"/>
	</g>
	<g id="Layer_13_1_">
		<linearGradient id="SVGID_6_" gradientUnits="userSpaceOnUse" x1="-5.572" y1="50.0485" x2="-5.572" y2="84.3621">
			<stop  offset="0.3685" style="stop-color:#18BED6"/>
			<stop  offset="0.9955" style="stop-color:#81D1E3"/>
		</linearGradient>
		<path class="st12" d="M0.1,55.2c0,3.5-7.3,4.2-10.7,2.7c-3.3-1.5-6.7-2.8-6.7-2.8c0.4,11-8.9,17.3-8.9,17.3
			c1.9,7.4,12.7,11.5,16.4,11.9C-6.1,84.7,1,81.3,1,81.3s-3.7-4.7-2.2-12.2c0.8-4.1,18.6-18.7,16-18.9C3.9,49.2,0.1,55.5,0.1,55.2z"
			/>
		<linearGradient id="SVGID_7_" gradientUnits="userSpaceOnUse" x1="12.4835" y1="53.5513" x2="12.4835" y2="101.4635">
			<stop  offset="0" style="stop-color:#652F8E"/>
			<stop  offset="0.3407" style="stop-color:#BE15CC"/>
			<stop  offset="0.9994" style="stop-color:#DE8AE5"/>
		</linearGradient>
		<path class="st13" d="M20.9,69.1c0,0,8.1-5.1,5.7-9.2c-4.6-7.8-21-6.8-23.2-5.3c-3.2,2.1-4.7,7.1-5.2,12.6
			c-0.7,7.6,1.6,11,2.8,14.1s4.5,5.7,5,8.7c0.5,3.1,0.3,5.2,1.8,8.1c2.4,5,10.3,4.5,11.5-1.9c0.9-4.7-0.4-7.1-0.8-9.7
			C18.1,84,20.9,69.1,20.9,69.1z"/>
		<linearGradient id="SVGID_8_" gradientUnits="userSpaceOnUse" x1="-49.3253" y1="41.8524" x2="49.5489" y2="41.8524">
			<stop  offset="4.469546e-03" style="stop-color:#81D1E3"/>
			<stop  offset="0.3607" style="stop-color:#18BED6"/>
		</linearGradient>
		<path class="st14" d="M49,53.5c-2.6-7.4-7.1-13.8-13.4-14.9L16.3,30c-3.3,4.1-16.1,7.4-16.1,7.4L-9.8,11c0,0-14.9,6.7-15.6,10.4
			c-0.8,3.7,2.6,8.2,0,9.3c-2.6,1.1-6-1.9-11.5,0c-9,3-13,14.9-12.3,24.6c0.8,9.7,13,19,23.1,17.1c0,0,9.3-6.4,8.9-17.3
			c-0.7-6.5,3-13.6,6.3-11.3C-7.6,46,0,51.6,0.1,55.1c0,0,21.8-3,26.4,4.8c2.4,4.1-5.7,9.2-5.7,9.2s7.3,5.2,15.5,3
			C44.5,69.8,51.6,60.9,49,53.5z"/>
		<linearGradient id="SVGID_9_" gradientUnits="userSpaceOnUse" x1="16.2517" y1="24.8028" x2="36.8269" y2="24.8028">
			<stop  offset="0" style="stop-color:#006A9D"/>
			<stop  offset="0.3877" style="stop-color:#18BED6"/>
			<stop  offset="0.9955" style="stop-color:#81D1E3"/>
		</linearGradient>
		<path class="st15" d="M32.3,18.1c-3.3-3.7-8.6-7.1-8.6-7.1s-4.1,14.9-7.4,19l19.4,8.6C38.6,35.6,35.6,21.8,32.3,18.1z"/>
		<linearGradient id="SVGID_10_" gradientUnits="userSpaceOnUse" x1="-8.6008" y1="43.3595" x2="-8.6008" y2="58.6426">
			<stop  offset="0" style="stop-color:#00A8BC"/>
			<stop  offset="1" style="stop-color:#006682"/>
		</linearGradient>
		<path class="st16" d="M0.1,55.2C0.1,55.1,0.1,55.1,0.1,55.2C0,51.6-7.6,46-10.9,43.8c-3.3-2.2-7.1,4.8-6.3,11.3
			c0,0,3.4,1.3,6.7,2.8C-7.2,59.4,0.1,58.7,0.1,55.2z"/>
		<linearGradient id="SVGID_11_" gradientUnits="userSpaceOnUse" x1="5.1126" y1="-24.3172" x2="5.1126" y2="38.7636">
			<stop  offset="4.469546e-03" style="stop-color:#81D1E3"/>
			<stop  offset="1" style="stop-color:#18BED6"/>
		</linearGradient>
		<path class="st17" d="M19.6-16.5c-4.8-6.3-7.8-7.8-7.8-7.8s-0.1,0.1-0.4,0.2c-0.8,0.4-2.8,1.2-5.2,2.1c-3.5,1.2-7.9,2.2-10.8,1.5
			C-21-16.9-9.8,11-9.8,11s3.1,22,9.9,26.4s12.8-3.4,16.1-7.4c3.4-4.1,7.4-19,7.4-19S24.4-10.2,19.6-16.5z"/>
		<linearGradient id="SVGID_12_" gradientUnits="userSpaceOnUse" x1="-27.0968" y1="-6.5544" x2="-6.5" y2="5.3372">
			<stop  offset="4.469546e-03" style="stop-color:#81D1E3"/>
			<stop  offset="0.6123" style="stop-color:#18BED6"/>
			<stop  offset="1" style="stop-color:#006A9D"/>
		</linearGradient>
		<path class="st18" d="M-4.6-20.6c-5.6-1.5-6.7-3.7-6.7-3.7s-6.3,1.9-8.6,5.2c-2.2,3.3,0,9.3,0,9.3S-31.7-0.1-31.4,7.3
			c0.4,7.4,6,14.1,6,14.1C-24.7,17.7-9.8,11-9.8,11S-21-16.9-4.6-20.6z"/>
		<path class="st19" d="M11.8-88.9c0-6.3-7.1-11.7-7.1-11.7h-6.6c0,0-8.6,4.1-8.6,11.2s6,10.4,6,10.4v58.4c2.9,0.8,7.3-0.3,10.8-1.5
			v-56.6C6.2-78.6,11.8-82.6,11.8-88.9z"/>
		<path class="st20" d="M18.1-90.2c0-7.8-8.6-10.4-8.6-10.4H4.7c0,0,7.1,5.3,7.1,11.7c0,6.3-5.6,10.3-5.6,10.3v56.6
			c2.4-0.8,4.4-1.7,5.2-2.1v-53.4C11.4-77.5,18.1-82.4,18.1-90.2z"/>
		<line class="st21" x1="11.4" y1="-24.1" x2="11.4" y2="-23.3"/>
		<path class="st20" d="M-1.9-100.6h-6.7c0,0-8.6,3.7-8.6,10.4c0,6.7,6,11.2,6,11.2v54.7c0,0,1.1,2.2,6.7,3.7V-79c0,0-6-3.3-6-10.4
			S-1.9-100.6-1.9-100.6z"/>
		<linearGradient id="SVGID_13_" gradientUnits="userSpaceOnUse" x1="-22.5685" y1="41.8253" x2="49.5489" y2="41.8253">
			<stop  offset="0" style="stop-color:#18BED6"/>
			<stop  offset="0.9955" style="stop-color:#81D1E3"/>
		</linearGradient>
		<path class="st22" d="M-9.8,11c0,0,3.1,22,9.9,26.4s12.8-3.4,16.1-7.4l19.4,8.6C41.9,39.7,46.4,46,49,53.5
			c2.6,7.4-4.5,16.4-12.7,18.6c-8.2,2.2-15.5-3-15.5-3s8.2-4.5,3.7-10.4c-4.7-6.2-24.4-3.5-24.4-3.5C0,51.6-3.8,43.7-10.5,38.8
			s-12-10.8-12-20.6L-9.8,11z"/>
	</g>
</symbol>
<symbol  id="newSpike_3" viewBox="-50.8 -102.1 101.9 204.9">
	<g id="Layer_12_4_" class="st10">
		
			<radialGradient id="SVGID_14_" cx="9.0834" cy="43.9582" r="95.7922" gradientTransform="matrix(0.7876 0.6162 -0.3967 0.507 19.3691 16.0721)" gradientUnits="userSpaceOnUse">
			<stop  offset="0.177" style="stop-color:#9CDFE1"/>
			<stop  offset="1" style="stop-color:#00CCCC"/>
		</radialGradient>
		<path class="st23" d="M49.2,59.5c-0.2,0.9-0.5,1.7-0.9,2.5c-0.8,1.8-2.1,3.5-3.6,5c0,0-0.1,0.1-0.1,0.1c-0.4,0.4-0.8,0.7-1.2,1.1
			c-2.1,1.8-4.5,3.1-7.1,3.8c-2.6,0.7-5,0.7-7.2,0.3c-0.9-0.1-1.7-0.4-2.5-0.6c-0.4-0.1-0.8-0.2-1.1-0.4c-2.9-1-4.7-2.3-4.7-2.3
			S18.1,84,18.5,86.6c0.4,2.6,1.7,5,0.8,9.7c-1.3,6.4-8.6,6.5-11.5,1.9c-2.6-4.1-1.3-5-1.8-8.1c-0.5-3.1-3.7-5.6-5-8.7
			c-0.7-1.7-1.7-3.5-2.3-6.1C-0.8,79,1,81.3,1,81.3s-7,3.4-10.7,3.1c-3.7-0.4-14.5-4.5-16.4-11.9c-10,1.9-22.3-7.4-23.1-17.1
			C-50,45.6-46,33.8-37,30.8c5.6-1.9,8.9,1.1,11.5,0c2.6-1.1-0.8-5.6,0-9.3c0,0-5.6-6.7-6-14.1C-31.7-0.1-19.8-9.8-19.8-9.8
			s-2.2-6,0-9.3c2.2-3.4,8.6-5.2,8.6-5.2V-79c0,0-6-4.5-6-11.2c0-6.7,8.6-10.4,8.6-10.4h6.7h6.6h4.8c0,0,8.6,2.6,8.6,10.4
			c0,7.8-6.7,12.6-6.7,12.6v53.4c0.2-0.1,0.4-0.2,0.4-0.2s3,1.5,7.8,7.8c4.8,6.3,4.1,27.5,4.1,27.5s5.2,3.4,8.6,7.1
			c3.4,3.7,6.3,17.5,3.4,20.5c1.6,0.3,3,0.9,4.4,1.7c0.7,0.4,1.3,0.9,1.9,1.5c0.3,0.3,0.6,0.6,0.9,0.9c2.6,2.8,4.7,6.6,6.2,10.8
			c0.3,0.9,0.5,1.9,0.5,2.8C49.6,57.4,49.4,58.4,49.2,59.5z M0.1,55.2c0,0,0,0,0.1-0.1C0.2,55.1,0.1,55.1,0.1,55.2
			C0.1,55.1,0.1,55.1,0.1,55.2z"/>
	</g>
	<g id="Layer_13_5_">
		<linearGradient id="SVGID_15_" gradientUnits="userSpaceOnUse" x1="-5.572" y1="50.0485" x2="-5.572" y2="84.3621">
			<stop  offset="0.3685" style="stop-color:#18BED6"/>
			<stop  offset="0.9955" style="stop-color:#81D1E3"/>
		</linearGradient>
		<path class="st24" d="M0.1,55.2c0,3.5-7.3,4.2-10.7,2.7c-3.3-1.5-6.7-2.8-6.7-2.8c0.4,11-8.9,17.3-8.9,17.3
			c1.9,7.4,12.7,11.5,16.4,11.9C-6.1,84.7,3,81.3,3,81.3s-5.7-4.7-4.2-12.2c0.8-4.1,18.6-18.7,16-18.9C3.9,49.2,0.1,55.5,0.1,55.2z"
			/>
		<linearGradient id="SVGID_16_" gradientUnits="userSpaceOnUse" x1="15.6559" y1="55.7918" x2="3.8046" y2="82.2137">
			<stop  offset="0" style="stop-color:#18BED6"/>
			<stop  offset="0.7975" style="stop-color:#81D1E3"/>
		</linearGradient>
		<path class="st25" d="M20.9,69.1c0,0,8.1-5.1,5.7-9.2c-4.6-7.8-21-6.8-23.2-5.3c-3.2,2.1-4.7,7.1-5.2,12.6
			c-0.7,7.6,2.5,19.3,14.4,16.2C22.1,80.8,20.9,69.1,20.9,69.1z"/>
		<linearGradient id="SVGID_17_" gradientUnits="userSpaceOnUse" x1="-49.3253" y1="41.8524" x2="49.5489" y2="41.8524">
			<stop  offset="4.469546e-03" style="stop-color:#81D1E3"/>
			<stop  offset="0.3607" style="stop-color:#18BED6"/>
		</linearGradient>
		<path class="st26" d="M49,53.5c-2.6-7.4-7.1-13.8-13.4-14.9L16.3,30c-3.3,4.1-16.1,7.4-16.1,7.4L-9.8,11c0,0-14.9,6.7-15.6,10.4
			c-0.8,3.7,2.6,8.2,0,9.3c-2.6,1.1-6-1.9-11.5,0c-9,3-13,14.9-12.3,24.6c0.8,9.7,13,19,23.1,17.1c0,0,9.3-6.4,8.9-17.3
			c-0.7-6.5,3-13.6,6.3-11.3C-7.6,46,0,51.6,0.1,55.1c0,0,21.8-3,26.4,4.8c2.4,4.1-5.7,9.2-5.7,9.2s7.3,5.2,15.5,3
			C44.5,69.8,51.6,60.9,49,53.5z"/>
		<linearGradient id="SVGID_18_" gradientUnits="userSpaceOnUse" x1="16.2517" y1="24.8028" x2="36.8269" y2="24.8028">
			<stop  offset="0" style="stop-color:#006A9D"/>
			<stop  offset="0.3877" style="stop-color:#18BED6"/>
			<stop  offset="0.9955" style="stop-color:#81D1E3"/>
		</linearGradient>
		<path class="st27" d="M32.3,18.1c-3.3-3.7-8.6-7.1-8.6-7.1s-4.1,14.9-7.4,19l19.4,8.6C38.6,35.6,35.6,21.8,32.3,18.1z"/>
		<linearGradient id="SVGID_19_" gradientUnits="userSpaceOnUse" x1="-8.6008" y1="43.3595" x2="-8.6008" y2="58.6426">
			<stop  offset="0" style="stop-color:#00A8BC"/>
			<stop  offset="1" style="stop-color:#006682"/>
		</linearGradient>
		<path class="st28" d="M0.1,55.2C0.1,55.1,0.1,55.1,0.1,55.2C0,51.6-7.6,46-10.9,43.8c-3.3-2.2-7.1,4.8-6.3,11.3
			c0,0,3.4,1.3,6.7,2.8C-7.2,59.4,0.1,58.7,0.1,55.2z"/>
		<linearGradient id="SVGID_20_" gradientUnits="userSpaceOnUse" x1="5.1126" y1="-24.3172" x2="5.1126" y2="38.7636">
			<stop  offset="4.469546e-03" style="stop-color:#81D1E3"/>
			<stop  offset="1" style="stop-color:#18BED6"/>
		</linearGradient>
		<path class="st29" d="M19.6-16.5c-4.8-6.3-7.8-7.8-7.8-7.8s-0.1,0.1-0.4,0.2c-0.8,0.4-2.8,1.2-5.2,2.1c-3.5,1.2-7.9,2.2-10.8,1.5
			C-21-16.9-9.8,11-9.8,11s3.1,22,9.9,26.4s12.8-3.4,16.1-7.4c3.4-4.1,7.4-19,7.4-19S24.4-10.2,19.6-16.5z"/>
		<linearGradient id="SVGID_21_" gradientUnits="userSpaceOnUse" x1="-27.0968" y1="-6.5544" x2="-6.5" y2="5.3372">
			<stop  offset="4.469546e-03" style="stop-color:#81D1E3"/>
			<stop  offset="0.6123" style="stop-color:#18BED6"/>
			<stop  offset="1" style="stop-color:#006A9D"/>
		</linearGradient>
		<path class="st30" d="M-4.6-20.6c-5.6-1.5-6.7-3.7-6.7-3.7s-6.3,1.9-8.6,5.2c-2.2,3.3,0,9.3,0,9.3S-31.7-0.1-31.4,7.3
			c0.4,7.4,6,14.1,6,14.1C-24.7,17.7-9.8,11-9.8,11S-21-16.9-4.6-20.6z"/>
		<path class="st19" d="M11.8-88.9c0-6.3-7.1-11.7-7.1-11.7h-6.6c0,0-8.6,4.1-8.6,11.2s6,10.4,6,10.4v58.4c2.9,0.8,7.3-0.3,10.8-1.5
			v-56.6C6.2-78.6,11.8-82.6,11.8-88.9z"/>
		<path class="st20" d="M18.1-90.2c0-7.8-8.6-10.4-8.6-10.4H4.7c0,0,7.1,5.3,7.1,11.7c0,6.3-5.6,10.3-5.6,10.3v56.6
			c2.4-0.8,4.4-1.7,5.2-2.1v-53.4C11.4-77.5,18.1-82.4,18.1-90.2z"/>
		<line class="st21" x1="11.4" y1="-24.1" x2="11.4" y2="-23.3"/>
		<path class="st20" d="M-1.9-100.6h-6.7c0,0-8.6,3.7-8.6,10.4c0,6.7,6,11.2,6,11.2v54.7c0,0,1.1,2.2,6.7,3.7V-79c0,0-6-3.3-6-10.4
			S-1.9-100.6-1.9-100.6z"/>
		<linearGradient id="SVGID_22_" gradientUnits="userSpaceOnUse" x1="-22.5685" y1="41.8253" x2="49.5489" y2="41.8253">
			<stop  offset="0" style="stop-color:#18BED6"/>
			<stop  offset="0.9955" style="stop-color:#81D1E3"/>
		</linearGradient>
		<path class="st31" d="M-9.8,11c0,0,3.1,22,9.9,26.4s12.8-3.4,16.1-7.4l19.4,8.6C41.9,39.7,46.4,46,49,53.5
			c2.6,7.4-4.5,16.4-12.7,18.6c-8.2,2.2-15.5-3-15.5-3s8.2-4.5,3.7-10.4c-4.7-6.2-24.4-3.5-24.4-3.5C0,51.6-3.8,43.7-10.5,38.8
			s-12-10.8-12-20.6L-9.8,11z"/>
	</g>
</symbol>
<g>
	<g>
		<g>
			<path class="st32" d="M111.2,120H8.8c-4.9,0-8.8-3.9-8.8-8.8V8.8C0,3.9,3.9,0,8.8,0h102.4c4.9,0,8.8,3.9,8.8,8.8v102.4
				C120,116.1,116.1,120,111.2,120z"/>
		</g>
	</g>
</g>
<g>
	<defs>
		<path id="SVGID_157_" d="M111.2,120H8.8c-4.9,0-8.8-3.9-8.8-8.8V8.8C0,3.9,3.9,0,8.8,0h102.4c4.9,0,8.8,3.9,8.8,8.8v102.4
			C120,116.1,116.1,120,111.2,120z"/>
	</defs>
	<clipPath id="SVGID_23_">
		<use xlink:href="#SVGID_157_"  style="overflow:visible;"/>
	</clipPath>
	<g style="clip-path:url(#SVGID_23_);">
		<g>
			<g>
				<linearGradient id="SVGID_24_" gradientUnits="userSpaceOnUse" x1="38.5837" y1="138.2357" x2="47.7263" y2="100.4044">
					<stop  offset="0" style="stop-color:#BEBEBE"/>
					<stop  offset="1" style="stop-color:#F5F5F5"/>
				</linearGradient>
				<path style="fill:url(#SVGID_24_);" d="M61.9,155.6H21.2L22.6,92c0-7.6,6.2-13.8,13.8-13.8h13.2c7.6,0,13.8,6.2,13.8,13.8
					L61.9,155.6z"/>
				<linearGradient id="SVGID_25_" gradientUnits="userSpaceOnUse" x1="41.3284" y1="82.6041" x2="45.7639" y2="63.0354">
					<stop  offset="2.737430e-02" style="stop-color:#C7E7F9"/>
					<stop  offset="1" style="stop-color:#72C3F1"/>
				</linearGradient>
				<polygon style="fill:url(#SVGID_25_);" points="49.9,79.2 44.1,100.8 37.5,79.1 37.5,65.4 49.9,65.5 				"/>
				<path class="st49" d="M66.4,43.1c0,12.5-10.1,28-22.5,28s-22.5-15.5-22.5-28s10.1-22.7,22.5-22.7S66.4,30.6,66.4,43.1z"/>
				<path class="st51" d="M46.8,51.1c0.1,1.2-1.3,2.3-3,2.4s-3.2-0.8-3.3-2"/>
				<path class="st52" d="M31.2,42.8c0,0,2.7-5,6.9-4"/>
				<path class="st52" d="M57.5,43.9c0,0-2.6-5.1-6.9-4.1"/>
				<path class="st53" d="M49.1,60.2c0,1.7-7.6,4.1-12.1,0.2"/>
				<linearGradient id="SVGID_26_" gradientUnits="userSpaceOnUse" x1="53.8011" y1="110.2154" x2="85.7607" y2="110.2154">
					<stop  offset="0" style="stop-color:#F5F5F5"/>
					<stop  offset="1" style="stop-color:#E2E2E2"/>
				</linearGradient>
				<path style="fill:none;stroke:url(#SVGID_26_);stroke-width:9.7769;stroke-miterlimit:10;" d="M54.1,84.9
					c10.1,0.6,12.4,9.9,18.8,21.8c4.3,8,8,33.1,8,33.1"/>
				
					<linearGradient id="SVGID_27_" gradientUnits="userSpaceOnUse" x1="-1107.984" y1="108.0909" x2="-1082.209" y2="108.0909" gradientTransform="matrix(-1 0 0 1 -1077.1193 0)">
					<stop  offset="0" style="stop-color:#F5F5F5"/>
					<stop  offset="1" style="stop-color:#E2E2E2"/>
				</linearGradient>
				<path style="fill:none;stroke:url(#SVGID_27_);stroke-width:9.7769;stroke-miterlimit:10;" d="M30.6,84.5
					c-10.1,0.6-13.7,12.4-17.3,20.8c-5.3,12.4-2.6,30.6-2.6,30.6"/>
				<line class="st59" x1="36.2" y1="45.5" x2="36.5" y2="47.6"/>
				<line class="st59" x1="52.5" y1="45.5" x2="52.1" y2="47.6"/>
				<line class="st60" x1="33.2" y1="46.3" x2="36.9" y2="44.5"/>
				<line class="st60" x1="49.5" y1="46.3" x2="53.2" y2="44.5"/>
			</g>
			<linearGradient id="SVGID_28_" gradientUnits="userSpaceOnUse" x1="42.8075" y1="67.6093" x2="42.8075" y2="17.8311">
				<stop  offset="0" style="stop-color:#006A9D"/>
				<stop  offset="9.962218e-02" style="stop-color:#0675AC"/>
				<stop  offset="0.3129" style="stop-color:#1188C6"/>
				<stop  offset="0.5316" style="stop-color:#1995D9"/>
				<stop  offset="0.7572" style="stop-color:#1D9DE4"/>
				<stop  offset="1" style="stop-color:#1FA0E8"/>
			</linearGradient>
			<path class="st41" d="M54.3,28.8c0,0-8,5.6-17.1,6.3s-10.1,2.3-10.8,3.5s-2.8,3.9-2.5,9.3c0.3,5.5,4.2,14.3,6.1,16.2
				c1.9,1.9,3.7,3.5,3.7,3.5s-21.5-1.9-20.9-19.3c0.5-17.5,6.8-19.5,6.8-19.5s0.1-6.2,13.6-11.3C46,12.6,53.2,16.2,56.1,19
				c2,1.9,1.7,5.5,1.7,5.5s8.4-0.4,11.5,5.9c3.1,6.3,4.7,20.8,2.8,24.9s-9.5,8.8-11.5,9.1c-2,0.3-2.8-0.3-2.8-0.3s6.5-9.5,5.3-17.7
				S54.3,28.8,54.3,28.8z"/>
			<ellipse class="st49" cx="62.2" cy="47.8" rx="4.4" ry="6.1"/>
			<path class="st21" d="M30.1,44.8l9.9-0.3c0,0,0.5,2.9-0.9,4.3c-1.5,1.3-5.6,1.7-6.7,0.5C31.3,48.1,30.1,44.8,30.1,44.8z"/>
			<path class="st21" d="M56.6,44.8l-9.9-0.3c0,0-0.5,2.9,0.9,4.3c1.5,1.3,5.6,1.7,6.7,0.5C55.4,48.1,56.6,44.8,56.6,44.8z"/>
			<path class="st62" d="M30.1,44.8l9.9-0.3c0,0,0.5,2.9-0.9,4.3c-1.5,1.3-5.6,1.7-6.7,0.5C31.3,48.1,30.1,44.8,30.1,44.8z"/>
			<path class="st62" d="M56.6,44.8l-9.9-0.3c0,0-0.5,2.9,0.9,4.3c1.5,1.3,5.6,1.7,6.7,0.5C55.4,48.1,56.6,44.8,56.6,44.8z"/>
			<path class="st62" d="M40,44.5c0,0,1.6-0.9,3.5-0.9c1.9,0,3.7,1.3,3.7,1.3"/>
			<path class="st62" d="M56.6,44.8c0,0,3.2-2.4,5.1-3.5c1.6-0.9,1.9,0.5,1.9,0.5"/>
			<line class="st62" x1="30.1" y1="44.8" x2="24.6" y2="42.3"/>
		</g>
		<linearGradient id="SVGID_29_" gradientUnits="userSpaceOnUse" x1="42.1143" y1="76.8115" x2="42.1143" y2="113.9487">
			<stop  offset="0" style="stop-color:#E0E0E0"/>
			<stop  offset="3.053077e-02" style="stop-color:#EFEFEF"/>
			<stop  offset="6.899197e-02" style="stop-color:#FAFAFA"/>
			<stop  offset="0.1105" style="stop-color:#FEFEFE"/>
			<stop  offset="0.6136" style="stop-color:#FBFBFB"/>
			<stop  offset="1" style="stop-color:#F2F2F2"/>
		</linearGradient>
		<path class="st42" d="M37.4,78.8v-2.7c0,0-4.4,2.3-5.5,3.8c-1.1,1.5-3.9,5.5-3.9,5.5h4.7l-2.1,8.4l13.6,20.8L56,92.2l-3.7-7.1
			l3.9-0.5c0,0,0.1-1.9-2-4.7c-2.1-2.8-4.4-3.3-4.4-3.3l0.1,2.6l-5.7,19.2L37.4,78.8z"/>
		<path class="st64" d="M37.4,75.4c-1.7,0-4.7,2.4-4.8,6.5s0.4,7.7,0.4,7.7"/>
		<g>
			
				<linearGradient id="SVGID_30_" gradientUnits="userSpaceOnUse" x1="35.7073" y1="110.3218" x2="37.9237" y2="100.5436" gradientTransform="matrix(1 -7.075778e-03 7.075778e-03 1 -4.5536 -3.6702)">
				<stop  offset="8.555371e-03" style="stop-color:#ABABAB"/>
				<stop  offset="0.1257" style="stop-color:#DEDEDE"/>
				<stop  offset="0.7232" style="stop-color:#DCDCDC"/>
				<stop  offset="0.8944" style="stop-color:#D9D9D9"/>
				<stop  offset="1" style="stop-color:#40403F"/>
			</linearGradient>
			<path style="fill:none;stroke:url(#SVGID_30_);stroke-width:0.8665;stroke-miterlimit:10;" d="M29.2,95.7c0,0,0.6,8.9,3.4,10.2
				c2.8,1.3,4.5,0.4,4.5,0.4"/>
			<path class="st66" d="M37.8,107.1c-0.3,0.1-1.3-0.1-1.4-0.5c-0.1-0.4,0.7-1,1-1.1c0.3-0.1,0.6,0.2,0.7,0.7
				C38.3,106.6,38.2,107,37.8,107.1z"/>
		</g>
		<g>
			
				<linearGradient id="SVGID_31_" gradientUnits="userSpaceOnUse" x1="-1139.9979" y1="194.1651" x2="-1137.7815" y2="184.3869" gradientTransform="matrix(-0.9885 0.1512 0.1512 0.9885 -1119.4249 86.6476)">
				<stop  offset="3.184468e-02" style="stop-color:#D5D5D5"/>
				<stop  offset="0.4984" style="stop-color:#D3D3D3"/>
				<stop  offset="0.6665" style="stop-color:#CCCCCC"/>
				<stop  offset="0.7863" style="stop-color:#C0C0C0"/>
				<stop  offset="0.8832" style="stop-color:#B0B0AF"/>
				<stop  offset="0.9651" style="stop-color:#9A9A9A"/>
				<stop  offset="1" style="stop-color:#8E8E8E"/>
			</linearGradient>
			<path style="fill:none;stroke:url(#SVGID_31_);stroke-width:0.8665;stroke-miterlimit:10;" d="M37.8,95.2c0,0,0.8,8.9-1.7,10.7
				c-2.6,1.7-4.4,1.1-4.4,1.1"/>
			<path class="st66" d="M31.1,107.8c0.3,0,1.2-0.3,1.3-0.7c0-0.5-0.8-0.9-1.1-0.9c-0.3,0-0.6,0.3-0.6,0.8
				C30.5,107.4,30.8,107.8,31.1,107.8z"/>
		</g>
		<path class="st64" d="M29.6,96.6c0,0-0.8-6.4,3.6-6.4s4.8,6,4.8,6"/>
		<path class="st64" d="M50,75.3c1.5,0,4.7,1.8,4.6,4s-3.3,10.5-1.9,14.7s0.6,7.3,0.6,7.3"/>
		<radialGradient id="SVGID_32_" cx="52.578" cy="103.591" r="3.3771" gradientUnits="userSpaceOnUse">
			<stop  offset="3.184468e-02" style="stop-color:#EAEAEA"/>
			<stop  offset="0.1887" style="stop-color:#E1E1E1"/>
			<stop  offset="0.4419" style="stop-color:#C9C9C9"/>
			<stop  offset="0.7581" style="stop-color:#A3A3A3"/>
			<stop  offset="1" style="stop-color:#818181"/>
		</radialGradient>
		<circle style="fill:url(#SVGID_32_);stroke:#585858;stroke-width:1.2997;stroke-miterlimit:10;" cx="52.6" cy="103.6" r="3.4"/>
		<linearGradient id="SVGID_33_" gradientUnits="userSpaceOnUse" x1="52.565" y1="103.6483" x2="52.9297" y2="102.0395">
			<stop  offset="3.184466e-02" style="stop-color:#D6E7EB"/>
			<stop  offset="0.5165" style="stop-color:#D4E5EA"/>
			<stop  offset="0.6911" style="stop-color:#CEE1E7"/>
			<stop  offset="0.8155" style="stop-color:#C2DAE1"/>
			<stop  offset="0.9154" style="stop-color:#B1D0D9"/>
			<stop  offset="1" style="stop-color:#9CC3CE"/>
		</linearGradient>
		<circle style="fill:url(#SVGID_33_);stroke:#006682;stroke-width:0.4332;stroke-miterlimit:10;" cx="52.6" cy="103.6" r="1.5"/>
		<linearGradient id="SVGID_34_" gradientUnits="userSpaceOnUse" x1="52.565" y1="103.6483" x2="52.9297" y2="102.0395">
			<stop  offset="3.184466e-02" style="stop-color:#EAEAEA"/>
			<stop  offset="0.4612" style="stop-color:#E8E8E8"/>
			<stop  offset="0.6158" style="stop-color:#E1E1E1"/>
			<stop  offset="0.726" style="stop-color:#D5D5D5"/>
			<stop  offset="0.8151" style="stop-color:#C5C5C5"/>
			<stop  offset="0.8915" style="stop-color:#AFAFAF"/>
			<stop  offset="0.9579" style="stop-color:#949494"/>
			<stop  offset="1" style="stop-color:#7F7F7F"/>
		</linearGradient>
		<circle style="fill:url(#SVGID_34_);stroke:#40403F;stroke-width:0.4332;stroke-miterlimit:10;" cx="52.6" cy="103.6" r="1.5"/>
		<path class="st71" d="M50.8,104.9c-0.3-0.4-0.5-0.8-0.5-1.3c0-1.2,1-2.2,2.2-2.2c0.8,0,1.5,0.4,1.9,1.1"/>
		<ellipse transform="matrix(0.8384 -0.5451 0.5451 0.8384 -48.146 45.65)" class="st32" cx="52.9" cy="104" rx="0.7" ry="0.4"/>
		<linearGradient id="SVGID_35_" gradientUnits="userSpaceOnUse" x1="42.2117" y1="95.0212" x2="43.4025" y2="90.0937">
			<stop  offset="0" style="stop-color:#BE15CC"/>
			<stop  offset="1" style="stop-color:#DB7CE2"/>
		</linearGradient>
		<polygon style="fill:url(#SVGID_35_);" points="44.2,98.3 40.6,88 47.2,88 		"/>
		<rect x="54.8" y="95.2" class="st73" width="7.4" height="3.3"/>
		<rect x="54.8" y="95.2" class="st74" width="7.4" height="0.9"/>
	</g>
</g>
</svg>
