<svg xmlns="http://www.w3.org/2000/svg" xmlns:xlink="http://www.w3.org/1999/xlink" viewBox="0 0 237 25.68"><defs><style>.a{fill:none;}.b{fill:#fff;fill-rule:evenodd;}.c{clip-path:url(#a);}</style><clipPath id="a" transform="translate(0 0)"><rect class="a" width="237" height="25.68"/></clipPath></defs><path class="b" d="M233.07,2.4h-.22V3.61h.43a.82.82,0,0,0,.55-.11.57.57,0,0,0,.22-.44c0-.22-.11-.33-.33-.44s-.33-.22-.65-.22ZM233,1.64h.76a1.59,1.59,0,0,1,.77.22,1.15,1.15,0,0,1,.54,1,1,1,0,0,1-.32.77,1.54,1.54,0,0,1-.66.21.84.84,0,0,1,.55.22,1.11,1.11,0,0,1,.32.88v.65h-1a1.14,1.14,0,0,0-.11-.54c0-.22,0-.44-.11-.44s-.11-.22-.33-.33a.38.38,0,0,1-.32-.11h-.44V5.57h-1.09V1.64H233Zm.43-1a2.76,2.76,0,0,0-2.07.87,3,3,0,0,0-.88,2.08,2.77,2.77,0,0,0,.88,2.07,2.93,2.93,0,1,0,2.07-5Zm0-.55a3.19,3.19,0,0,1,2.52,1.09A3.59,3.59,0,0,1,237,3.72a3.18,3.18,0,0,1-1.09,2.51,3.72,3.72,0,0,1-5,0,3.49,3.49,0,0,1-1-2.51A3.26,3.26,0,0,1,231,1.09a3.23,3.23,0,0,1,2.4-1Zm-23.71,1,6.78,17.49h.11l3.6-17.49h5l-5.35,24.48h-5.58L207.5,8.41h-.11l-3.61,17.16h-5.13L204,1.09Z" transform="translate(0 0)"/><path class="b" d="M187,.11c6.88,0,11.25,3.61,11.25,10.49,0,8-4.92,15.08-13.77,15.08-7.1,0-11.25-3.94-11.25-10.82C173.08,6.88,178.43.11,187,.11m-2.52,21c5.47,0,8.2-5.57,8.2-10.16,0-3.39-1.53-6.34-5.68-6.34-5.69,0-8.31,5.57-8.31,10.27,0,3.28,1.75,6.23,5.79,6.23" transform="translate(0 0)"/><path class="b" d="M152.43,1.09h12.13c4.59-.11,7.54,1.64,7.54,6.45a6.61,6.61,0,0,1-5.8,6.56v.1c2.08.66,2.63,2.41,2.63,4.38,0,1.09-.22,2.73-.22,4.26a10.65,10.65,0,0,0,.33,2.84h-5.47a8.49,8.49,0,0,1-.22-1.64c0-1.64.33-3.28.33-5,0-2.4-1.42-3-3.71-3h-5.25l-2.07,9.62h-5.58l5.36-24.59Zm3.17,11.15h5.13c3,0,5.79-1.09,5.79-3.94,0-2.62-2-3.06-4.15-3.06h-5.24l-1.53,7Z" transform="translate(0 0)"/><polygon class="b" points="129.26 1.09 148.06 1.09 147.18 5.57 133.74 5.57 132.65 10.93 145.11 10.93 144.12 15.08 131.78 15.08 130.47 21.09 144.12 21.09 143.14 25.57 124.13 25.57 129.26 1.09 129.26 1.09"/><polygon class="b" points="102.82 1.09 108.5 1.09 115.39 18.57 115.5 18.57 118.99 1.09 124.13 1.09 118.77 25.57 113.31 25.57 106.32 8.41 106.32 8.41 102.71 25.57 97.58 25.57 102.82 1.09 102.82 1.09"/><g class="c"><polygon class="b" points="80.2 1.09 99.11 1.09 98.12 5.57 84.79 5.57 83.59 10.93 96.05 10.93 95.17 15.08 82.72 15.08 81.4 21.09 95.06 21.09 94.08 25.57 75.07 25.57 80.2 1.09 80.2 1.09"/><path class="b" d="M66.87,22.51h0a7.9,7.9,0,0,1-6.34,3.06c-6.88,0-10.92-3.94-10.92-10.82C49.61,6.88,54.74,0,63.16,0,69,0,73.65,2.62,73.65,8.63H68.18c-.11-3-2-4.15-5-4.15-5.58,0-8.09,5.57-8.09,10.27,0,3.39,1.64,6.23,5.57,6.23,4.16,0,5.9-2.19,6.89-5.25H61.84l.88-4H73.21L70.37,24.91H67v-2.4Z" transform="translate(0 0)"/><polygon class="b" points="30.7 1.09 49.5 1.09 48.62 5.57 35.18 5.57 34.09 10.93 46.55 10.93 45.56 15.08 33.22 15.08 31.91 21.09 45.56 21.09 44.58 25.57 25.57 25.57 30.7 1.09 30.7 1.09"/><path class="b" d="M5.35,1.09H17.48C22.07,1,25,2.73,25,7.54a6.6,6.6,0,0,1-5.79,6.56v.1c2.08.66,2.62,2.41,2.62,4.38,0,1.09-.22,2.73-.22,4.26A10.65,10.65,0,0,0,22,25.68H16.5A8.49,8.49,0,0,1,16.28,24c0-1.64.33-3.28.33-5,0-2.4-1.42-3-3.72-3H7.65L5.57,25.68H0L5.35,1.09ZM8.52,12.24h5.14c2.95,0,5.79-1.09,5.79-3.94,0-2.62-2-3.06-4.15-3.06H10.05l-1.53,7Z" transform="translate(0 0)"/></g></svg>