<?xml version="1.0" encoding="utf-8"?>
<!-- Generator: Adobe Illustrator 25.1.0, SVG Export Plug-In . SVG Version: 6.00 Build 0)  -->
<svg version="1.1" id="Layer_1" xmlns="http://www.w3.org/2000/svg" xmlns:xlink="http://www.w3.org/1999/xlink" x="0px" y="0px"
	 viewBox="0 0 1131.5 138" style="enable-background:new 0 0 1131.5 138;" xml:space="preserve">
<style type="text/css">
	.st0{fill:#FFFFFF;}
	.st1{fill:none;stroke:#BFD9E0;stroke-miterlimit:10;}
	.st2{fill-rule:evenodd;clip-rule:evenodd;fill:#FFFFFF;}
</style>
<g>
	<path class="st0" d="M34.4,126.6c0.4-2.2,0-4-1.2-5.2c-1.2-1.2-3.7-2.4-7.5-3.7c-4.2-1.4-7.2-3-9-4.8c-1.7-1.8-2.3-4.4-1.6-7.9
		c0.5-3.4,2.3-6.5,5.1-8.5c3-2.1,6.6-3.1,10.3-3c3.9,0,6.9,1.2,8.9,3.4s2.7,5.4,1.9,9.4l-0.1,0.2h-3.6c0.5-2.9,0.1-5.2-1.2-6.9
		s-3.5-2.5-6.5-2.5c-2.6-0.1-5.2,0.7-7.3,2.2c-1.8,1.3-3.1,3.2-3.5,5.5c-0.4,2.3-0.1,4,1,5.2s3.6,2.4,7.6,3.7c4.2,1.4,7.2,3,8.9,4.8
		c1.8,1.8,2.3,4.4,1.7,7.8c-0.5,3.5-2.4,6.6-5.3,8.6c-3.3,2-7.1,3-10.9,2.8c-3.4,0.1-6.7-1-9.4-3.1c-2.5-2.1-3.2-5.3-2.3-9.7
		l0.1-0.2h3.6c-0.6,3.5-0.1,5.9,1.6,7.3c2,1.4,4.5,2.1,7,2c2.8,0.1,5.5-0.7,7.8-2.2C32.5,130.8,33.9,128.9,34.4,126.6z"/>
	<path class="st0" d="M81.3,123.7l0.1,0.2c-0.8,4.9-2.6,8.4-5.5,10.7c-3.1,2.3-6.9,3.5-10.8,3.3c-3.8,0.1-7.3-1.8-9.3-5
		c-2.2-3.3-2.9-7.6-1.9-12.7l1.6-9c1-5.6,3.1-9.9,6.3-13c3-3,7.1-4.7,11.3-4.7c4,0,7.1,1.2,9.3,3.7s2.8,5.9,1.9,10.4l-0.1,0.2h-3.6
		c0.6-3.7,0.3-6.3-1.1-8s-3.8-2.5-7-2.5c-2.9,0-5.7,1.3-8.2,3.9c-2.6,2.8-4.3,6.2-4.8,9.9l-1.6,9c-0.8,4.4-0.5,7.8,1,10.3
		c1.5,2.5,4.2,3.9,7,3.7c2.8,0.1,5.6-0.9,7.8-2.6c2.1-1.7,3.5-4.4,4.2-7.9L81.3,123.7z"/>
	<path class="st0" d="M99,137.4h-3.9l7.8-43.2h3.9L99,137.4z"/>
	<path class="st0" d="M142.2,116.8h-18l-3,16.9h20.7l-0.7,3.8h-24.7l7.8-43.2H149l-0.7,3.8h-20.7l-2.7,15h18L142.2,116.8z"/>
	<path class="st0" d="M186.4,137.4h-3.8l-15.1-35.8h-0.2l-6.4,35.8h-3.9l7.8-43.2h3.9l15.1,35.8h0.2l6.4-35.8h3.8L186.4,137.4z"/>
	<path class="st0" d="M236.1,98h-12.2l-7.1,39.4h-3.9l7.1-39.4h-11.7l0.7-3.8h27.8L236.1,98z"/>
	<path class="st0" d="M247.8,137.4h-3.9l7.8-43.2h3.9L247.8,137.4z"/>
	<path class="st0" d="M290.8,117.6h-18l-3.6,19.9h-3.9l7.8-43.2h24.6l-0.7,3.8h-20.7l-2.9,15.8h18L290.8,117.6z"/>
	<path class="st0" d="M308.7,137.4h-3.9l7.8-43.2h3.9L308.7,137.4z"/>
	<path class="st0" d="M355.5,123.7l0.1,0.2c-0.8,4.9-2.6,8.4-5.5,10.7c-3.1,2.3-6.9,3.5-10.8,3.3c-3.8,0.1-7.3-1.8-9.3-5
		c-2.2-3.3-2.9-7.6-1.9-12.7l1.6-9c1-5.6,3.1-9.9,6.3-13c3-3,7.1-4.7,11.3-4.7c4,0,7.1,1.2,9.3,3.7s2.8,5.9,1.9,10.4l-0.1,0.2h-3.6
		c0.7-3.7,0.3-6.3-1.1-8c-1.4-1.7-3.8-2.5-7-2.5c-2.9,0-5.7,1.3-8.2,3.9c-2.6,2.7-4.3,6.2-4.9,9.9l-1.6,9c-0.8,4.4-0.5,7.8,1,10.3
		c1.5,2.5,4.2,3.9,7,3.7c2.8,0.1,5.6-0.9,7.8-2.6c2.1-1.7,3.6-4.4,4.2-7.9H355.5z"/>
	<path class="st0" d="M440.4,116.8h-18l-3,16.9H440l-0.7,3.8h-24.6l7.8-43.2h24.6l-0.7,3.8h-20.7l-2.7,15h18L440.4,116.8z"/>
	<path class="st0" d="M471.9,112l13.8-17.8h4.3l0.1,0.2l-16.5,21.2l9.4,21.9h-4.6l-7.7-18.4l-14.3,18.4H452l-0.1-0.2l17.1-21.7
		l-9.1-21.3h4.6L471.9,112z"/>
	<path class="st0" d="M504.2,121.3l-2.9,16.1h-3.9l7.8-43.2h13.8c3.7,0,6.5,1.3,8.4,3.9s2.5,5.8,1.8,9.7c-0.5,3.8-2.3,7.3-5.1,10
		c-2.8,2.4-6.3,3.7-10,3.6L504.2,121.3z M504.8,117.5h9.9c2.6,0,5.2-1,7-2.9c1.9-1.8,3.2-4.2,3.7-6.8c0.5-2.9,0.2-5.3-1-7.1
		c-1.2-1.8-3.2-2.7-6.1-2.7h-9.9L504.8,117.5z"/>
	<path class="st0" d="M565,116.8h-18l-3,16.9h20.7l-0.7,3.8h-24.6l7.8-43.2h24.6l-0.7,3.8h-20.7l-2.7,15h18L565,116.8z"/>
	<path class="st0" d="M587.1,118.6l-3.4,18.9h-3.9l7.8-43.2h13.8c3.8,0,6.7,1.1,8.6,3.2s2.5,5.2,1.8,9c-0.4,2.3-1.3,4.5-2.7,6.4
		c-1.4,1.7-3.2,3-5.3,3.7c1.8,0.6,3.3,2,4,3.7c0.7,2,0.9,4.2,0.4,6.3l-0.8,4.4c-0.2,1.1-0.4,2.3-0.5,3.4c-0.1,0.8,0,1.5,0.2,2.3
		l-0.1,0.7h-4c-0.1-0.9-0.1-1.8,0-2.7c0.2-1.2,0.3-2.4,0.6-3.7l0.8-4.3c0.5-2.7,0.2-4.8-0.8-6.1s-2.8-2-5.3-2L587.1,118.6z
		 M587.8,114.8h9.9c2.5,0.1,4.9-0.6,6.9-2.1c1.8-1.6,3-3.8,3.4-6.1c0.5-2.9,0.2-5.1-0.9-6.5s-3.2-2.1-6.3-2.1h-9.9L587.8,114.8z"/>
	<path class="st0" d="M627.3,137.4h-3.9l7.8-43.2h3.8L627.3,137.4z"/>
	<path class="st0" d="M670.5,116.8h-18l-3,16.9h20.7l-0.7,3.8h-24.7l7.8-43.2h24.6l-0.7,3.8h-20.7l-2.7,15h18L670.5,116.8z"/>
	<path class="st0" d="M714.7,137.4h-3.8l-15.1-35.8h-0.2l-6.4,35.8h-3.9l7.8-43.2h3.9L712,130h0.2l6.5-35.8h3.8L714.7,137.4z"/>
	<path class="st0" d="M761.7,123.7l0.1,0.2c-0.8,4.9-2.6,8.4-5.5,10.7c-3.1,2.3-6.9,3.5-10.8,3.3c-3.8,0.1-7.3-1.8-9.3-5
		c-2.2-3.3-2.8-7.6-1.9-12.7l1.6-9c1-5.6,3.1-9.9,6.3-13c3-3,7.1-4.7,11.3-4.7c4,0,7.1,1.2,9.3,3.7s2.8,5.9,1.9,10.4l-0.1,0.2H761
		c0.7-3.7,0.3-6.3-1.1-8c-1.4-1.7-3.8-2.5-7-2.5c-2.9,0-5.7,1.3-8.2,3.9c-2.6,2.7-4.3,6.2-4.8,9.9l-1.6,9c-0.8,4.4-0.5,7.8,1,10.3
		c1.5,2.5,4.2,3.9,7,3.7c2.8,0.1,5.6-0.9,7.8-2.6c2.1-1.7,3.5-4.4,4.2-7.9L761.7,123.7z"/>
	<path class="st0" d="M801.1,116.8h-18l-3,16.9h20.7l-0.7,3.8h-24.7l7.8-43.2h24.6l-0.7,3.8h-20.7l-2.7,15h18L801.1,116.8z"/>
	<path class="st0" d="M890.4,123.7l0.1,0.2c-0.8,4.9-2.6,8.4-5.5,10.7c-3.1,2.3-6.9,3.5-10.8,3.3c-3.8,0.1-7.3-1.8-9.3-5
		c-2.2-3.3-2.9-7.6-1.9-12.7l1.6-9c1-5.6,3.1-9.9,6.3-13c3-3,7.1-4.7,11.3-4.7c4,0,7.1,1.2,9.3,3.7s2.9,5.9,1.9,10.4l-0.1,0.2h-3.6
		c0.6-3.7,0.3-6.3-1.1-8s-3.8-2.5-7-2.5c-2.9,0-5.7,1.3-8.2,3.9c-2.6,2.8-4.3,6.2-4.8,9.9l-1.6,9c-0.8,4.4-0.5,7.8,1,10.3
		c1.5,2.5,4.2,3.9,7,3.7c2.8,0.1,5.6-0.9,7.8-2.6c2.2-1.7,3.6-4.4,4.2-7.9L890.4,123.7z"/>
	<path class="st0" d="M929.9,116.8h-18l-3,16.9h20.7l-0.7,3.8h-24.7l7.8-43.2h24.6L936,98h-20.8l-2.7,15h18L929.9,116.8z"/>
	<path class="st0" d="M974.1,137.4h-3.8l-15.1-35.8H955l-6.5,35.8h-3.9l7.8-43.2h3.9l15.1,35.8h0.2l6.4-35.8h3.8L974.1,137.4z"/>
	<path class="st0" d="M1023.8,98h-12.2l-7.1,39.4h-3.9l7.1-39.4H996l0.7-3.8h27.8L1023.8,98z"/>
	<path class="st0" d="M1057.2,116.8h-18l-3,16.9h20.7l-0.7,3.8h-24.6l7.8-43.2h24.6l-0.7,3.8h-20.7l-2.7,15h18L1057.2,116.8z"/>
	<path class="st0" d="M1079.3,118.6l-3.4,18.9h-3.9l7.8-43.2h13.8c3.8,0,6.7,1.1,8.6,3.2c1.9,2.2,2.5,5.2,1.8,9
		c-0.4,2.3-1.3,4.5-2.7,6.4c-1.4,1.7-3.2,3-5.3,3.7c1.8,0.6,3.3,2,4,3.7c0.7,2,0.9,4.2,0.4,6.3l-0.8,4.4c-0.2,1.1-0.4,2.3-0.5,3.4
		c-0.1,0.8,0,1.5,0.2,2.3l-0.1,0.7h-4c-0.1-0.9-0.1-1.8,0-2.7c0.1-1.2,0.3-2.4,0.6-3.7l0.8-4.3c0.5-2.7,0.2-4.8-0.8-6.1
		s-2.8-2-5.3-2L1079.3,118.6z M1079.9,114.8h9.9c2.5,0.1,4.9-0.6,6.9-2.1c1.8-1.6,3-3.8,3.3-6.1c0.5-2.9,0.2-5.1-0.9-6.5
		c-1.1-1.4-3.2-2.1-6.3-2.1h-9.9L1079.9,114.8z"/>
	<line class="st1" x1="7.5" y1="47.5" x2="1131.5" y2="47.5"/>
	<path class="st2" d="M199.2,9.3l6.2,16h0.1l3.3-16h4.6l-4.9,22.4h-5.1L197.2,16h-0.1l-3.3,15.7h-4.7L194,9.3H199.2L199.2,9.3z
		 M220.9,8.4c0.9,0,1.7,0.3,2.3,1c0.6,0.6,1,1.4,1,2.3c0,0.9-0.3,1.7-1,2.3c-0.6,0.6-1.4,0.9-2.3,0.9c-0.9,0-1.7-0.3-2.3-0.9
		c-0.6-0.6-0.9-1.4-0.9-2.3c0-1,0.3-1.8,1-2.4C219.3,8.7,220,8.4,220.9,8.4L220.9,8.4z M220.9,8.9c-0.8,0-1.4,0.3-1.9,0.8
		c-0.5,0.5-0.8,1.2-0.8,1.9c0,0.8,0.3,1.4,0.8,1.9c0.5,0.5,1.2,0.8,1.9,0.8c0.7,0,1.4-0.3,1.9-0.8c0.5-0.5,0.8-1.2,0.8-1.9
		c0-0.7-0.3-1.4-0.8-1.9C222.3,9.2,221.6,8.9,220.9,8.9L220.9,8.9z M220.5,9.8c0.4,0,0.7,0,0.7,0c0.3,0,0.5,0.1,0.7,0.2
		c0.3,0.2,0.5,0.5,0.5,0.9c0,0.3-0.1,0.5-0.3,0.7c-0.2,0.1-0.4,0.2-0.6,0.2c0.2,0,0.4,0.1,0.5,0.2c0.2,0.2,0.3,0.4,0.3,0.8v0.3
		c0,0,0,0.1,0,0.1c0,0,0,0.1,0,0.1l0,0.1h-0.9c0-0.1,0-0.3-0.1-0.5c0-0.2,0-0.4-0.1-0.4c0-0.1-0.1-0.2-0.3-0.3c-0.1,0-0.2,0-0.3-0.1
		l-0.2,0h-0.2v1.3h-1V9.8l0.2,0C219.8,9.8,220.1,9.8,220.5,9.8L220.5,9.8z M220.6,10.5h-0.2v1.1h0.4c0.2,0,0.4,0,0.5-0.1
		c0.1-0.1,0.2-0.2,0.2-0.4c0-0.2-0.1-0.3-0.3-0.4C221.1,10.5,220.9,10.5,220.6,10.5L220.6,10.5z"/>
	<path class="st2" d="M176.1,27.6c5,0,7.5-5.1,7.5-9.3c0-3.1-1.4-5.8-5.2-5.8c-5.2,0-7.6,5.1-7.6,9.4
		C170.8,24.9,172.4,27.6,176.1,27.6 M178.4,8.4c6.3,0,10.3,3.3,10.3,9.6c0,7.3-4.5,13.8-12.6,13.8c-6.5,0-10.3-3.6-10.3-9.9
		C165.7,14.6,170.6,8.4,178.4,8.4"/>
	<path class="st2" d="M149.7,19.5h4.7c2.7,0,5.3-1,5.3-3.6c0-2.4-1.8-2.8-3.8-2.8h-4.8L149.7,19.5L149.7,19.5z M146.8,9.3h11.1
		c4.2-0.1,6.9,1.5,6.9,5.9c0,3-2.2,5.6-5.3,6v0.1c1.9,0.6,2.4,2.2,2.4,4c0,1-0.2,2.5-0.2,3.9c0,1,0.1,1.9,0.3,2.6h-5
		c-0.1-0.5-0.2-1-0.2-1.5c0-1.5,0.3-3,0.3-4.6c0-2.2-1.3-2.7-3.4-2.7h-4.8l-1.9,8.8h-5.1L146.8,9.3L146.8,9.3z"/>
	<polygon class="st2" points="125.6,9.3 142.8,9.3 142,13.4 129.7,13.4 128.7,18.3 140.1,18.3 139.2,22.1 127.9,22.1 126.7,27.6 
		139.2,27.6 138.3,31.7 120.9,31.7 125.6,9.3 	"/>
	<polygon class="st2" points="101.4,9.3 106.6,9.3 112.9,25.3 113,25.3 116.2,9.3 120.9,9.3 116,31.7 111,31.7 104.6,16 104.6,16 
		101.3,31.7 96.6,31.7 101.4,9.3 	"/>
	<polygon class="st2" points="80.7,9.3 98,9.3 97.1,13.4 84.9,13.4 83.8,18.3 95.2,18.3 94.4,22.1 83,22.1 81.8,27.6 94.3,27.6 
		93.4,31.7 76,31.7 80.7,9.3 	"/>
	<path class="st2" d="M68.5,28.9L68.5,28.9c-1.6,2-3.7,2.8-5.8,2.8c-6.3,0-10-3.6-10-9.9c0-7.2,4.7-13.5,12.4-13.5
		c5.3,0,9.6,2.4,9.6,7.9h-5c-0.1-2.7-1.8-3.8-4.6-3.8c-5.1,0-7.4,5.1-7.4,9.4c0,3.1,1.5,5.7,5.1,5.7c3.8,0,5.4-2,6.3-4.8h-5.2
		l0.8-3.7h9.6l-2.6,12.1h-3.1V28.9L68.5,28.9z"/>
	<polygon class="st2" points="35.4,9.3 52.6,9.3 51.8,13.4 39.5,13.4 38.5,18.3 49.9,18.3 49,22.1 37.7,22.1 36.5,27.6 49,27.6 
		48.1,31.7 30.7,31.7 35.4,9.3 	"/>
	<path class="st2" d="M15.1,19.5h4.7c2.7,0,5.3-1,5.3-3.6c0-2.4-1.8-2.8-3.8-2.8h-4.8L15.1,19.5L15.1,19.5z M12.2,9.3h11.1
		c4.2-0.1,6.9,1.5,6.9,5.9c0,3-2.2,5.6-5.3,6v0.1c1.9,0.6,2.4,2.2,2.4,4c0,1-0.2,2.5-0.2,3.9c0,1,0.1,1.9,0.3,2.6h-5
		c-0.1-0.5-0.2-1-0.2-1.5c0-1.5,0.3-3,0.3-4.6c0-2.2-1.3-2.7-3.4-2.7h-4.8l-1.9,8.8H7.3L12.2,9.3L12.2,9.3z"/>
</g>
</svg>
