<svg xmlns="http://www.w3.org/2000/svg" viewBox="0 0 173.34 20.84"><defs><style>.a{fill:#fff;}.b,.c,.d{fill:none;stroke:#fff;stroke-linecap:round;stroke-linejoin:round;stroke-width:2px;}.c{stroke-dasharray:0 4.67;}.d{stroke-dasharray:0 5;}</style></defs><path class="a" d="M48.84,15.25l.23,1.32h.07l.24-1.32L51.49,6.3h3.62L50.74,20.57H47.43L43.06,6.3h3.62Z"/><path class="a" d="M72.41,2.89H68.94V0h3.47Zm0,17.68H68.94V6.3h3.47Z"/><path class="a" d="M93.09,20.84a5.53,5.53,0,0,1-4.44-2,7.55,7.55,0,0,1-1.66-5v-.52a8.37,8.37,0,0,1,1.57-5.24,5,5,0,0,1,4.22-2,4.92,4.92,0,0,1,4,1.74,7.15,7.15,0,0,1,1.44,4.7v2.1H90.59l0,.08A3.9,3.9,0,0,0,91.41,17a2.5,2.5,0,0,0,2,.91,6.12,6.12,0,0,0,1.91-.26A8.35,8.35,0,0,0,97,16.81L98,19.19a6.34,6.34,0,0,1-2.06,1.18A7.91,7.91,0,0,1,93.09,20.84ZM92.78,9a1.76,1.76,0,0,0-1.52.82A4.63,4.63,0,0,0,90.57,12l0,.07h4.25v-.35a3.34,3.34,0,0,0-.52-1.95A1.77,1.77,0,0,0,92.78,9Z"/><path class="a" d="M123.58,15.46h.07l1.68-9.16h3.25l-3.27,14.27h-2.89L120,12.08H120l-2.38,8.49H114.7L111.43,6.3h3.25l1.7,9.14h.07l2.4-9.14h2.31Z"/><line class="b" x1="149" y1="13.92" x2="149" y2="13.92"/><line class="c" x1="153.67" y1="13.92" x2="170.01" y2="13.92"/><line class="b" x1="172.34" y1="13.92" x2="172.34" y2="13.92"/><line class="d" x1="1" y1="13.92" x2="24.34" y2="13.92"/></svg>